<svg width="16" height="17" viewBox="0 0 16 17" fill="none" xmlns="http://www.w3.org/2000/svg">
<path d="M8 8.5C6.9 8.5 5.95833 8.08385 5.175 7.25156C4.39167 6.41927 4 5.41875 4 4.25C4 3.08125 4.39167 2.08073 5.175 1.24844C5.95833 0.416146 6.9 0 8 0C9.1 0 10.0417 0.416146 10.825 1.24844C11.6083 2.08073 12 3.08125 12 4.25C12 5.41875 11.6083 6.41927 10.825 7.25156C10.0417 8.08385 9.1 8.5 8 8.5ZM0 17V14.025C0 13.4229 0.146 12.8697 0.438 12.3654C0.73 11.861 1.11733 11.4757 1.6 11.2094C2.63333 10.6604 3.68333 10.2489 4.75 9.97475C5.81667 9.70062 6.9 9.56321 8 9.5625C9.1 9.56179 10.1833 9.69921 11.25 9.97475C12.3167 10.2503 13.3667 10.6618 14.4 11.2094C14.8833 11.475 15.271 11.8603 15.563 12.3654C15.855 12.8704 16.0007 13.4236 16 14.025V17H0Z" fill="#6A9AF7"/>
</svg>
