<svg width="16" height="18" viewBox="0 0 16 18" fill="none" xmlns="http://www.w3.org/2000/svg">
<path d="M2.13333 0C1.56754 0 1.02492 0.223109 0.624839 0.620244C0.224761 1.01738 0 1.55601 0 2.11765V14.8235C0 15.3852 0.224761 15.9238 0.624839 16.3209C1.02492 16.7181 1.56754 16.9412 2.13333 16.9412H6.67413C6.40244 16.6146 6.16745 16.2595 5.97333 15.8824H2.13333C1.85044 15.8824 1.57913 15.7708 1.37909 15.5722C1.17905 15.3737 1.06667 15.1043 1.06667 14.8235H5.55413C5.26886 13.8261 5.25704 12.7711 5.51991 11.7676C5.78278 10.7641 6.31079 9.84841 7.04941 9.11522C7.78803 8.38204 8.71046 7.8579 9.7214 7.59697C10.7324 7.33603 11.7951 7.34776 12.8 7.63094V2.11765C12.8 1.55601 12.5752 1.01738 12.1752 0.620244C11.7751 0.223109 11.2325 0 10.6667 0H2.13333ZM2.93333 2.64706H9.86667C10.0788 2.64706 10.2823 2.73072 10.4324 2.87965C10.5824 3.02858 10.6667 3.23056 10.6667 3.44118C10.6667 3.65179 10.5824 3.85378 10.4324 4.0027C10.2823 4.15163 10.0788 4.23529 9.86667 4.23529H2.93333C2.72116 4.23529 2.51768 4.15163 2.36765 4.0027C2.21762 3.85378 2.13333 3.65179 2.13333 3.44118C2.13333 3.23056 2.21762 3.02858 2.36765 2.87965C2.51768 2.73072 2.72116 2.64706 2.93333 2.64706ZM16 13.2353C16 14.499 15.4943 15.7109 14.5941 16.6045C13.6939 17.498 12.473 18 11.2 18C9.92696 18 8.70606 17.498 7.80589 16.6045C6.90571 15.7109 6.4 14.499 6.4 13.2353C6.4 11.9716 6.90571 10.7597 7.80589 9.86614C8.70606 8.97258 9.92696 8.47059 11.2 8.47059C12.473 8.47059 13.6939 8.97258 14.5941 9.86614C15.4943 10.7597 16 11.9716 16 13.2353ZM10.688 11.1536C10.6189 11.1063 10.5385 11.0778 10.4549 11.0709C10.3712 11.064 10.2872 11.079 10.2112 11.1145C10.1493 11.1418 10.0932 11.1806 10.0459 11.2288C9.99618 11.2785 9.95693 11.3376 9.93038 11.4024C9.90383 11.4673 9.89051 11.5368 9.8912 11.6068V14.8627C9.89037 14.9329 9.90362 15.0026 9.93017 15.0677C9.95672 15.1327 9.99605 15.1919 10.0459 15.2418C10.095 15.2892 10.1516 15.3286 10.2133 15.3582C10.3216 15.4075 10.4444 15.415 10.5579 15.3794C10.6072 15.3636 10.6539 15.3408 10.6965 15.3116L13.1456 13.6525C13.2201 13.6037 13.2801 13.5361 13.3195 13.4566C13.3597 13.3764 13.3803 13.288 13.3798 13.1984C13.3792 13.1088 13.3575 13.0206 13.3163 12.9409C13.2741 12.8629 13.2128 12.7967 13.1381 12.7482L10.688 11.1536Z" fill="#6A9AF7"/>
</svg>
