<svg width="16" height="18" viewBox="0 0 16 18" fill="none" xmlns="http://www.w3.org/2000/svg">
<path fill-rule="evenodd" clip-rule="evenodd" d="M2.271 0.1008C1.461 0.1962 1.033 0.3717 0.727 0.6408C0.422 0.910799 0.223 1.2888 0.114 2.0025C0.00199984 2.7378 0 3.7116 0 5.1075V12.8205C0.395703 12.5767 0.835138 12.3962 1.299 12.2868C1.827 12.1617 2.443 12.1617 3.346 12.1626H16V5.1084C16 3.7116 15.998 2.7378 15.886 2.0025C15.777 1.2888 15.578 0.910799 15.273 0.6408C14.967 0.3717 14.539 0.1962 13.729 0.1008C12.895 0.00179999 11.791 0 10.207 0H5.793C4.209 0 3.105 0.00179999 2.271 0.1008ZM2.759 4.1355C2.759 3.7323 3.129 3.4056 3.586 3.4056H12.414C12.631 3.40392 12.8398 3.4797 12.9948 3.61634C13.1498 3.75297 13.2384 3.93934 13.241 4.1346C13.2386 4.33002 13.1502 4.51661 12.9952 4.65344C12.8401 4.79028 12.6311 4.86618 12.414 4.8645H3.586C3.36903 4.86618 3.16017 4.7904 3.00516 4.65376C2.85016 4.51712 2.76164 4.33076 2.759 4.1355ZM3.586 6.8112C3.36903 6.80951 3.16017 6.88529 3.00516 7.02193C2.85016 7.15857 2.76164 7.34493 2.759 7.5402C2.759 7.9434 3.129 8.2701 3.586 8.2701H9.103C9.32014 8.27202 9.52926 8.19634 9.68448 8.05968C9.83971 7.92301 9.92836 7.73652 9.931 7.5411C9.92863 7.34552 9.84009 7.15879 9.68483 7.02193C9.52958 6.88507 9.32031 6.80928 9.103 6.8112H3.586Z" fill="#6A9AF7"/>
<path d="M3.47278 13.6216H15.9998C15.9968 14.6386 15.9788 15.3982 15.8868 15.9976C15.7778 16.7113 15.5788 17.0893 15.2738 17.3593C14.9678 17.6284 14.5398 17.8039 13.7298 17.8993C12.8958 17.9983 11.7918 18.0001 10.2078 18.0001H5.79279C4.20879 18.0001 3.10478 17.9983 2.27078 17.9002C1.46078 17.8039 1.03279 17.6284 0.726785 17.3593C0.421785 17.0893 0.222785 16.7113 0.113785 15.9976C0.0727848 15.7276 0.0457852 15.4243 0.0297852 15.0796C0.167148 14.7426 0.393335 14.4407 0.68892 14.1998C0.984506 13.9588 1.34066 13.786 1.72679 13.6963C2.01679 13.6279 2.39378 13.6216 3.47278 13.6216Z" fill="#6A9AF7"/>
</svg>
