<svg width="1300" height="252" viewBox="0 0 1300 252" fill="none" xmlns="http://www.w3.org/2000/svg">
<rect width="1300" height="252" rx="10" fill="#6A9AF6"/>
<path d="M104.5 155L90.506 141.006M90.506 141.006C92.8998 138.612 94.7986 135.771 96.094 132.643C97.3895 129.515 98.0563 126.163 98.0563 122.778C98.0563 119.393 97.3895 116.041 96.0941 112.913C94.7986 109.786 92.8998 106.944 90.506 104.55C88.1123 102.157 85.2706 100.258 82.143 98.9622C79.0155 97.6668 75.6634 97 72.2781 97C68.8929 97 65.5408 97.6668 62.4133 98.9622C59.2857 100.258 56.444 102.157 54.0502 104.55C49.2159 109.385 46.5 115.941 46.5 122.778C46.5 129.615 49.2159 136.172 54.0502 141.006C58.8846 145.84 65.4414 148.556 72.2781 148.556C79.1149 148.556 85.6717 145.84 90.506 141.006Z" stroke="white" stroke-width="5" stroke-linecap="round" stroke-linejoin="round"/>
<path d="M135.34 105V76.8H154.38V81.64H141.54V88.52H153.5V93.36H141.54V105H135.34ZM157.242 105V85.36H163.162V88.76C164.095 86.4667 166.095 85.2 169.162 84.96L170.922 84.84L171.282 89.92L167.882 90.28C164.895 90.5733 163.402 92.0933 163.402 94.84V105H157.242ZM183.575 105.44C181.255 105.44 179.255 105.027 177.575 104.2C175.921 103.347 174.641 102.16 173.735 100.64C172.855 99.0933 172.415 97.28 172.415 95.2C172.415 93.1733 172.841 91.4 173.695 89.88C174.575 88.3333 175.761 87.1333 177.255 86.28C178.775 85.4 180.521 84.96 182.495 84.96C185.348 84.96 187.615 85.8667 189.295 87.68C190.975 89.4667 191.815 91.8933 191.815 94.96V96.48H178.175C178.388 98.0267 178.948 99.16 179.855 99.88C180.788 100.573 182.068 100.92 183.695 100.92C184.761 100.92 185.841 100.76 186.935 100.44C188.028 100.12 189.015 99.6267 189.895 98.96L191.495 103C190.508 103.747 189.295 104.347 187.855 104.8C186.441 105.227 185.015 105.44 183.575 105.44ZM182.735 88.96C181.455 88.96 180.415 89.3467 179.615 90.12C178.841 90.8933 178.361 91.9733 178.175 93.36H186.815C186.655 90.4267 185.295 88.96 182.735 88.96ZM205.528 105.44C203.208 105.44 201.208 105.027 199.528 104.2C197.874 103.347 196.594 102.16 195.688 100.64C194.808 99.0933 194.368 97.28 194.368 95.2C194.368 93.1733 194.794 91.4 195.648 89.88C196.528 88.3333 197.714 87.1333 199.208 86.28C200.728 85.4 202.474 84.96 204.448 84.96C207.301 84.96 209.568 85.8667 211.248 87.68C212.928 89.4667 213.768 91.8933 213.768 94.96V96.48H200.128C200.341 98.0267 200.901 99.16 201.808 99.88C202.741 100.573 204.021 100.92 205.648 100.92C206.714 100.92 207.794 100.76 208.888 100.44C209.981 100.12 210.968 99.6267 211.848 98.96L213.448 103C212.461 103.747 211.248 104.347 209.808 104.8C208.394 105.227 206.968 105.44 205.528 105.44ZM204.688 88.96C203.408 88.96 202.368 89.3467 201.568 90.12C200.794 90.8933 200.314 91.9733 200.128 93.36H208.768C208.608 90.4267 207.248 88.96 204.688 88.96ZM235.654 105V81.92H226.334V76.8H251.174V81.92H241.854V105H235.654ZM250.523 105V85.36H256.443V88.76C257.376 86.4667 259.376 85.2 262.443 84.96L264.203 84.84L264.563 89.92L261.163 90.28C258.176 90.5733 256.683 92.0933 256.683 94.84V105H250.523ZM266.768 81.56V75.92H273.288V81.56H266.768ZM267.008 105V85.36H273.048V105H267.008ZM284.351 105.44C282.884 105.44 281.591 105.16 280.471 104.6C279.351 104.04 278.457 103.28 277.791 102.32C277.151 101.36 276.831 100.28 276.831 99.08C276.831 97.6667 277.204 96.5333 277.951 95.68C278.697 94.8267 279.911 94.2267 281.591 93.88C283.271 93.5067 285.497 93.32 288.271 93.32H289.711V92.64C289.711 91.4667 289.444 90.64 288.911 90.16C288.377 89.6533 287.471 89.4 286.191 89.4C285.124 89.4 283.991 89.5733 282.791 89.92C281.617 90.24 280.444 90.7333 279.271 91.4L277.631 87.36C278.324 86.9067 279.164 86.4933 280.151 86.12C281.164 85.7467 282.217 85.4667 283.311 85.28C284.404 85.0667 285.444 84.96 286.431 84.96C289.471 84.96 291.737 85.6533 293.231 87.04C294.724 88.4 295.471 90.52 295.471 93.4V105H289.831V102.04C289.431 103.08 288.751 103.907 287.791 104.52C286.857 105.133 285.711 105.44 284.351 105.44ZM285.711 101.4C286.831 101.4 287.777 101.013 288.551 100.24C289.324 99.4667 289.711 98.4667 289.711 97.24V96.44H288.311C286.257 96.44 284.804 96.6267 283.951 97C283.097 97.3467 282.671 97.96 282.671 98.84C282.671 99.5867 282.924 100.2 283.431 100.68C283.964 101.16 284.724 101.4 285.711 101.4ZM307.296 105.44C304.763 105.44 302.91 104.787 301.736 103.48C300.563 102.147 299.976 100.173 299.976 97.56V76.8H306.016V97.32C306.016 99.4533 306.963 100.52 308.856 100.52C309.15 100.52 309.43 100.507 309.696 100.48C309.99 100.453 310.27 100.4 310.536 100.32L310.456 105C309.443 105.293 308.39 105.44 307.296 105.44Z" fill="white"/>
<path d="M140.68 145.18C138.413 145.18 136.687 144.54 135.5 143.26C134.313 141.98 133.72 140.213 133.72 137.96C133.72 136.467 133.987 135.18 134.52 134.1C135.053 133.02 135.82 132.187 136.82 131.6C137.82 131.013 139.027 130.72 140.44 130.72C141.44 130.72 142.36 130.873 143.2 131.18C144.04 131.473 144.753 131.907 145.34 132.48L144.7 133.8C144.06 133.24 143.4 132.833 142.72 132.58C142.04 132.327 141.273 132.2 140.42 132.2C138.82 132.2 137.593 132.707 136.74 133.72C135.887 134.72 135.46 136.133 135.46 137.96C135.46 139.827 135.9 141.253 136.78 142.24C137.66 143.227 138.973 143.72 140.72 143.72C141.853 143.72 142.94 143.527 143.98 143.14V138.96H140.4V137.66H145.4V144.18C145.027 144.38 144.573 144.553 144.04 144.7C143.52 144.847 142.967 144.96 142.38 145.04C141.793 145.133 141.227 145.18 140.68 145.18ZM152.912 145.18C151.378 145.18 150.165 144.733 149.272 143.84C148.378 142.933 147.932 141.707 147.932 140.16C147.932 139.16 148.132 138.28 148.532 137.52C148.932 136.747 149.478 136.153 150.172 135.74C150.878 135.313 151.692 135.1 152.612 135.1C153.932 135.1 154.965 135.527 155.712 136.38C156.458 137.22 156.832 138.38 156.832 139.86V140.48H149.512C149.565 141.587 149.885 142.433 150.472 143.02C151.058 143.593 151.872 143.88 152.912 143.88C153.498 143.88 154.058 143.793 154.592 143.62C155.125 143.433 155.632 143.133 156.112 142.72L156.672 143.86C156.232 144.273 155.672 144.6 154.992 144.84C154.312 145.067 153.618 145.18 152.912 145.18ZM152.652 136.3C151.732 136.3 151.005 136.587 150.472 137.16C149.938 137.733 149.625 138.487 149.532 139.42H155.432C155.392 138.433 155.132 137.667 154.652 137.12C154.185 136.573 153.518 136.3 152.652 136.3ZM163.076 145.18C161.93 145.18 161.07 144.88 160.496 144.28C159.923 143.667 159.636 142.787 159.636 141.64V136.54H157.736V135.28H159.636V132.3H161.256V135.28H164.336V136.54H161.256V141.48C161.256 142.24 161.416 142.82 161.736 143.22C162.056 143.607 162.576 143.8 163.296 143.8C163.51 143.8 163.723 143.773 163.936 143.72C164.15 143.667 164.343 143.613 164.516 143.56L164.796 144.8C164.623 144.893 164.37 144.98 164.036 145.06C163.703 145.14 163.383 145.18 163.076 145.18ZM175.205 145.18C174.058 145.18 173.198 144.88 172.625 144.28C172.052 143.667 171.765 142.787 171.765 141.64V136.54H169.865V135.28H171.765V132.3H173.385V135.28H176.465V136.54H173.385V141.48C173.385 142.24 173.545 142.82 173.865 143.22C174.185 143.607 174.705 143.8 175.425 143.8C175.638 143.8 175.852 143.773 176.065 143.72C176.278 143.667 176.472 143.613 176.645 143.56L176.925 144.8C176.752 144.893 176.498 144.98 176.165 145.06C175.832 145.14 175.512 145.18 175.205 145.18ZM178.297 145V130.9H179.917V136.88C180.237 136.293 180.684 135.853 181.257 135.56C181.844 135.253 182.497 135.1 183.217 135.1C185.524 135.1 186.677 136.38 186.677 138.94V145H185.057V139.04C185.057 138.133 184.877 137.473 184.517 137.06C184.171 136.633 183.611 136.42 182.837 136.42C181.944 136.42 181.231 136.7 180.697 137.26C180.177 137.807 179.917 138.54 179.917 139.46V145H178.297ZM194.045 145.18C192.511 145.18 191.298 144.733 190.405 143.84C189.511 142.933 189.065 141.707 189.065 140.16C189.065 139.16 189.265 138.28 189.665 137.52C190.065 136.747 190.611 136.153 191.305 135.74C192.011 135.313 192.825 135.1 193.745 135.1C195.065 135.1 196.098 135.527 196.845 136.38C197.591 137.22 197.965 138.38 197.965 139.86V140.48H190.645C190.698 141.587 191.018 142.433 191.605 143.02C192.191 143.593 193.005 143.88 194.045 143.88C194.631 143.88 195.191 143.793 195.725 143.62C196.258 143.433 196.765 143.133 197.245 142.72L197.805 143.86C197.365 144.273 196.805 144.6 196.125 144.84C195.445 145.067 194.751 145.18 194.045 145.18ZM193.785 136.3C192.865 136.3 192.138 136.587 191.605 137.16C191.071 137.733 190.758 138.487 190.665 139.42H196.565C196.525 138.433 196.265 137.667 195.785 137.12C195.318 136.573 194.651 136.3 193.785 136.3ZM205.966 145V136.54H204.046V135.28H205.966V134.94C205.966 133.647 206.286 132.667 206.926 132C207.579 131.333 208.579 130.96 209.926 130.88L210.666 130.84L210.766 132.1L209.926 132.14C209.099 132.193 208.499 132.44 208.126 132.88C207.766 133.307 207.586 133.927 207.586 134.74V135.28H213.586V145H211.966V136.54H207.586V145H205.966ZM211.786 132.86V131.04H213.766V132.86H211.786ZM216.618 145V135.28H218.198V137.02C218.718 135.847 219.784 135.2 221.398 135.08L221.978 135.02L222.098 136.42L221.078 136.54C220.158 136.62 219.458 136.913 218.978 137.42C218.498 137.913 218.258 138.593 218.258 139.46V145H216.618ZM226.968 145.18C226.208 145.18 225.488 145.073 224.808 144.86C224.128 144.647 223.568 144.347 223.128 143.96L223.648 142.82C224.128 143.207 224.655 143.493 225.228 143.68C225.815 143.853 226.408 143.94 227.008 143.94C227.768 143.94 228.341 143.8 228.728 143.52C229.115 143.24 229.308 142.86 229.308 142.38C229.308 142.007 229.181 141.713 228.928 141.5C228.675 141.273 228.275 141.1 227.728 140.98L225.908 140.58C224.255 140.22 223.428 139.367 223.428 138.02C223.428 137.14 223.775 136.433 224.468 135.9C225.175 135.367 226.095 135.1 227.228 135.1C227.895 135.1 228.528 135.207 229.128 135.42C229.741 135.62 230.248 135.92 230.648 136.32L230.108 137.46C229.721 137.1 229.268 136.827 228.748 136.64C228.241 136.44 227.735 136.34 227.228 136.34C226.481 136.34 225.915 136.487 225.528 136.78C225.141 137.073 224.948 137.46 224.948 137.94C224.948 138.687 225.441 139.167 226.428 139.38L228.248 139.76C229.101 139.947 229.748 140.247 230.188 140.66C230.628 141.06 230.848 141.607 230.848 142.3C230.848 143.193 230.495 143.9 229.788 144.42C229.081 144.927 228.141 145.18 226.968 145.18ZM237.119 145.18C235.973 145.18 235.113 144.88 234.539 144.28C233.966 143.667 233.679 142.787 233.679 141.64V136.54H231.779V135.28H233.679V132.3H235.299V135.28H238.379V136.54H235.299V141.48C235.299 142.24 235.459 142.82 235.779 143.22C236.099 143.607 236.619 143.8 237.339 143.8C237.553 143.8 237.766 143.773 237.979 143.72C238.193 143.667 238.386 143.613 238.559 143.56L238.839 144.8C238.666 144.893 238.413 144.98 238.079 145.06C237.746 145.14 237.426 145.18 237.119 145.18ZM246.068 145L252.628 132.32H245.168V130.9H254.488V132.14L247.888 145H246.068ZM266.177 145.18C265.31 145.18 264.55 144.973 263.897 144.56C263.257 144.147 262.757 143.567 262.397 142.82C262.05 142.06 261.877 141.167 261.877 140.14C261.877 139.1 262.05 138.207 262.397 137.46C262.757 136.7 263.257 136.12 263.897 135.72C264.55 135.307 265.31 135.1 266.177 135.1C266.937 135.1 267.604 135.267 268.177 135.6C268.764 135.933 269.197 136.393 269.477 136.98V130.9H271.097V145H269.517V143.22C269.237 143.833 268.804 144.313 268.217 144.66C267.63 145.007 266.95 145.18 266.177 145.18ZM266.517 143.88C267.424 143.88 268.15 143.56 268.697 142.92C269.244 142.267 269.517 141.34 269.517 140.14C269.517 138.927 269.244 138 268.697 137.36C268.15 136.72 267.424 136.4 266.517 136.4C265.597 136.4 264.864 136.72 264.317 137.36C263.784 138 263.517 138.927 263.517 140.14C263.517 141.34 263.784 142.267 264.317 142.92C264.864 143.56 265.597 143.88 266.517 143.88ZM277.197 145.18C276.531 145.18 275.931 145.053 275.397 144.8C274.877 144.533 274.464 144.173 274.157 143.72C273.851 143.267 273.697 142.76 273.697 142.2C273.697 141.493 273.877 140.933 274.237 140.52C274.611 140.107 275.217 139.813 276.057 139.64C276.911 139.453 278.071 139.36 279.537 139.36H280.177V138.74C280.177 137.913 280.004 137.32 279.657 136.96C279.324 136.587 278.784 136.4 278.037 136.4C277.451 136.4 276.884 136.487 276.337 136.66C275.791 136.82 275.231 137.087 274.657 137.46L274.097 136.28C274.604 135.92 275.217 135.633 275.937 135.42C276.671 135.207 277.371 135.1 278.037 135.1C279.291 135.1 280.217 135.407 280.817 136.02C281.431 136.633 281.737 137.587 281.737 138.88V145H280.217V143.32C279.964 143.893 279.571 144.347 279.037 144.68C278.517 145.013 277.904 145.18 277.197 145.18ZM277.457 143.96C278.257 143.96 278.911 143.687 279.417 143.14C279.924 142.58 280.177 141.873 280.177 141.02V140.42H279.557C278.477 140.42 277.624 140.473 276.997 140.58C276.384 140.673 275.951 140.847 275.697 141.1C275.457 141.34 275.337 141.673 275.337 142.1C275.337 142.647 275.524 143.093 275.897 143.44C276.284 143.787 276.804 143.96 277.457 143.96ZM285.765 148.6L287.425 144.84L283.325 135.28H285.085L288.305 143.16L291.545 135.28H293.245L287.465 148.6H285.765ZM298.003 145.18C297.243 145.18 296.523 145.073 295.843 144.86C295.163 144.647 294.603 144.347 294.163 143.96L294.683 142.82C295.163 143.207 295.69 143.493 296.263 143.68C296.85 143.853 297.443 143.94 298.043 143.94C298.803 143.94 299.376 143.8 299.763 143.52C300.15 143.24 300.343 142.86 300.343 142.38C300.343 142.007 300.216 141.713 299.963 141.5C299.71 141.273 299.31 141.1 298.763 140.98L296.943 140.58C295.29 140.22 294.463 139.367 294.463 138.02C294.463 137.14 294.81 136.433 295.503 135.9C296.21 135.367 297.13 135.1 298.263 135.1C298.93 135.1 299.563 135.207 300.163 135.42C300.776 135.62 301.283 135.92 301.683 136.32L301.143 137.46C300.756 137.1 300.303 136.827 299.783 136.64C299.276 136.44 298.77 136.34 298.263 136.34C297.516 136.34 296.95 136.487 296.563 136.78C296.176 137.073 295.983 137.46 295.983 137.94C295.983 138.687 296.476 139.167 297.463 139.38L299.283 139.76C300.136 139.947 300.783 140.247 301.223 140.66C301.663 141.06 301.883 141.607 301.883 142.3C301.883 143.193 301.53 143.9 300.823 144.42C300.116 144.927 299.176 145.18 298.003 145.18ZM310.009 145V136.54H308.089V135.28H310.009V134.94C310.009 133.647 310.329 132.667 310.969 132C311.622 131.333 312.622 130.96 313.969 130.88L314.749 130.84L314.889 132.08L313.969 132.14C313.142 132.207 312.542 132.453 312.169 132.88C311.809 133.307 311.629 133.927 311.629 134.74V135.28H314.429V136.54H311.629V145H310.009ZM316.149 145V135.28H317.729V137.02C318.249 135.847 319.316 135.2 320.929 135.08L321.509 135.02L321.629 136.42L320.609 136.54C319.689 136.62 318.989 136.913 318.509 137.42C318.029 137.913 317.789 138.593 317.789 139.46V145H316.149ZM327.58 145.18C326.046 145.18 324.833 144.733 323.94 143.84C323.046 142.933 322.6 141.707 322.6 140.16C322.6 139.16 322.8 138.28 323.2 137.52C323.6 136.747 324.146 136.153 324.84 135.74C325.546 135.313 326.36 135.1 327.28 135.1C328.6 135.1 329.633 135.527 330.38 136.38C331.126 137.22 331.5 138.38 331.5 139.86V140.48H324.18C324.233 141.587 324.553 142.433 325.14 143.02C325.726 143.593 326.54 143.88 327.58 143.88C328.166 143.88 328.726 143.793 329.26 143.62C329.793 143.433 330.3 143.133 330.78 142.72L331.34 143.86C330.9 144.273 330.34 144.6 329.66 144.84C328.98 145.067 328.286 145.18 327.58 145.18ZM327.32 136.3C326.4 136.3 325.673 136.587 325.14 137.16C324.606 137.733 324.293 138.487 324.2 139.42H330.1C330.06 138.433 329.8 137.667 329.32 137.12C328.853 136.573 328.186 136.3 327.32 136.3ZM338.224 145.18C336.691 145.18 335.478 144.733 334.584 143.84C333.691 142.933 333.244 141.707 333.244 140.16C333.244 139.16 333.444 138.28 333.844 137.52C334.244 136.747 334.791 136.153 335.484 135.74C336.191 135.313 337.004 135.1 337.924 135.1C339.244 135.1 340.278 135.527 341.024 136.38C341.771 137.22 342.144 138.38 342.144 139.86V140.48H334.824C334.878 141.587 335.198 142.433 335.784 143.02C336.371 143.593 337.184 143.88 338.224 143.88C338.811 143.88 339.371 143.793 339.904 143.62C340.438 143.433 340.944 143.133 341.424 142.72L341.984 143.86C341.544 144.273 340.984 144.6 340.304 144.84C339.624 145.067 338.931 145.18 338.224 145.18ZM337.964 136.3C337.044 136.3 336.318 136.587 335.784 137.16C335.251 137.733 334.938 138.487 334.844 139.42H340.744C340.704 138.433 340.444 137.667 339.964 137.12C339.498 136.573 338.831 136.3 337.964 136.3ZM345.069 147.28L344.309 146.7C344.602 146.393 344.809 146.1 344.929 145.82C345.062 145.553 345.149 145.28 345.189 145H344.229V142.96H346.269V144.4C346.269 144.947 346.182 145.453 346.009 145.92C345.835 146.387 345.522 146.84 345.069 147.28ZM356.756 145L353.136 135.28H354.836L357.576 143.1L360.416 135.28H361.796L364.596 143.12L367.376 135.28H368.996L365.356 145H363.816L361.076 137.46L358.316 145H356.756ZM370.793 132.86V131.04H372.793V132.86H370.793ZM370.993 145V135.28H372.613V145H370.993ZM379.541 145.18C378.394 145.18 377.534 144.88 376.961 144.28C376.388 143.667 376.101 142.787 376.101 141.64V136.54H374.201V135.28H376.101V132.3H377.721V135.28H380.801V136.54H377.721V141.48C377.721 142.24 377.881 142.82 378.201 143.22C378.521 143.607 379.041 143.8 379.761 143.8C379.974 143.8 380.188 143.773 380.401 143.72C380.614 143.667 380.808 143.613 380.981 143.56L381.261 144.8C381.088 144.893 380.834 144.98 380.501 145.06C380.168 145.14 379.848 145.18 379.541 145.18ZM382.633 145V130.9H384.253V136.88C384.573 136.293 385.02 135.853 385.593 135.56C386.18 135.253 386.833 135.1 387.553 135.1C389.86 135.1 391.013 136.38 391.013 138.94V145H389.393V139.04C389.393 138.133 389.213 137.473 388.853 137.06C388.507 136.633 387.947 136.42 387.173 136.42C386.28 136.42 385.567 136.7 385.033 137.26C384.513 137.807 384.253 138.54 384.253 139.46V145H382.633ZM138.4 172.18C136.867 172.18 135.653 171.733 134.76 170.84C133.867 169.933 133.42 168.707 133.42 167.16C133.42 166.16 133.62 165.28 134.02 164.52C134.42 163.747 134.967 163.153 135.66 162.74C136.367 162.313 137.18 162.1 138.1 162.1C139.42 162.1 140.453 162.527 141.2 163.38C141.947 164.22 142.32 165.38 142.32 166.86V167.48H135C135.053 168.587 135.373 169.433 135.96 170.02C136.547 170.593 137.36 170.88 138.4 170.88C138.987 170.88 139.547 170.793 140.08 170.62C140.613 170.433 141.12 170.133 141.6 169.72L142.16 170.86C141.72 171.273 141.16 171.6 140.48 171.84C139.8 172.067 139.107 172.18 138.4 172.18ZM138.14 163.3C137.22 163.3 136.493 163.587 135.96 164.16C135.427 164.733 135.113 165.487 135.02 166.42H140.92C140.88 165.433 140.62 164.667 140.14 164.12C139.673 163.573 139.007 163.3 138.14 163.3ZM147.407 172L143.227 162.28H144.987L148.207 170.16L151.467 162.28H153.127L148.927 172H147.407ZM159.084 172.18C157.55 172.18 156.337 171.733 155.444 170.84C154.55 169.933 154.104 168.707 154.104 167.16C154.104 166.16 154.304 165.28 154.704 164.52C155.104 163.747 155.65 163.153 156.344 162.74C157.05 162.313 157.864 162.1 158.784 162.1C160.104 162.1 161.137 162.527 161.884 163.38C162.63 164.22 163.004 165.38 163.004 166.86V167.48H155.684C155.737 168.587 156.057 169.433 156.644 170.02C157.23 170.593 158.044 170.88 159.084 170.88C159.67 170.88 160.23 170.793 160.764 170.62C161.297 170.433 161.804 170.133 162.284 169.72L162.844 170.86C162.404 171.273 161.844 171.6 161.164 171.84C160.484 172.067 159.79 172.18 159.084 172.18ZM158.824 163.3C157.904 163.3 157.177 163.587 156.644 164.16C156.11 164.733 155.797 165.487 155.704 166.42H161.604C161.564 165.433 161.304 164.667 160.824 164.12C160.357 163.573 159.69 163.3 158.824 163.3ZM165.348 172V162.28H166.928V164.02C167.448 162.847 168.515 162.2 170.128 162.08L170.708 162.02L170.828 163.42L169.808 163.54C168.888 163.62 168.188 163.913 167.708 164.42C167.228 164.913 166.988 165.593 166.988 166.46V172H165.348ZM174.242 175.6L175.902 171.84L171.802 162.28H173.562L176.782 170.16L180.022 162.28H181.722L175.942 175.6H174.242ZM188.572 172V162.28H190.152V163.92C190.445 163.333 190.852 162.887 191.372 162.58C191.892 162.26 192.498 162.1 193.192 162.1C194.712 162.1 195.685 162.76 196.112 164.08C196.405 163.467 196.838 162.987 197.412 162.64C197.985 162.28 198.645 162.1 199.392 162.1C201.552 162.1 202.632 163.38 202.632 165.94V172H201.012V166.02C201.012 165.127 200.852 164.473 200.532 164.06C200.225 163.633 199.712 163.42 198.992 163.42C198.205 163.42 197.578 163.7 197.112 164.26C196.645 164.82 196.412 165.567 196.412 166.5V172H194.792V166.02C194.792 165.127 194.632 164.473 194.312 164.06C194.005 163.633 193.492 163.42 192.772 163.42C191.972 163.42 191.338 163.7 190.872 164.26C190.418 164.82 190.192 165.567 190.192 166.5V172H188.572ZM210.041 172.18C208.507 172.18 207.294 171.733 206.401 170.84C205.507 169.933 205.061 168.707 205.061 167.16C205.061 166.16 205.261 165.28 205.661 164.52C206.061 163.747 206.607 163.153 207.301 162.74C208.007 162.313 208.821 162.1 209.741 162.1C211.061 162.1 212.094 162.527 212.841 163.38C213.587 164.22 213.961 165.38 213.961 166.86V167.48H206.641C206.694 168.587 207.014 169.433 207.601 170.02C208.187 170.593 209.001 170.88 210.041 170.88C210.627 170.88 211.187 170.793 211.721 170.62C212.254 170.433 212.761 170.133 213.241 169.72L213.801 170.86C213.361 171.273 212.801 171.6 212.121 171.84C211.441 172.067 210.747 172.18 210.041 172.18ZM209.781 163.3C208.861 163.3 208.134 163.587 207.601 164.16C207.067 164.733 206.754 165.487 206.661 166.42H212.561C212.521 165.433 212.261 164.667 211.781 164.12C211.314 163.573 210.647 163.3 209.781 163.3ZM216.305 172V162.28H217.885V163.94C218.205 163.327 218.658 162.867 219.245 162.56C219.832 162.253 220.492 162.1 221.225 162.1C223.532 162.1 224.685 163.38 224.685 165.94V172H223.065V166.04C223.065 165.133 222.885 164.473 222.525 164.06C222.178 163.633 221.618 163.42 220.845 163.42C219.952 163.42 219.238 163.7 218.705 164.26C218.185 164.807 217.925 165.54 217.925 166.46V172H216.305ZM231.572 172.18C230.426 172.18 229.566 171.88 228.992 171.28C228.419 170.667 228.132 169.787 228.132 168.64V163.54H226.232V162.28H228.132V159.3H229.752V162.28H232.832V163.54H229.752V168.48C229.752 169.24 229.912 169.82 230.232 170.22C230.552 170.607 231.072 170.8 231.792 170.8C232.006 170.8 232.219 170.773 232.432 170.72C232.646 170.667 232.839 170.613 233.012 170.56L233.292 171.8C233.119 171.893 232.866 171.98 232.532 172.06C232.199 172.14 231.879 172.18 231.572 172.18ZM238.607 172.18C237.66 172.18 236.84 171.973 236.147 171.56C235.454 171.147 234.914 170.567 234.527 169.82C234.154 169.06 233.967 168.167 233.967 167.14C233.967 166.113 234.154 165.227 234.527 164.48C234.914 163.72 235.454 163.133 236.147 162.72C236.84 162.307 237.66 162.1 238.607 162.1C239.54 162.1 240.354 162.307 241.047 162.72C241.754 163.133 242.294 163.72 242.667 164.48C243.054 165.227 243.247 166.113 243.247 167.14C243.247 168.167 243.054 169.06 242.667 169.82C242.294 170.567 241.754 171.147 241.047 171.56C240.354 171.973 239.54 172.18 238.607 172.18ZM238.607 170.88C239.514 170.88 240.24 170.56 240.787 169.92C241.334 169.267 241.607 168.34 241.607 167.14C241.607 165.927 241.334 165 240.787 164.36C240.24 163.72 239.514 163.4 238.607 163.4C237.687 163.4 236.954 163.72 236.407 164.36C235.874 165 235.607 165.927 235.607 167.14C235.607 168.34 235.874 169.267 236.407 169.92C236.954 170.56 237.687 170.88 238.607 170.88ZM245.68 172V162.28H247.26V164.02C247.78 162.847 248.847 162.2 250.46 162.08L251.04 162.02L251.16 163.42L250.14 163.54C249.22 163.62 248.52 163.913 248.04 164.42C247.56 164.913 247.32 165.593 247.32 166.46V172H245.68Z" fill="white"/>
<path d="M558.34 105V76.8H562.94L577.02 94.76V76.8H582.78V105H578.22L564.1 87V105H558.34ZM597.377 105.44C595.271 105.44 593.431 105.027 591.857 104.2C590.311 103.347 589.111 102.16 588.257 100.64C587.404 99.0933 586.977 97.2667 586.977 95.16C586.977 93.08 587.404 91.28 588.257 89.76C589.111 88.2133 590.311 87.0267 591.857 86.2C593.431 85.3733 595.271 84.96 597.377 84.96C599.484 84.96 601.311 85.3733 602.857 86.2C604.431 87.0267 605.644 88.2133 606.497 89.76C607.377 91.28 607.817 93.08 607.817 95.16C607.817 97.2667 607.377 99.0933 606.497 100.64C605.644 102.16 604.431 103.347 602.857 104.2C601.311 105.027 599.484 105.44 597.377 105.44ZM597.377 100.92C598.657 100.92 599.697 100.453 600.497 99.52C601.324 98.5867 601.737 97.1333 601.737 95.16C601.737 93.2133 601.324 91.7867 600.497 90.88C599.697 89.9467 598.657 89.48 597.377 89.48C596.097 89.48 595.057 89.9467 594.257 90.88C593.457 91.7867 593.057 93.2133 593.057 95.16C593.057 97.1333 593.457 98.5867 594.257 99.52C595.057 100.453 596.097 100.92 597.377 100.92ZM633.225 105.44C631.011 105.44 628.918 105.16 626.945 104.6C624.998 104.04 623.371 103.28 622.065 102.32L623.865 97.44C625.118 98.32 626.545 99.0133 628.145 99.52C629.771 100.027 631.465 100.28 633.225 100.28C635.145 100.28 636.518 99.9867 637.345 99.4C638.198 98.7867 638.625 98.0267 638.625 97.12C638.625 96.3467 638.331 95.7333 637.745 95.28C637.158 94.8267 636.131 94.44 634.665 94.12L630.145 93.16C625.105 92.0933 622.585 89.48 622.585 85.32C622.585 83.5333 623.065 81.9733 624.025 80.64C624.985 79.28 626.318 78.2267 628.025 77.48C629.758 76.7333 631.758 76.36 634.025 76.36C635.971 76.36 637.798 76.64 639.505 77.2C641.211 77.76 642.625 78.5467 643.745 79.56L641.945 84.12C639.758 82.3867 637.105 81.52 633.985 81.52C632.305 81.52 630.998 81.8533 630.065 82.52C629.158 83.16 628.705 84 628.705 85.04C628.705 85.8133 628.985 86.44 629.545 86.92C630.105 87.4 631.078 87.7867 632.465 88.08L636.985 89.04C642.158 90.16 644.745 92.6933 644.745 96.64C644.745 98.4 644.265 99.9467 643.305 101.28C642.371 102.587 641.038 103.613 639.305 104.36C637.598 105.08 635.571 105.44 633.225 105.44ZM657.616 105.44C652.096 105.44 649.336 102.76 649.336 97.4V89.88H645.616V85.36H649.336V79.6H655.376V85.36H661.176V89.88H655.376V97.16C655.376 98.28 655.63 99.12 656.136 99.68C656.67 100.24 657.51 100.52 658.656 100.52C659.003 100.52 659.363 100.48 659.736 100.4C660.136 100.32 660.563 100.213 661.016 100.08L661.896 104.48C661.336 104.773 660.67 105 659.896 105.16C659.123 105.347 658.363 105.44 657.616 105.44ZM664.148 105V85.36H670.068V88.76C671.001 86.4667 673.001 85.2 676.068 84.96L677.828 84.84L678.188 89.92L674.788 90.28C671.801 90.5733 670.308 92.0933 670.308 94.84V105H664.148ZM680.393 81.56V75.92H686.913V81.56H680.393ZM680.633 105V85.36H686.673V105H680.633ZM691.336 105V85.36H697.256V88.24C697.922 87.1733 698.816 86.36 699.936 85.8C701.056 85.24 702.309 84.96 703.696 84.96C706.016 84.96 707.749 85.64 708.896 87C710.042 88.3333 710.616 90.4 710.616 93.2V105H704.576V93.48C704.576 92.12 704.322 91.1467 703.816 90.56C703.309 89.9467 702.562 89.64 701.576 89.64C700.296 89.64 699.269 90.04 698.496 90.84C697.749 91.64 697.376 92.7067 697.376 94.04V105H691.336ZM724.565 112.64C722.671 112.64 720.898 112.44 719.245 112.04C717.618 111.64 716.191 111.013 714.965 110.16L716.605 106.04C717.671 106.707 718.871 107.213 720.205 107.56C721.565 107.933 722.845 108.12 724.045 108.12C727.458 108.12 729.165 106.547 729.165 103.4V101.16C728.631 102.173 727.791 102.987 726.645 103.6C725.498 104.213 724.245 104.52 722.885 104.52C721.125 104.52 719.591 104.12 718.285 103.32C716.978 102.493 715.965 101.347 715.245 99.88C714.525 98.4133 714.165 96.6933 714.165 94.72C714.165 92.7733 714.525 91.0667 715.245 89.6C715.965 88.1333 716.978 87 718.285 86.2C719.591 85.3733 721.125 84.96 722.885 84.96C724.298 84.96 725.565 85.2667 726.685 85.88C727.805 86.4933 728.631 87.3067 729.165 88.32V85.36H735.045V102.72C735.045 106.027 734.151 108.507 732.365 110.16C730.578 111.813 727.978 112.64 724.565 112.64ZM724.685 100C726.018 100 727.085 99.5333 727.885 98.6C728.711 97.6667 729.125 96.3733 729.125 94.72C729.125 93.0667 728.711 91.7867 727.885 90.88C727.085 89.9467 726.018 89.48 724.685 89.48C723.325 89.48 722.245 89.9467 721.445 90.88C720.645 91.7867 720.245 93.0667 720.245 94.72C720.245 96.3733 720.645 97.6667 721.445 98.6C722.245 99.5333 723.325 100 724.685 100ZM747.254 105.44C745.521 105.44 743.907 105.24 742.414 104.84C740.921 104.44 739.681 103.893 738.694 103.2L740.134 99.28C741.121 99.8933 742.241 100.387 743.494 100.76C744.774 101.107 746.041 101.28 747.294 101.28C748.414 101.28 749.241 101.107 749.774 100.76C750.307 100.387 750.574 99.9067 750.574 99.32C750.574 98.3867 749.894 97.8 748.534 97.56L744.334 96.8C742.654 96.5067 741.374 95.9067 740.494 95C739.614 94.0933 739.174 92.9067 739.174 91.44C739.174 90.1067 739.547 88.96 740.294 88C741.041 87.04 742.067 86.2933 743.374 85.76C744.681 85.2267 746.187 84.96 747.894 84.96C749.307 84.96 750.681 85.1467 752.014 85.52C753.347 85.8667 754.494 86.4267 755.454 87.2L753.934 91.08C753.134 90.4933 752.174 90.0133 751.054 89.64C749.961 89.2667 748.934 89.08 747.974 89.08C746.774 89.08 745.907 89.28 745.374 89.68C744.841 90.0533 744.574 90.5333 744.574 91.12C744.574 92.0533 745.201 92.64 746.454 92.88L750.654 93.64C752.387 93.9333 753.707 94.52 754.614 95.4C755.521 96.2533 755.974 97.4267 755.974 98.92C755.974 100.973 755.174 102.573 753.574 103.72C751.974 104.867 749.867 105.44 747.254 105.44Z" fill="white"/>
<path d="M563.34 145.18C561.953 145.18 560.767 144.887 559.78 144.3C558.793 143.713 558.033 142.88 557.5 141.8C556.98 140.72 556.72 139.433 556.72 137.94C556.72 136.46 556.98 135.18 557.5 134.1C558.033 133.02 558.793 132.187 559.78 131.6C560.767 131.013 561.953 130.72 563.34 130.72C564.313 130.72 565.207 130.873 566.02 131.18C566.847 131.487 567.547 131.933 568.12 132.52L567.48 133.86C566.867 133.287 566.227 132.873 565.56 132.62C564.907 132.353 564.18 132.22 563.38 132.22C561.793 132.22 560.58 132.72 559.74 133.72C558.9 134.72 558.48 136.127 558.48 137.94C558.48 139.767 558.9 141.18 559.74 142.18C560.58 143.18 561.793 143.68 563.38 143.68C564.18 143.68 564.907 143.553 565.56 143.3C566.227 143.033 566.867 142.613 567.48 142.04L568.12 143.38C567.547 143.953 566.847 144.4 566.02 144.72C565.207 145.027 564.313 145.18 563.34 145.18ZM573.225 145.18C572.558 145.18 571.958 145.053 571.425 144.8C570.905 144.533 570.491 144.173 570.185 143.72C569.878 143.267 569.725 142.76 569.725 142.2C569.725 141.493 569.905 140.933 570.265 140.52C570.638 140.107 571.245 139.813 572.085 139.64C572.938 139.453 574.098 139.36 575.565 139.36H576.205V138.74C576.205 137.913 576.031 137.32 575.685 136.96C575.351 136.587 574.811 136.4 574.065 136.4C573.478 136.4 572.911 136.487 572.365 136.66C571.818 136.82 571.258 137.087 570.685 137.46L570.125 136.28C570.631 135.92 571.245 135.633 571.965 135.42C572.698 135.207 573.398 135.1 574.065 135.1C575.318 135.1 576.245 135.407 576.845 136.02C577.458 136.633 577.765 137.587 577.765 138.88V145H576.245V143.32C575.991 143.893 575.598 144.347 575.065 144.68C574.545 145.013 573.931 145.18 573.225 145.18ZM573.485 143.96C574.285 143.96 574.938 143.687 575.445 143.14C575.951 142.58 576.205 141.873 576.205 141.02V140.42H575.585C574.505 140.42 573.651 140.473 573.025 140.58C572.411 140.673 571.978 140.847 571.725 141.1C571.485 141.34 571.365 141.673 571.365 142.1C571.365 142.647 571.551 143.093 571.925 143.44C572.311 143.787 572.831 143.96 573.485 143.96ZM580.77 145V135.28H582.35V136.94C582.67 136.327 583.123 135.867 583.71 135.56C584.297 135.253 584.957 135.1 585.69 135.1C587.997 135.1 589.15 136.38 589.15 138.94V145H587.53V139.04C587.53 138.133 587.35 137.473 586.99 137.06C586.643 136.633 586.083 136.42 585.31 136.42C584.417 136.42 583.703 136.7 583.17 137.26C582.65 137.807 582.39 138.54 582.39 139.46V145H580.77ZM596.257 145.18C595.284 145.18 594.444 144.973 593.737 144.56C593.031 144.133 592.484 143.54 592.097 142.78C591.724 142.007 591.537 141.107 591.537 140.08C591.537 138.533 591.957 137.32 592.797 136.44C593.637 135.547 594.791 135.1 596.257 135.1C596.857 135.1 597.451 135.207 598.037 135.42C598.624 135.633 599.111 135.933 599.497 136.32L598.937 137.5C598.551 137.127 598.124 136.853 597.657 136.68C597.204 136.507 596.771 136.42 596.357 136.42C595.344 136.42 594.564 136.74 594.017 137.38C593.471 138.007 593.197 138.913 593.197 140.1C593.197 141.26 593.471 142.18 594.017 142.86C594.564 143.527 595.344 143.86 596.357 143.86C596.771 143.86 597.204 143.773 597.657 143.6C598.124 143.427 598.551 143.147 598.937 142.76L599.497 143.94C599.111 144.327 598.617 144.633 598.017 144.86C597.431 145.073 596.844 145.18 596.257 145.18ZM605.58 145.18C604.046 145.18 602.833 144.733 601.94 143.84C601.046 142.933 600.6 141.707 600.6 140.16C600.6 139.16 600.8 138.28 601.2 137.52C601.6 136.747 602.146 136.153 602.84 135.74C603.546 135.313 604.36 135.1 605.28 135.1C606.6 135.1 607.633 135.527 608.38 136.38C609.126 137.22 609.5 138.38 609.5 139.86V140.48H602.18C602.233 141.587 602.553 142.433 603.14 143.02C603.726 143.593 604.54 143.88 605.58 143.88C606.166 143.88 606.726 143.793 607.26 143.62C607.793 143.433 608.3 143.133 608.78 142.72L609.34 143.86C608.9 144.273 608.34 144.6 607.66 144.84C606.98 145.067 606.286 145.18 605.58 145.18ZM605.32 136.3C604.4 136.3 603.673 136.587 603.14 137.16C602.606 137.733 602.293 138.487 602.2 139.42H608.1C608.06 138.433 607.8 137.667 607.32 137.12C606.853 136.573 606.186 136.3 605.32 136.3ZM614.824 145.18C613.838 145.18 613.091 144.893 612.584 144.32C612.091 143.733 611.844 142.887 611.844 141.78V130.9H613.464V141.66C613.464 143.087 614.031 143.8 615.164 143.8C615.498 143.8 615.798 143.76 616.064 143.68L616.024 145.04C615.611 145.133 615.211 145.18 614.824 145.18ZM620.742 145.18C619.756 145.18 619.009 144.893 618.502 144.32C618.009 143.733 617.762 142.887 617.762 141.78V130.9H619.382V141.66C619.382 143.087 619.949 143.8 621.082 143.8C621.416 143.8 621.716 143.76 621.982 143.68L621.942 145.04C621.529 145.133 621.129 145.18 620.742 145.18ZM623.48 132.86V131.04H625.48V132.86H623.48ZM623.68 145V135.28H625.3V145H623.68ZM628.329 145V135.28H629.909V136.94C630.229 136.327 630.682 135.867 631.269 135.56C631.855 135.253 632.515 135.1 633.249 135.1C635.555 135.1 636.709 136.38 636.709 138.94V145H635.089V139.04C635.089 138.133 634.909 137.473 634.549 137.06C634.202 136.633 633.642 136.42 632.869 136.42C631.975 136.42 631.262 136.7 630.729 137.26C630.209 137.807 629.949 138.54 629.949 139.46V145H628.329ZM643.996 148.78C643.156 148.78 642.362 148.667 641.616 148.44C640.882 148.227 640.229 147.9 639.656 147.46L640.196 146.28C640.796 146.707 641.389 147.013 641.976 147.2C642.576 147.387 643.222 147.48 643.916 147.48C645.836 147.48 646.796 146.493 646.796 144.52V142.8C646.516 143.413 646.076 143.9 645.476 144.26C644.889 144.607 644.216 144.78 643.456 144.78C642.562 144.78 641.789 144.573 641.136 144.16C640.482 143.747 639.976 143.18 639.616 142.46C639.269 141.727 639.096 140.88 639.096 139.92C639.096 138.96 639.269 138.12 639.616 137.4C639.976 136.667 640.482 136.1 641.136 135.7C641.789 135.3 642.562 135.1 643.456 135.1C644.216 135.1 644.889 135.273 645.476 135.62C646.076 135.967 646.516 136.44 646.796 137.04V135.28H648.376V144.3C648.376 145.793 648.002 146.913 647.256 147.66C646.522 148.407 645.436 148.78 643.996 148.78ZM643.756 143.46C644.689 143.46 645.429 143.14 645.976 142.5C646.522 141.86 646.796 141 646.796 139.92C646.796 138.84 646.522 137.987 645.976 137.36C645.429 136.72 644.689 136.4 643.756 136.4C642.836 136.4 642.102 136.72 641.556 137.36C641.009 137.987 640.736 138.84 640.736 139.92C640.736 141 641.009 141.86 641.556 142.5C642.102 143.14 642.836 143.46 643.756 143.46ZM656.351 132.86V131.04H658.351V132.86H656.351ZM656.551 145V135.28H658.171V145H656.551ZM664.48 145.18C663.72 145.18 663 145.073 662.32 144.86C661.64 144.647 661.08 144.347 660.64 143.96L661.16 142.82C661.64 143.207 662.166 143.493 662.74 143.68C663.326 143.853 663.92 143.94 664.52 143.94C665.28 143.94 665.853 143.8 666.24 143.52C666.626 143.24 666.82 142.86 666.82 142.38C666.82 142.007 666.693 141.713 666.44 141.5C666.186 141.273 665.786 141.1 665.24 140.98L663.42 140.58C661.766 140.22 660.94 139.367 660.94 138.02C660.94 137.14 661.286 136.433 661.98 135.9C662.686 135.367 663.606 135.1 664.74 135.1C665.406 135.1 666.04 135.207 666.64 135.42C667.253 135.62 667.76 135.92 668.16 136.32L667.62 137.46C667.233 137.1 666.78 136.827 666.26 136.64C665.753 136.44 665.246 136.34 664.74 136.34C663.993 136.34 663.426 136.487 663.04 136.78C662.653 137.073 662.46 137.46 662.46 137.94C662.46 138.687 662.953 139.167 663.94 139.38L665.76 139.76C666.613 139.947 667.26 140.247 667.7 140.66C668.14 141.06 668.36 141.607 668.36 142.3C668.36 143.193 668.006 143.9 667.3 144.42C666.593 144.927 665.653 145.18 664.48 145.18ZM679.245 145.18C678.485 145.18 677.765 145.073 677.085 144.86C676.405 144.647 675.845 144.347 675.405 143.96L675.925 142.82C676.405 143.207 676.932 143.493 677.505 143.68C678.092 143.853 678.685 143.94 679.285 143.94C680.045 143.94 680.619 143.8 681.005 143.52C681.392 143.24 681.585 142.86 681.585 142.38C681.585 142.007 681.459 141.713 681.205 141.5C680.952 141.273 680.552 141.1 680.005 140.98L678.185 140.58C676.532 140.22 675.705 139.367 675.705 138.02C675.705 137.14 676.052 136.433 676.745 135.9C677.452 135.367 678.372 135.1 679.505 135.1C680.172 135.1 680.805 135.207 681.405 135.42C682.019 135.62 682.525 135.92 682.925 136.32L682.385 137.46C681.999 137.1 681.545 136.827 681.025 136.64C680.519 136.44 680.012 136.34 679.505 136.34C678.759 136.34 678.192 136.487 677.805 136.78C677.419 137.073 677.225 137.46 677.225 137.94C677.225 138.687 677.719 139.167 678.705 139.38L680.525 139.76C681.379 139.947 682.025 140.247 682.465 140.66C682.905 141.06 683.125 141.607 683.125 142.3C683.125 143.193 682.772 143.9 682.065 144.42C681.359 144.927 680.419 145.18 679.245 145.18ZM685.394 132.86V131.04H687.394V132.86H685.394ZM685.594 145V135.28H687.214V145H685.594ZM690.283 145V135.28H691.863V136.92C692.156 136.333 692.563 135.887 693.083 135.58C693.603 135.26 694.209 135.1 694.903 135.1C696.423 135.1 697.396 135.76 697.823 137.08C698.116 136.467 698.549 135.987 699.123 135.64C699.696 135.28 700.356 135.1 701.103 135.1C703.263 135.1 704.343 136.38 704.343 138.94V145H702.723V139.02C702.723 138.127 702.563 137.473 702.243 137.06C701.936 136.633 701.423 136.42 700.703 136.42C699.916 136.42 699.289 136.7 698.823 137.26C698.356 137.82 698.123 138.567 698.123 139.5V145H696.503V139.02C696.503 138.127 696.343 137.473 696.023 137.06C695.716 136.633 695.203 136.42 694.483 136.42C693.683 136.42 693.049 136.7 692.583 137.26C692.129 137.82 691.903 138.567 691.903 139.5V145H690.283ZM707.372 148.6V135.28H708.952V137.02C709.245 136.42 709.678 135.953 710.252 135.62C710.838 135.273 711.518 135.1 712.292 135.1C713.158 135.1 713.912 135.307 714.552 135.72C715.205 136.12 715.705 136.7 716.052 137.46C716.412 138.207 716.592 139.1 716.592 140.14C716.592 141.167 716.412 142.06 716.052 142.82C715.705 143.567 715.205 144.147 714.552 144.56C713.912 144.973 713.158 145.18 712.292 145.18C711.545 145.18 710.878 145.013 710.292 144.68C709.705 144.347 709.272 143.887 708.992 143.3V148.6H707.372ZM711.952 143.88C712.858 143.88 713.585 143.56 714.132 142.92C714.678 142.267 714.952 141.34 714.952 140.14C714.952 138.927 714.678 138 714.132 137.36C713.585 136.72 712.858 136.4 711.952 136.4C711.045 136.4 710.318 136.72 709.772 137.36C709.225 138 708.952 138.927 708.952 140.14C708.952 141.34 709.225 142.267 709.772 142.92C710.318 143.56 711.045 143.88 711.952 143.88ZM722.012 145.18C721.025 145.18 720.278 144.893 719.772 144.32C719.278 143.733 719.032 142.887 719.032 141.78V130.9H720.652V141.66C720.652 143.087 721.218 143.8 722.352 143.8C722.685 143.8 722.985 143.76 723.252 143.68L723.212 145.04C722.798 145.133 722.398 145.18 722.012 145.18ZM729.232 145.18C727.699 145.18 726.485 144.733 725.592 143.84C724.699 142.933 724.252 141.707 724.252 140.16C724.252 139.16 724.452 138.28 724.852 137.52C725.252 136.747 725.799 136.153 726.492 135.74C727.199 135.313 728.012 135.1 728.932 135.1C730.252 135.1 731.285 135.527 732.032 136.38C732.779 137.22 733.152 138.38 733.152 139.86V140.48H725.832C725.885 141.587 726.205 142.433 726.792 143.02C727.379 143.593 728.192 143.88 729.232 143.88C729.819 143.88 730.379 143.793 730.912 143.62C731.445 143.433 731.952 143.133 732.432 142.72L732.992 143.86C732.552 144.273 731.992 144.6 731.312 144.84C730.632 145.067 729.939 145.18 729.232 145.18ZM728.972 136.3C728.052 136.3 727.325 136.587 726.792 137.16C726.259 137.733 725.945 138.487 725.852 139.42H731.752C731.712 138.433 731.452 137.667 730.972 137.12C730.505 136.573 729.839 136.3 728.972 136.3ZM743.693 145.18C743.027 145.18 742.427 145.053 741.893 144.8C741.373 144.533 740.96 144.173 740.653 143.72C740.347 143.267 740.193 142.76 740.193 142.2C740.193 141.493 740.373 140.933 740.733 140.52C741.107 140.107 741.713 139.813 742.553 139.64C743.407 139.453 744.567 139.36 746.033 139.36H746.673V138.74C746.673 137.913 746.5 137.32 746.153 136.96C745.82 136.587 745.28 136.4 744.533 136.4C743.947 136.4 743.38 136.487 742.833 136.66C742.287 136.82 741.727 137.087 741.153 137.46L740.593 136.28C741.1 135.92 741.713 135.633 742.433 135.42C743.167 135.207 743.867 135.1 744.533 135.1C745.787 135.1 746.713 135.407 747.313 136.02C747.927 136.633 748.233 137.587 748.233 138.88V145H746.713V143.32C746.46 143.893 746.067 144.347 745.533 144.68C745.013 145.013 744.4 145.18 743.693 145.18ZM743.953 143.96C744.753 143.96 745.407 143.687 745.913 143.14C746.42 142.58 746.673 141.873 746.673 141.02V140.42H746.053C744.973 140.42 744.12 140.473 743.493 140.58C742.88 140.673 742.447 140.847 742.193 141.1C741.953 141.34 741.833 141.673 741.833 142.1C741.833 142.647 742.02 143.093 742.393 143.44C742.78 143.787 743.3 143.96 743.953 143.96ZM751.239 145V135.28H752.819V136.94C753.139 136.327 753.592 135.867 754.179 135.56C754.765 135.253 755.425 135.1 756.159 135.1C758.465 135.1 759.619 136.38 759.619 138.94V145H757.999V139.04C757.999 138.133 757.819 137.473 757.459 137.06C757.112 136.633 756.552 136.42 755.779 136.42C754.885 136.42 754.172 136.7 753.639 137.26C753.119 137.807 752.859 138.54 752.859 139.46V145H751.239ZM766.306 145.18C765.439 145.18 764.679 144.973 764.026 144.56C763.386 144.147 762.886 143.567 762.526 142.82C762.179 142.06 762.006 141.167 762.006 140.14C762.006 139.1 762.179 138.207 762.526 137.46C762.886 136.7 763.386 136.12 764.026 135.72C764.679 135.307 765.439 135.1 766.306 135.1C767.066 135.1 767.733 135.267 768.306 135.6C768.893 135.933 769.326 136.393 769.606 136.98V130.9H771.226V145H769.646V143.22C769.366 143.833 768.933 144.313 768.346 144.66C767.759 145.007 767.079 145.18 766.306 145.18ZM766.646 143.88C767.553 143.88 768.279 143.56 768.826 142.92C769.373 142.267 769.646 141.34 769.646 140.14C769.646 138.927 769.373 138 768.826 137.36C768.279 136.72 767.553 136.4 766.646 136.4C765.726 136.4 764.993 136.72 764.446 137.36C763.913 138 763.646 138.927 763.646 140.14C763.646 141.34 763.913 142.267 764.446 142.92C764.993 143.56 765.726 143.88 766.646 143.88ZM783.523 145.18C782.549 145.18 781.709 144.973 781.003 144.56C780.296 144.133 779.749 143.54 779.363 142.78C778.989 142.007 778.803 141.107 778.803 140.08C778.803 138.533 779.223 137.32 780.063 136.44C780.903 135.547 782.056 135.1 783.523 135.1C784.123 135.1 784.716 135.207 785.303 135.42C785.889 135.633 786.376 135.933 786.763 136.32L786.203 137.5C785.816 137.127 785.389 136.853 784.923 136.68C784.469 136.507 784.036 136.42 783.623 136.42C782.609 136.42 781.829 136.74 781.283 137.38C780.736 138.007 780.463 138.913 780.463 140.1C780.463 141.26 780.736 142.18 781.283 142.86C781.829 143.527 782.609 143.86 783.623 143.86C784.036 143.86 784.469 143.773 784.923 143.6C785.389 143.427 785.816 143.147 786.203 142.76L786.763 143.94C786.376 144.327 785.883 144.633 785.283 144.86C784.696 145.073 784.109 145.18 783.523 145.18ZM791.643 145.18C790.976 145.18 790.376 145.053 789.843 144.8C789.323 144.533 788.909 144.173 788.603 143.72C788.296 143.267 788.143 142.76 788.143 142.2C788.143 141.493 788.323 140.933 788.683 140.52C789.056 140.107 789.663 139.813 790.503 139.64C791.356 139.453 792.516 139.36 793.983 139.36H794.623V138.74C794.623 137.913 794.449 137.32 794.103 136.96C793.769 136.587 793.229 136.4 792.483 136.4C791.896 136.4 791.329 136.487 790.783 136.66C790.236 136.82 789.676 137.087 789.103 137.46L788.543 136.28C789.049 135.92 789.663 135.633 790.383 135.42C791.116 135.207 791.816 135.1 792.483 135.1C793.736 135.1 794.663 135.407 795.263 136.02C795.876 136.633 796.183 137.587 796.183 138.88V145H794.663V143.32C794.409 143.893 794.016 144.347 793.483 144.68C792.963 145.013 792.349 145.18 791.643 145.18ZM791.903 143.96C792.703 143.96 793.356 143.687 793.863 143.14C794.369 142.58 794.623 141.873 794.623 141.02V140.42H794.003C792.923 140.42 792.069 140.473 791.443 140.58C790.829 140.673 790.396 140.847 790.143 141.1C789.903 141.34 789.783 141.673 789.783 142.1C789.783 142.647 789.969 143.093 790.343 143.44C790.729 143.787 791.249 143.96 791.903 143.96ZM799.188 145V135.28H800.768V136.94C801.088 136.327 801.541 135.867 802.128 135.56C802.715 135.253 803.375 135.1 804.108 135.1C806.415 135.1 807.568 136.38 807.568 138.94V145H805.948V139.04C805.948 138.133 805.768 137.473 805.408 137.06C805.061 136.633 804.501 136.42 803.728 136.42C802.835 136.42 802.121 136.7 801.588 137.26C801.068 137.807 800.808 138.54 800.808 139.46V145H799.188ZM561.94 172.18C561.167 172.18 560.487 172.007 559.9 171.66C559.327 171.313 558.893 170.84 558.6 170.24V172H557.02V157.9H558.64V163.96C558.92 163.387 559.353 162.933 559.94 162.6C560.527 162.267 561.193 162.1 561.94 162.1C562.807 162.1 563.56 162.307 564.2 162.72C564.853 163.12 565.353 163.7 565.7 164.46C566.06 165.207 566.24 166.1 566.24 167.14C566.24 168.167 566.06 169.06 565.7 169.82C565.353 170.567 564.853 171.147 564.2 171.56C563.56 171.973 562.807 172.18 561.94 172.18ZM561.6 170.88C562.507 170.88 563.233 170.56 563.78 169.92C564.327 169.267 564.6 168.34 564.6 167.14C564.6 165.927 564.327 165 563.78 164.36C563.233 163.72 562.507 163.4 561.6 163.4C560.693 163.4 559.967 163.72 559.42 164.36C558.873 165 558.6 165.927 558.6 167.14C558.6 168.34 558.873 169.267 559.42 169.92C559.967 170.56 560.693 170.88 561.6 170.88ZM573.06 172.18C571.527 172.18 570.313 171.733 569.42 170.84C568.527 169.933 568.08 168.707 568.08 167.16C568.08 166.16 568.28 165.28 568.68 164.52C569.08 163.747 569.627 163.153 570.32 162.74C571.027 162.313 571.84 162.1 572.76 162.1C574.08 162.1 575.113 162.527 575.86 163.38C576.607 164.22 576.98 165.38 576.98 166.86V167.48H569.66C569.713 168.587 570.033 169.433 570.62 170.02C571.207 170.593 572.02 170.88 573.06 170.88C573.647 170.88 574.207 170.793 574.74 170.62C575.273 170.433 575.78 170.133 576.26 169.72L576.82 170.86C576.38 171.273 575.82 171.6 575.14 171.84C574.46 172.067 573.767 172.18 573.06 172.18ZM572.8 163.3C571.88 163.3 571.153 163.587 570.62 164.16C570.087 164.733 569.773 165.487 569.68 166.42H575.58C575.54 165.433 575.28 164.667 574.8 164.12C574.333 163.573 573.667 163.3 572.8 163.3ZM588.161 172.18C587.295 172.18 586.535 171.973 585.881 171.56C585.241 171.147 584.741 170.567 584.381 169.82C584.035 169.06 583.861 168.167 583.861 167.14C583.861 166.1 584.035 165.207 584.381 164.46C584.741 163.7 585.241 163.12 585.881 162.72C586.535 162.307 587.295 162.1 588.161 162.1C588.921 162.1 589.588 162.267 590.161 162.6C590.748 162.933 591.181 163.393 591.461 163.98V157.9H593.081V172H591.501V170.22C591.221 170.833 590.788 171.313 590.201 171.66C589.615 172.007 588.935 172.18 588.161 172.18ZM588.501 170.88C589.408 170.88 590.135 170.56 590.681 169.92C591.228 169.267 591.501 168.34 591.501 167.14C591.501 165.927 591.228 165 590.681 164.36C590.135 163.72 589.408 163.4 588.501 163.4C587.581 163.4 586.848 163.72 586.301 164.36C585.768 165 585.501 165.927 585.501 167.14C585.501 168.34 585.768 169.267 586.301 169.92C586.848 170.56 587.581 170.88 588.501 170.88ZM600.162 172.18C599.215 172.18 598.395 171.973 597.702 171.56C597.008 171.147 596.468 170.567 596.082 169.82C595.708 169.06 595.522 168.167 595.522 167.14C595.522 166.113 595.708 165.227 596.082 164.48C596.468 163.72 597.008 163.133 597.702 162.72C598.395 162.307 599.215 162.1 600.162 162.1C601.095 162.1 601.908 162.307 602.602 162.72C603.308 163.133 603.848 163.72 604.222 164.48C604.608 165.227 604.802 166.113 604.802 167.14C604.802 168.167 604.608 169.06 604.222 169.82C603.848 170.567 603.308 171.147 602.602 171.56C601.908 171.973 601.095 172.18 600.162 172.18ZM600.162 170.88C601.068 170.88 601.795 170.56 602.342 169.92C602.888 169.267 603.162 168.34 603.162 167.14C603.162 165.927 602.888 165 602.342 164.36C601.795 163.72 601.068 163.4 600.162 163.4C599.242 163.4 598.508 163.72 597.962 164.36C597.428 165 597.162 165.927 597.162 167.14C597.162 168.34 597.428 169.267 597.962 169.92C598.508 170.56 599.242 170.88 600.162 170.88ZM607.235 172V162.28H608.815V163.94C609.135 163.327 609.588 162.867 610.175 162.56C610.762 162.253 611.422 162.1 612.155 162.1C614.462 162.1 615.615 163.38 615.615 165.94V172H613.995V166.04C613.995 165.133 613.815 164.473 613.455 164.06C613.108 163.633 612.548 163.42 611.775 163.42C610.882 163.42 610.168 163.7 609.635 164.26C609.115 164.807 608.855 165.54 608.855 166.46V172H607.235ZM622.982 172.18C621.449 172.18 620.235 171.733 619.342 170.84C618.449 169.933 618.002 168.707 618.002 167.16C618.002 166.16 618.202 165.28 618.602 164.52C619.002 163.747 619.549 163.153 620.242 162.74C620.949 162.313 621.762 162.1 622.682 162.1C624.002 162.1 625.035 162.527 625.782 163.38C626.529 164.22 626.902 165.38 626.902 166.86V167.48H619.582C619.635 168.587 619.955 169.433 620.542 170.02C621.129 170.593 621.942 170.88 622.982 170.88C623.569 170.88 624.129 170.793 624.662 170.62C625.195 170.433 625.702 170.133 626.182 169.72L626.742 170.86C626.302 171.273 625.742 171.6 625.062 171.84C624.382 172.067 623.689 172.18 622.982 172.18ZM622.722 163.3C621.802 163.3 621.075 163.587 620.542 164.16C620.009 164.733 619.695 165.487 619.602 166.42H625.502C625.462 165.433 625.202 164.667 624.722 164.12C624.255 163.573 623.589 163.3 622.722 163.3ZM637.443 172.18C636.777 172.18 636.177 172.053 635.643 171.8C635.123 171.533 634.71 171.173 634.403 170.72C634.097 170.267 633.943 169.76 633.943 169.2C633.943 168.493 634.123 167.933 634.483 167.52C634.857 167.107 635.463 166.813 636.303 166.64C637.157 166.453 638.317 166.36 639.783 166.36H640.423V165.74C640.423 164.913 640.25 164.32 639.903 163.96C639.57 163.587 639.03 163.4 638.283 163.4C637.697 163.4 637.13 163.487 636.583 163.66C636.037 163.82 635.477 164.087 634.903 164.46L634.343 163.28C634.85 162.92 635.463 162.633 636.183 162.42C636.917 162.207 637.617 162.1 638.283 162.1C639.537 162.1 640.463 162.407 641.063 163.02C641.677 163.633 641.983 164.587 641.983 165.88V172H640.463V170.32C640.21 170.893 639.817 171.347 639.283 171.68C638.763 172.013 638.15 172.18 637.443 172.18ZM637.703 170.96C638.503 170.96 639.157 170.687 639.663 170.14C640.17 169.58 640.423 168.873 640.423 168.02V167.42H639.803C638.723 167.42 637.87 167.473 637.243 167.58C636.63 167.673 636.197 167.847 635.943 168.1C635.703 168.34 635.583 168.673 635.583 169.1C635.583 169.647 635.77 170.093 636.143 170.44C636.53 170.787 637.05 170.96 637.703 170.96ZM644.989 172V162.28H646.569V163.94C646.889 163.327 647.342 162.867 647.929 162.56C648.515 162.253 649.175 162.1 649.909 162.1C652.215 162.1 653.369 163.38 653.369 165.94V172H651.749V166.04C651.749 165.133 651.569 164.473 651.209 164.06C650.862 163.633 650.302 163.42 649.529 163.42C648.635 163.42 647.922 163.7 647.389 164.26C646.869 164.807 646.609 165.54 646.609 166.46V172H644.989ZM657.378 175.6L659.038 171.84L654.938 162.28H656.698L659.918 170.16L663.158 162.28H664.858L659.078 175.6H657.378ZM670.627 172.18C669.48 172.18 668.62 171.88 668.047 171.28C667.474 170.667 667.187 169.787 667.187 168.64V163.54H665.287V162.28H667.187V159.3H668.807V162.28H671.887V163.54H668.807V168.48C668.807 169.24 668.967 169.82 669.287 170.22C669.607 170.607 670.127 170.8 670.847 170.8C671.06 170.8 671.274 170.773 671.487 170.72C671.7 170.667 671.894 170.613 672.067 170.56L672.347 171.8C672.174 171.893 671.92 171.98 671.587 172.06C671.254 172.14 670.934 172.18 670.627 172.18ZM673.519 159.86V158.04H675.519V159.86H673.519ZM673.719 172V162.28H675.339V172H673.719ZM678.408 172V162.28H679.988V163.92C680.281 163.333 680.688 162.887 681.208 162.58C681.728 162.26 682.334 162.1 683.028 162.1C684.548 162.1 685.521 162.76 685.948 164.08C686.241 163.467 686.674 162.987 687.248 162.64C687.821 162.28 688.481 162.1 689.228 162.1C691.388 162.1 692.468 163.38 692.468 165.94V172H690.848V166.02C690.848 165.127 690.688 164.473 690.368 164.06C690.061 163.633 689.548 163.42 688.828 163.42C688.041 163.42 687.414 163.7 686.948 164.26C686.481 164.82 686.248 165.567 686.248 166.5V172H684.628V166.02C684.628 165.127 684.468 164.473 684.148 164.06C683.841 163.633 683.328 163.42 682.608 163.42C681.808 163.42 681.174 163.7 680.708 164.26C680.254 164.82 680.028 165.567 680.028 166.5V172H678.408ZM699.877 172.18C698.343 172.18 697.13 171.733 696.237 170.84C695.343 169.933 694.897 168.707 694.897 167.16C694.897 166.16 695.097 165.28 695.497 164.52C695.897 163.747 696.443 163.153 697.137 162.74C697.843 162.313 698.657 162.1 699.577 162.1C700.897 162.1 701.93 162.527 702.677 163.38C703.423 164.22 703.797 165.38 703.797 166.86V167.48H696.477C696.53 168.587 696.85 169.433 697.437 170.02C698.023 170.593 698.837 170.88 699.877 170.88C700.463 170.88 701.023 170.793 701.557 170.62C702.09 170.433 702.597 170.133 703.077 169.72L703.637 170.86C703.197 171.273 702.637 171.6 701.957 171.84C701.277 172.067 700.583 172.18 699.877 172.18ZM699.617 163.3C698.697 163.3 697.97 163.587 697.437 164.16C696.903 164.733 696.59 165.487 696.497 166.42H702.397C702.357 165.433 702.097 164.667 701.617 164.12C701.15 163.573 700.483 163.3 699.617 163.3Z" fill="white"/>
<path d="M525.195 152.734H478.266V105.806H506.466L510.732 101.539H478.266C477.135 101.539 476.05 101.989 475.25 102.789C474.449 103.589 474 104.674 474 105.806V152.734C474 153.865 474.449 154.95 475.25 155.751C476.05 156.551 477.135 157 478.266 157H525.195C526.326 157 527.411 156.551 528.211 155.751C529.012 154.95 529.461 153.865 529.461 152.734V120.737L525.195 125.003V152.734Z" fill="white"/>
<path d="M536.991 101.198L529.802 94.0092C529.483 93.6893 529.104 93.4355 528.687 93.2623C528.27 93.0891 527.822 93 527.37 93C526.919 93 526.471 93.0891 526.054 93.2623C525.637 93.4355 525.258 93.6893 524.939 94.0092L495.694 123.425L493.326 133.685C493.225 134.182 493.236 134.696 493.357 135.189C493.478 135.681 493.707 136.141 494.027 136.535C494.348 136.929 494.751 137.246 495.209 137.465C495.667 137.685 496.167 137.799 496.675 137.802C496.937 137.831 497.202 137.831 497.464 137.802L507.81 135.519L536.991 106.061C537.311 105.742 537.564 105.363 537.738 104.946C537.911 104.529 538 104.081 538 103.63C538 103.178 537.911 102.73 537.738 102.313C537.564 101.896 537.311 101.517 536.991 101.198ZM505.591 131.573L497.784 133.301L499.597 125.558L521.611 103.395L527.626 109.41L505.591 131.573ZM530.037 107L524.021 100.984L527.328 97.6142L533.386 103.672L530.037 107Z" fill="white"/>
<path d="M981.34 105V76.8H1000.38V81.64H987.54V88.52H999.5V93.36H987.54V105H981.34ZM1010.33 105.44C1007.82 105.44 1005.97 104.747 1004.77 103.36C1003.59 101.973 1003.01 99.8933 1003.01 97.12V85.36H1009.05V97.28C1009.05 99.6 1010.05 100.76 1012.05 100.76C1013.19 100.76 1014.13 100.36 1014.85 99.56C1015.59 98.7333 1015.97 97.6533 1015.97 96.32V85.36H1022.01V105H1016.13V102.32C1014.82 104.4 1012.89 105.44 1010.33 105.44ZM1034 105.44C1031.47 105.44 1029.61 104.787 1028.44 103.48C1027.27 102.147 1026.68 100.173 1026.68 97.56V76.8H1032.72V97.32C1032.72 99.4533 1033.67 100.52 1035.56 100.52C1035.85 100.52 1036.13 100.507 1036.4 100.48C1036.69 100.453 1036.97 100.4 1037.24 100.32L1037.16 105C1036.15 105.293 1035.09 105.44 1034 105.44ZM1047.32 105.44C1044.79 105.44 1042.93 104.787 1041.76 103.48C1040.59 102.147 1040 100.173 1040 97.56V76.8H1046.04V97.32C1046.04 99.4533 1046.99 100.52 1048.88 100.52C1049.17 100.52 1049.45 100.507 1049.72 100.48C1050.01 100.453 1050.29 100.4 1050.56 100.32L1050.48 105C1049.47 105.293 1048.41 105.44 1047.32 105.44ZM1054.29 112.2L1058.05 103.92L1049.97 85.36H1056.33L1061.25 97.84L1066.33 85.36H1072.33L1060.45 112.2H1054.29ZM1091.03 105L1082.47 85.36H1088.83L1093.75 97.84L1098.83 85.36H1104.79L1096.11 105H1091.03ZM1116.33 105.44C1114.01 105.44 1112.01 105.027 1110.33 104.2C1108.68 103.347 1107.4 102.16 1106.49 100.64C1105.61 99.0933 1105.17 97.28 1105.17 95.2C1105.17 93.1733 1105.6 91.4 1106.45 89.88C1107.33 88.3333 1108.52 87.1333 1110.01 86.28C1111.53 85.4 1113.28 84.96 1115.25 84.96C1118.11 84.96 1120.37 85.8667 1122.05 87.68C1123.73 89.4667 1124.57 91.8933 1124.57 94.96V96.48H1110.93C1111.15 98.0267 1111.71 99.16 1112.61 99.88C1113.55 100.573 1114.83 100.92 1116.45 100.92C1117.52 100.92 1118.6 100.76 1119.69 100.44C1120.79 100.12 1121.77 99.6267 1122.65 98.96L1124.25 103C1123.27 103.747 1122.05 104.347 1120.61 104.8C1119.2 105.227 1117.77 105.44 1116.33 105.44ZM1115.49 88.96C1114.21 88.96 1113.17 89.3467 1112.37 90.12C1111.6 90.8933 1111.12 91.9733 1110.93 93.36H1119.57C1119.41 90.4267 1118.05 88.96 1115.49 88.96ZM1137.61 105.44C1132.09 105.44 1129.33 102.76 1129.33 97.4V89.88H1125.61V85.36H1129.33V79.6H1135.37V85.36H1141.17V89.88H1135.37V97.16C1135.37 98.28 1135.62 99.12 1136.13 99.68C1136.66 100.24 1137.5 100.52 1138.65 100.52C1139 100.52 1139.36 100.48 1139.73 100.4C1140.13 100.32 1140.56 100.213 1141.01 100.08L1141.89 104.48C1141.33 104.773 1140.66 105 1139.89 105.16C1139.12 105.347 1138.36 105.44 1137.61 105.44ZM1152.34 105.44C1146.82 105.44 1144.06 102.76 1144.06 97.4V89.88H1140.33V85.36H1144.06V79.6H1150.1V85.36H1155.9V89.88H1150.1V97.16C1150.1 98.28 1150.35 99.12 1150.86 99.68C1151.39 100.24 1152.23 100.52 1153.38 100.52C1153.72 100.52 1154.08 100.48 1154.46 100.4C1154.86 100.32 1155.28 100.213 1155.74 100.08L1156.62 104.48C1156.06 104.773 1155.39 105 1154.62 105.16C1153.84 105.347 1153.08 105.44 1152.34 105.44ZM1168.87 105.44C1166.55 105.44 1164.55 105.027 1162.87 104.2C1161.22 103.347 1159.94 102.16 1159.03 100.64C1158.15 99.0933 1157.71 97.28 1157.71 95.2C1157.71 93.1733 1158.14 91.4 1158.99 89.88C1159.87 88.3333 1161.06 87.1333 1162.55 86.28C1164.07 85.4 1165.82 84.96 1167.79 84.96C1170.64 84.96 1172.91 85.8667 1174.59 87.68C1176.27 89.4667 1177.11 91.8933 1177.11 94.96V96.48H1163.47C1163.68 98.0267 1164.24 99.16 1165.15 99.88C1166.08 100.573 1167.36 100.92 1168.99 100.92C1170.06 100.92 1171.14 100.76 1172.23 100.44C1173.32 100.12 1174.31 99.6267 1175.19 98.96L1176.79 103C1175.8 103.747 1174.59 104.347 1173.15 104.8C1171.74 105.227 1170.31 105.44 1168.87 105.44ZM1168.03 88.96C1166.75 88.96 1165.71 89.3467 1164.91 90.12C1164.14 90.8933 1163.66 91.9733 1163.47 93.36H1172.11C1171.95 90.4267 1170.59 88.96 1168.03 88.96ZM1188.26 105.44C1186.56 105.44 1185.05 105.027 1183.74 104.2C1182.46 103.347 1181.46 102.16 1180.74 100.64C1180.02 99.0933 1179.66 97.2667 1179.66 95.16C1179.66 93.0533 1180.02 91.24 1180.74 89.72C1181.46 88.2 1182.46 87.0267 1183.74 86.2C1185.05 85.3733 1186.56 84.96 1188.26 84.96C1189.57 84.96 1190.77 85.24 1191.86 85.8C1192.96 86.36 1193.78 87.1067 1194.34 88.04V76.8H1200.38V105H1194.46V102.04C1193.93 103.08 1193.1 103.907 1191.98 104.52C1190.89 105.133 1189.65 105.44 1188.26 105.44ZM1190.06 100.92C1191.34 100.92 1192.38 100.453 1193.18 99.52C1194.01 98.5867 1194.42 97.1333 1194.42 95.16C1194.42 93.2133 1194.01 91.7867 1193.18 90.88C1192.38 89.9467 1191.34 89.48 1190.06 89.48C1188.78 89.48 1187.74 89.9467 1186.94 90.88C1186.14 91.7867 1185.74 93.2133 1185.74 95.16C1185.74 97.1333 1186.14 98.5867 1186.94 99.52C1187.74 100.453 1188.78 100.92 1190.06 100.92Z" fill="white"/>
<path d="M983.54 145L978.6 130.9H980.32L984.3 142.6L988.38 130.9H989.7L993.74 142.7L997.8 130.9H999.44L994.5 145H993.04L989.02 133.4L984.96 145H983.54ZM1004.74 145.18C1003.21 145.18 1001.99 144.733 1001.1 143.84C1000.21 142.933 999.76 141.707 999.76 140.16C999.76 139.16 999.96 138.28 1000.36 137.52C1000.76 136.747 1001.31 136.153 1002 135.74C1002.71 135.313 1003.52 135.1 1004.44 135.1C1005.76 135.1 1006.79 135.527 1007.54 136.38C1008.29 137.22 1008.66 138.38 1008.66 139.86V140.48H1001.34C1001.39 141.587 1001.71 142.433 1002.3 143.02C1002.89 143.593 1003.7 143.88 1004.74 143.88C1005.33 143.88 1005.89 143.793 1006.42 143.62C1006.95 143.433 1007.46 143.133 1007.94 142.72L1008.5 143.86C1008.06 144.273 1007.5 144.6 1006.82 144.84C1006.14 145.067 1005.45 145.18 1004.74 145.18ZM1004.48 136.3C1003.56 136.3 1002.83 136.587 1002.3 137.16C1001.77 137.733 1001.45 138.487 1001.36 139.42H1007.26C1007.22 138.433 1006.96 137.667 1006.48 137.12C1006.01 136.573 1005.35 136.3 1004.48 136.3ZM1019.84 145.18C1018.97 145.18 1018.21 144.973 1017.56 144.56C1016.92 144.147 1016.42 143.567 1016.06 142.82C1015.71 142.06 1015.54 141.167 1015.54 140.14C1015.54 139.1 1015.71 138.207 1016.06 137.46C1016.42 136.7 1016.92 136.12 1017.56 135.72C1018.21 135.307 1018.97 135.1 1019.84 135.1C1020.6 135.1 1021.27 135.267 1021.84 135.6C1022.43 135.933 1022.86 136.393 1023.14 136.98V130.9H1024.76V145H1023.18V143.22C1022.9 143.833 1022.47 144.313 1021.88 144.66C1021.29 145.007 1020.61 145.18 1019.84 145.18ZM1020.18 143.88C1021.09 143.88 1021.81 143.56 1022.36 142.92C1022.91 142.267 1023.18 141.34 1023.18 140.14C1023.18 138.927 1022.91 138 1022.36 137.36C1021.81 136.72 1021.09 136.4 1020.18 136.4C1019.26 136.4 1018.53 136.72 1017.98 137.36C1017.45 138 1017.18 138.927 1017.18 140.14C1017.18 141.34 1017.45 142.267 1017.98 142.92C1018.53 143.56 1019.26 143.88 1020.18 143.88ZM1032.18 145.18C1030.65 145.18 1029.43 144.733 1028.54 143.84C1027.65 142.933 1027.2 141.707 1027.2 140.16C1027.2 139.16 1027.4 138.28 1027.8 137.52C1028.2 136.747 1028.75 136.153 1029.44 135.74C1030.15 135.313 1030.96 135.1 1031.88 135.1C1033.2 135.1 1034.23 135.527 1034.98 136.38C1035.73 137.22 1036.1 138.38 1036.1 139.86V140.48H1028.78C1028.83 141.587 1029.15 142.433 1029.74 143.02C1030.33 143.593 1031.14 143.88 1032.18 143.88C1032.77 143.88 1033.33 143.793 1033.86 143.62C1034.39 143.433 1034.9 143.133 1035.38 142.72L1035.94 143.86C1035.5 144.273 1034.94 144.6 1034.26 144.84C1033.58 145.067 1032.89 145.18 1032.18 145.18ZM1031.92 136.3C1031 136.3 1030.27 136.587 1029.74 137.16C1029.21 137.733 1028.89 138.487 1028.8 139.42H1034.7C1034.66 138.433 1034.4 137.667 1033.92 137.12C1033.45 136.573 1032.79 136.3 1031.92 136.3ZM1038.49 145V135.28H1040.07V136.92C1040.36 136.333 1040.77 135.887 1041.29 135.58C1041.81 135.26 1042.41 135.1 1043.11 135.1C1044.63 135.1 1045.6 135.76 1046.03 137.08C1046.32 136.467 1046.75 135.987 1047.33 135.64C1047.9 135.28 1048.56 135.1 1049.31 135.1C1051.47 135.1 1052.55 136.38 1052.55 138.94V145H1050.93V139.02C1050.93 138.127 1050.77 137.473 1050.45 137.06C1050.14 136.633 1049.63 136.42 1048.91 136.42C1048.12 136.42 1047.49 136.7 1047.03 137.26C1046.56 137.82 1046.33 138.567 1046.33 139.5V145H1044.71V139.02C1044.71 138.127 1044.55 137.473 1044.23 137.06C1043.92 136.633 1043.41 136.42 1042.69 136.42C1041.89 136.42 1041.25 136.7 1040.79 137.26C1040.33 137.82 1040.11 138.567 1040.11 139.5V145H1038.49ZM1058.63 145.18C1057.97 145.18 1057.37 145.053 1056.83 144.8C1056.31 144.533 1055.9 144.173 1055.59 143.72C1055.29 143.267 1055.13 142.76 1055.13 142.2C1055.13 141.493 1055.31 140.933 1055.67 140.52C1056.05 140.107 1056.65 139.813 1057.49 139.64C1058.35 139.453 1059.51 139.36 1060.97 139.36H1061.61V138.74C1061.61 137.913 1061.44 137.32 1061.09 136.96C1060.76 136.587 1060.22 136.4 1059.47 136.4C1058.89 136.4 1058.32 136.487 1057.77 136.66C1057.23 136.82 1056.67 137.087 1056.09 137.46L1055.53 136.28C1056.04 135.92 1056.65 135.633 1057.37 135.42C1058.11 135.207 1058.81 135.1 1059.47 135.1C1060.73 135.1 1061.65 135.407 1062.25 136.02C1062.87 136.633 1063.17 137.587 1063.17 138.88V145H1061.65V143.32C1061.4 143.893 1061.01 144.347 1060.47 144.68C1059.95 145.013 1059.34 145.18 1058.63 145.18ZM1058.89 143.96C1059.69 143.96 1060.35 143.687 1060.85 143.14C1061.36 142.58 1061.61 141.873 1061.61 141.02V140.42H1060.99C1059.91 140.42 1059.06 140.473 1058.43 140.58C1057.82 140.673 1057.39 140.847 1057.13 141.1C1056.89 141.34 1056.77 141.673 1056.77 142.1C1056.77 142.647 1056.96 143.093 1057.33 143.44C1057.72 143.787 1058.24 143.96 1058.89 143.96ZM1066.18 145V135.28H1067.76V136.94C1068.08 136.327 1068.53 135.867 1069.12 135.56C1069.71 135.253 1070.37 135.1 1071.1 135.1C1073.41 135.1 1074.56 136.38 1074.56 138.94V145H1072.94V139.04C1072.94 138.133 1072.76 137.473 1072.4 137.06C1072.05 136.633 1071.49 136.42 1070.72 136.42C1069.83 136.42 1069.11 136.7 1068.58 137.26C1068.06 137.807 1067.8 138.54 1067.8 139.46V145H1066.18ZM1081.25 145.18C1080.38 145.18 1079.62 144.973 1078.97 144.56C1078.33 144.147 1077.83 143.567 1077.47 142.82C1077.12 142.06 1076.95 141.167 1076.95 140.14C1076.95 139.1 1077.12 138.207 1077.47 137.46C1077.83 136.7 1078.33 136.12 1078.97 135.72C1079.62 135.307 1080.38 135.1 1081.25 135.1C1082.01 135.1 1082.67 135.267 1083.25 135.6C1083.83 135.933 1084.27 136.393 1084.55 136.98V130.9H1086.17V145H1084.59V143.22C1084.31 143.833 1083.87 144.313 1083.29 144.66C1082.7 145.007 1082.02 145.18 1081.25 145.18ZM1081.59 143.88C1082.49 143.88 1083.22 143.56 1083.77 142.92C1084.31 142.267 1084.59 141.34 1084.59 140.14C1084.59 138.927 1084.31 138 1083.77 137.36C1083.22 136.72 1082.49 136.4 1081.59 136.4C1080.67 136.4 1079.93 136.72 1079.39 137.36C1078.85 138 1078.59 138.927 1078.59 140.14C1078.59 141.34 1078.85 142.267 1079.39 142.92C1079.93 143.56 1080.67 143.88 1081.59 143.88ZM1098.24 145.18C1097.1 145.18 1096.24 144.88 1095.66 144.28C1095.09 143.667 1094.8 142.787 1094.8 141.64V136.54H1092.9V135.28H1094.8V132.3H1096.42V135.28H1099.5V136.54H1096.42V141.48C1096.42 142.24 1096.58 142.82 1096.9 143.22C1097.22 143.607 1097.74 143.8 1098.46 143.8C1098.68 143.8 1098.89 143.773 1099.1 143.72C1099.32 143.667 1099.51 143.613 1099.68 143.56L1099.96 144.8C1099.79 144.893 1099.54 144.98 1099.2 145.06C1098.87 145.14 1098.55 145.18 1098.24 145.18ZM1101.34 145V130.9H1102.96V136.88C1103.28 136.293 1103.72 135.853 1104.3 135.56C1104.88 135.253 1105.54 135.1 1106.26 135.1C1108.56 135.1 1109.72 136.38 1109.72 138.94V145H1108.1V139.04C1108.1 138.133 1107.92 137.473 1107.56 137.06C1107.21 136.633 1106.65 136.42 1105.88 136.42C1104.98 136.42 1104.27 136.7 1103.74 137.26C1103.22 137.807 1102.96 138.54 1102.96 139.46V145H1101.34ZM1117.08 145.18C1115.55 145.18 1114.34 144.733 1113.44 143.84C1112.55 142.933 1112.1 141.707 1112.1 140.16C1112.1 139.16 1112.3 138.28 1112.7 137.52C1113.1 136.747 1113.65 136.153 1114.34 135.74C1115.05 135.313 1115.86 135.1 1116.78 135.1C1118.1 135.1 1119.14 135.527 1119.88 136.38C1120.63 137.22 1121 138.38 1121 139.86V140.48H1113.68C1113.74 141.587 1114.06 142.433 1114.64 143.02C1115.23 143.593 1116.04 143.88 1117.08 143.88C1117.67 143.88 1118.23 143.793 1118.76 143.62C1119.3 143.433 1119.8 143.133 1120.28 142.72L1120.84 143.86C1120.4 144.273 1119.84 144.6 1119.16 144.84C1118.48 145.067 1117.79 145.18 1117.08 145.18ZM1116.82 136.3C1115.9 136.3 1115.18 136.587 1114.64 137.16C1114.11 137.733 1113.8 138.487 1113.7 139.42H1119.6C1119.56 138.433 1119.3 137.667 1118.82 137.12C1118.36 136.573 1117.69 136.3 1116.82 136.3ZM1128.48 145V130.9H1130.1V136.88C1130.42 136.293 1130.87 135.853 1131.44 135.56C1132.03 135.253 1132.68 135.1 1133.4 135.1C1135.71 135.1 1136.86 136.38 1136.86 138.94V145H1135.24V139.04C1135.24 138.133 1135.06 137.473 1134.7 137.06C1134.36 136.633 1133.8 136.42 1133.02 136.42C1132.13 136.42 1131.42 136.7 1130.88 137.26C1130.36 137.807 1130.1 138.54 1130.1 139.46V145H1128.48ZM1139.65 132.86V131.04H1141.65V132.86H1139.65ZM1139.85 145V135.28H1141.47V145H1139.85ZM1148.8 148.78C1147.96 148.78 1147.17 148.667 1146.42 148.44C1145.69 148.227 1145.03 147.9 1144.46 147.46L1145 146.28C1145.6 146.707 1146.19 147.013 1146.78 147.2C1147.38 147.387 1148.03 147.48 1148.72 147.48C1150.64 147.48 1151.6 146.493 1151.6 144.52V142.8C1151.32 143.413 1150.88 143.9 1150.28 144.26C1149.69 144.607 1149.02 144.78 1148.26 144.78C1147.37 144.78 1146.59 144.573 1145.94 144.16C1145.29 143.747 1144.78 143.18 1144.42 142.46C1144.07 141.727 1143.9 140.88 1143.9 139.92C1143.9 138.96 1144.07 138.12 1144.42 137.4C1144.78 136.667 1145.29 136.1 1145.94 135.7C1146.59 135.3 1147.37 135.1 1148.26 135.1C1149.02 135.1 1149.69 135.273 1150.28 135.62C1150.88 135.967 1151.32 136.44 1151.6 137.04V135.28H1153.18V144.3C1153.18 145.793 1152.81 146.913 1152.06 147.66C1151.33 148.407 1150.24 148.78 1148.8 148.78ZM1148.56 143.46C1149.49 143.46 1150.23 143.14 1150.78 142.5C1151.33 141.86 1151.6 141 1151.6 139.92C1151.6 138.84 1151.33 137.987 1150.78 137.36C1150.23 136.72 1149.49 136.4 1148.56 136.4C1147.64 136.4 1146.91 136.72 1146.36 137.36C1145.81 137.987 1145.54 138.84 1145.54 139.92C1145.54 141 1145.81 141.86 1146.36 142.5C1146.91 143.14 1147.64 143.46 1148.56 143.46ZM1156.22 145V130.9H1157.84V136.88C1158.16 136.293 1158.61 135.853 1159.18 135.56C1159.77 135.253 1160.42 135.1 1161.14 135.1C1163.45 135.1 1164.6 136.38 1164.6 138.94V145H1162.98V139.04C1162.98 138.133 1162.8 137.473 1162.44 137.06C1162.09 136.633 1161.53 136.42 1160.76 136.42C1159.87 136.42 1159.15 136.7 1158.62 137.26C1158.1 137.807 1157.84 138.54 1157.84 139.46V145H1156.22ZM1171.97 145.18C1170.43 145.18 1169.22 144.733 1168.33 143.84C1167.43 142.933 1166.99 141.707 1166.99 140.16C1166.99 139.16 1167.19 138.28 1167.59 137.52C1167.99 136.747 1168.53 136.153 1169.23 135.74C1169.93 135.313 1170.75 135.1 1171.67 135.1C1172.99 135.1 1174.02 135.527 1174.77 136.38C1175.51 137.22 1175.89 138.38 1175.89 139.86V140.48H1168.57C1168.62 141.587 1168.94 142.433 1169.53 143.02C1170.11 143.593 1170.93 143.88 1171.97 143.88C1172.55 143.88 1173.11 143.793 1173.65 143.62C1174.18 143.433 1174.69 143.133 1175.17 142.72L1175.73 143.86C1175.29 144.273 1174.73 144.6 1174.05 144.84C1173.37 145.067 1172.67 145.18 1171.97 145.18ZM1171.71 136.3C1170.79 136.3 1170.06 136.587 1169.53 137.16C1168.99 137.733 1168.68 138.487 1168.59 139.42H1174.49C1174.45 138.433 1174.19 137.667 1173.71 137.12C1173.24 136.573 1172.57 136.3 1171.71 136.3ZM1181.51 145.18C1180.75 145.18 1180.03 145.073 1179.35 144.86C1178.67 144.647 1178.11 144.347 1177.67 143.96L1178.19 142.82C1178.67 143.207 1179.2 143.493 1179.77 143.68C1180.36 143.853 1180.95 143.94 1181.55 143.94C1182.31 143.94 1182.88 143.8 1183.27 143.52C1183.66 143.24 1183.85 142.86 1183.85 142.38C1183.85 142.007 1183.72 141.713 1183.47 141.5C1183.22 141.273 1182.82 141.1 1182.27 140.98L1180.45 140.58C1178.8 140.22 1177.97 139.367 1177.97 138.02C1177.97 137.14 1178.32 136.433 1179.01 135.9C1179.72 135.367 1180.64 135.1 1181.77 135.1C1182.44 135.1 1183.07 135.207 1183.67 135.42C1184.28 135.62 1184.79 135.92 1185.19 136.32L1184.65 137.46C1184.26 137.1 1183.81 136.827 1183.29 136.64C1182.78 136.44 1182.28 136.34 1181.77 136.34C1181.02 136.34 1180.46 136.487 1180.07 136.78C1179.68 137.073 1179.49 137.46 1179.49 137.94C1179.49 138.687 1179.98 139.167 1180.97 139.38L1182.79 139.76C1183.64 139.947 1184.29 140.247 1184.73 140.66C1185.17 141.06 1185.39 141.607 1185.39 142.3C1185.39 143.193 1185.04 143.9 1184.33 144.42C1183.62 144.927 1182.68 145.18 1181.51 145.18ZM1191.66 145.18C1190.52 145.18 1189.66 144.88 1189.08 144.28C1188.51 143.667 1188.22 142.787 1188.22 141.64V136.54H1186.32V135.28H1188.22V132.3H1189.84V135.28H1192.92V136.54H1189.84V141.48C1189.84 142.24 1190 142.82 1190.32 143.22C1190.64 143.607 1191.16 143.8 1191.88 143.8C1192.1 143.8 1192.31 143.773 1192.52 143.72C1192.74 143.667 1192.93 143.613 1193.1 143.56L1193.38 144.8C1193.21 144.893 1192.96 144.98 1192.62 145.06C1192.29 145.14 1191.97 145.18 1191.66 145.18ZM1206.89 148.6V143.3C1206.61 143.873 1206.18 144.333 1205.59 144.68C1205.02 145.013 1204.35 145.18 1203.59 145.18C1202.72 145.18 1201.96 144.973 1201.31 144.56C1200.67 144.147 1200.17 143.567 1199.81 142.82C1199.46 142.06 1199.29 141.167 1199.29 140.14C1199.29 139.1 1199.46 138.207 1199.81 137.46C1200.17 136.7 1200.67 136.12 1201.31 135.72C1201.96 135.307 1202.72 135.1 1203.59 135.1C1204.36 135.1 1205.04 135.273 1205.63 135.62C1206.22 135.967 1206.65 136.44 1206.93 137.04V135.28H1208.51V148.6H1206.89ZM1203.93 143.88C1204.84 143.88 1205.56 143.56 1206.11 142.92C1206.66 142.267 1206.93 141.34 1206.93 140.14C1206.93 138.927 1206.66 138 1206.11 137.36C1205.56 136.72 1204.84 136.4 1203.93 136.4C1203.01 136.4 1202.28 136.72 1201.73 137.36C1201.2 138 1200.93 138.927 1200.93 140.14C1200.93 141.34 1201.2 142.267 1201.73 142.92C1202.28 143.56 1203.01 143.88 1203.93 143.88ZM1214.99 145.18C1212.66 145.18 1211.49 143.893 1211.49 141.32V135.28H1213.11V141.3C1213.11 142.167 1213.28 142.807 1213.63 143.22C1213.99 143.633 1214.55 143.84 1215.31 143.84C1216.14 143.84 1216.81 143.567 1217.33 143.02C1217.85 142.46 1218.11 141.72 1218.11 140.8V135.28H1219.73V145H1218.15V143.36C1217.84 143.947 1217.41 144.4 1216.85 144.72C1216.3 145.027 1215.68 145.18 1214.99 145.18ZM1225.82 145.18C1225.16 145.18 1224.56 145.053 1224.02 144.8C1223.5 144.533 1223.09 144.173 1222.78 143.72C1222.48 143.267 1222.32 142.76 1222.32 142.2C1222.32 141.493 1222.5 140.933 1222.86 140.52C1223.24 140.107 1223.84 139.813 1224.68 139.64C1225.54 139.453 1226.7 139.36 1228.16 139.36H1228.8V138.74C1228.8 137.913 1228.63 137.32 1228.28 136.96C1227.95 136.587 1227.41 136.4 1226.66 136.4C1226.08 136.4 1225.51 136.487 1224.96 136.66C1224.42 136.82 1223.86 137.087 1223.28 137.46L1222.72 136.28C1223.23 135.92 1223.84 135.633 1224.56 135.42C1225.3 135.207 1226 135.1 1226.66 135.1C1227.92 135.1 1228.84 135.407 1229.44 136.02C1230.06 136.633 1230.36 137.587 1230.36 138.88V145H1228.84V143.32C1228.59 143.893 1228.2 144.347 1227.66 144.68C1227.14 145.013 1226.53 145.18 1225.82 145.18ZM1226.08 143.96C1226.88 143.96 1227.54 143.687 1228.04 143.14C1228.55 142.58 1228.8 141.873 1228.8 141.02V140.42H1228.18C1227.1 140.42 1226.25 140.473 1225.62 140.58C1225.01 140.673 1224.58 140.847 1224.32 141.1C1224.08 141.34 1223.96 141.673 1223.96 142.1C1223.96 142.647 1224.15 143.093 1224.52 143.44C1224.91 143.787 1225.43 143.96 1226.08 143.96ZM1236.35 145.18C1235.36 145.18 1234.61 144.893 1234.11 144.32C1233.61 143.733 1233.37 142.887 1233.37 141.78V130.9H1234.99V141.66C1234.99 143.087 1235.55 143.8 1236.69 143.8C1237.02 143.8 1237.32 143.76 1237.59 143.68L1237.55 145.04C1237.13 145.133 1236.73 145.18 1236.35 145.18ZM1239.09 132.86V131.04H1241.09V132.86H1239.09ZM1239.29 145V135.28H1240.91V145H1239.29ZM1247.83 145.18C1246.69 145.18 1245.83 144.88 1245.25 144.28C1244.68 143.667 1244.39 142.787 1244.39 141.64V136.54H1242.49V135.28H1244.39V132.3H1246.01V135.28H1249.09V136.54H1246.01V141.48C1246.01 142.24 1246.17 142.82 1246.49 143.22C1246.81 143.607 1247.33 143.8 1248.05 143.8C1248.27 143.8 1248.48 143.773 1248.69 143.72C1248.91 143.667 1249.1 143.613 1249.27 143.56L1249.55 144.8C1249.38 144.893 1249.13 144.98 1248.79 145.06C1248.46 145.14 1248.14 145.18 1247.83 145.18ZM1252.16 148.6L1253.82 144.84L1249.72 135.28H1251.48L1254.7 143.16L1257.94 135.28H1259.64L1253.86 148.6H1252.16ZM982.8 172.18C982.04 172.18 981.32 172.073 980.64 171.86C979.96 171.647 979.4 171.347 978.96 170.96L979.48 169.82C979.96 170.207 980.487 170.493 981.06 170.68C981.647 170.853 982.24 170.94 982.84 170.94C983.6 170.94 984.173 170.8 984.56 170.52C984.947 170.24 985.14 169.86 985.14 169.38C985.14 169.007 985.013 168.713 984.76 168.5C984.507 168.273 984.107 168.1 983.56 167.98L981.74 167.58C980.087 167.22 979.26 166.367 979.26 165.02C979.26 164.14 979.607 163.433 980.3 162.9C981.007 162.367 981.927 162.1 983.06 162.1C983.727 162.1 984.36 162.207 984.96 162.42C985.573 162.62 986.08 162.92 986.48 163.32L985.94 164.46C985.553 164.1 985.1 163.827 984.58 163.64C984.073 163.44 983.567 163.34 983.06 163.34C982.313 163.34 981.747 163.487 981.36 163.78C980.973 164.073 980.78 164.46 980.78 164.94C980.78 165.687 981.273 166.167 982.26 166.38L984.08 166.76C984.933 166.947 985.58 167.247 986.02 167.66C986.46 168.06 986.68 168.607 986.68 169.3C986.68 170.193 986.327 170.9 985.62 171.42C984.913 171.927 983.973 172.18 982.8 172.18ZM993.529 172.18C991.996 172.18 990.782 171.733 989.889 170.84C988.996 169.933 988.549 168.707 988.549 167.16C988.549 166.16 988.749 165.28 989.149 164.52C989.549 163.747 990.096 163.153 990.789 162.74C991.496 162.313 992.309 162.1 993.229 162.1C994.549 162.1 995.582 162.527 996.329 163.38C997.076 164.22 997.449 165.38 997.449 166.86V167.48H990.129C990.182 168.587 990.502 169.433 991.089 170.02C991.676 170.593 992.489 170.88 993.529 170.88C994.116 170.88 994.676 170.793 995.209 170.62C995.742 170.433 996.249 170.133 996.729 169.72L997.289 170.86C996.849 171.273 996.289 171.6 995.609 171.84C994.929 172.067 994.236 172.18 993.529 172.18ZM993.269 163.3C992.349 163.3 991.622 163.587 991.089 164.16C990.556 164.733 990.242 165.487 990.149 166.42H996.049C996.009 165.433 995.749 164.667 995.269 164.12C994.802 163.573 994.136 163.3 993.269 163.3ZM999.793 172V162.28H1001.37V164.02C1001.89 162.847 1002.96 162.2 1004.57 162.08L1005.15 162.02L1005.27 163.42L1004.25 163.54C1003.33 163.62 1002.63 163.913 1002.15 164.42C1001.67 164.913 1001.43 165.593 1001.43 166.46V172H999.793ZM1010.43 172L1006.25 162.28H1008.01L1011.23 170.16L1014.49 162.28H1016.15L1011.95 172H1010.43ZM1017.66 159.86V158.04H1019.66V159.86H1017.66ZM1017.86 172V162.28H1019.48V172H1017.86ZM1026.63 172.18C1025.65 172.18 1024.81 171.973 1024.11 171.56C1023.4 171.133 1022.85 170.54 1022.47 169.78C1022.09 169.007 1021.91 168.107 1021.91 167.08C1021.91 165.533 1022.33 164.32 1023.17 163.44C1024.01 162.547 1025.16 162.1 1026.63 162.1C1027.23 162.1 1027.82 162.207 1028.41 162.42C1028.99 162.633 1029.48 162.933 1029.87 163.32L1029.31 164.5C1028.92 164.127 1028.49 163.853 1028.03 163.68C1027.57 163.507 1027.14 163.42 1026.73 163.42C1025.71 163.42 1024.93 163.74 1024.39 164.38C1023.84 165.007 1023.57 165.913 1023.57 167.1C1023.57 168.26 1023.84 169.18 1024.39 169.86C1024.93 170.527 1025.71 170.86 1026.73 170.86C1027.14 170.86 1027.57 170.773 1028.03 170.6C1028.49 170.427 1028.92 170.147 1029.31 169.76L1029.87 170.94C1029.48 171.327 1028.99 171.633 1028.39 171.86C1027.8 172.073 1027.21 172.18 1026.63 172.18ZM1035.95 172.18C1034.42 172.18 1033.2 171.733 1032.31 170.84C1031.42 169.933 1030.97 168.707 1030.97 167.16C1030.97 166.16 1031.17 165.28 1031.57 164.52C1031.97 163.747 1032.52 163.153 1033.21 162.74C1033.92 162.313 1034.73 162.1 1035.65 162.1C1036.97 162.1 1038 162.527 1038.75 163.38C1039.5 164.22 1039.87 165.38 1039.87 166.86V167.48H1032.55C1032.6 168.587 1032.92 169.433 1033.51 170.02C1034.1 170.593 1034.91 170.88 1035.95 170.88C1036.54 170.88 1037.1 170.793 1037.63 170.62C1038.16 170.433 1038.67 170.133 1039.15 169.72L1039.71 170.86C1039.27 171.273 1038.71 171.6 1038.03 171.84C1037.35 172.067 1036.66 172.18 1035.95 172.18ZM1035.69 163.3C1034.77 163.3 1034.04 163.587 1033.51 164.16C1032.98 164.733 1032.66 165.487 1032.57 166.42H1038.47C1038.43 165.433 1038.17 164.667 1037.69 164.12C1037.22 163.573 1036.56 163.3 1035.69 163.3ZM1047.87 172V163.54H1045.95V162.28H1047.87V161.94C1047.87 160.647 1048.19 159.667 1048.83 159C1049.49 158.333 1050.49 157.96 1051.83 157.88L1052.61 157.84L1052.75 159.08L1051.83 159.14C1051.01 159.207 1050.41 159.453 1050.03 159.88C1049.67 160.307 1049.49 160.927 1049.49 161.74V162.28H1052.29V163.54H1049.49V172H1047.87ZM1054.01 172V162.28H1055.59V164.02C1056.11 162.847 1057.18 162.2 1058.79 162.08L1059.37 162.02L1059.49 163.42L1058.47 163.54C1057.55 163.62 1056.85 163.913 1056.37 164.42C1055.89 164.913 1055.65 165.593 1055.65 166.46V172H1054.01ZM1065.1 172.18C1064.16 172.18 1063.34 171.973 1062.64 171.56C1061.95 171.147 1061.41 170.567 1061.02 169.82C1060.65 169.06 1060.46 168.167 1060.46 167.14C1060.46 166.113 1060.65 165.227 1061.02 164.48C1061.41 163.72 1061.95 163.133 1062.64 162.72C1063.34 162.307 1064.16 162.1 1065.1 162.1C1066.04 162.1 1066.85 162.307 1067.54 162.72C1068.25 163.133 1068.79 163.72 1069.16 164.48C1069.55 165.227 1069.74 166.113 1069.74 167.14C1069.74 168.167 1069.55 169.06 1069.16 169.82C1068.79 170.567 1068.25 171.147 1067.54 171.56C1066.85 171.973 1066.04 172.18 1065.1 172.18ZM1065.1 170.88C1066.01 170.88 1066.74 170.56 1067.28 169.92C1067.83 169.267 1068.1 168.34 1068.1 167.14C1068.1 165.927 1067.83 165 1067.28 164.36C1066.74 163.72 1066.01 163.4 1065.1 163.4C1064.18 163.4 1063.45 163.72 1062.9 164.36C1062.37 165 1062.1 165.927 1062.1 167.14C1062.1 168.34 1062.37 169.267 1062.9 169.92C1063.45 170.56 1064.18 170.88 1065.1 170.88ZM1072.22 172V162.28H1073.8V163.92C1074.09 163.333 1074.5 162.887 1075.02 162.58C1075.54 162.26 1076.14 162.1 1076.84 162.1C1078.36 162.1 1079.33 162.76 1079.76 164.08C1080.05 163.467 1080.48 162.987 1081.06 162.64C1081.63 162.28 1082.29 162.1 1083.04 162.1C1085.2 162.1 1086.28 163.38 1086.28 165.94V172H1084.66V166.02C1084.66 165.127 1084.5 164.473 1084.18 164.06C1083.87 163.633 1083.36 163.42 1082.64 163.42C1081.85 163.42 1081.22 163.7 1080.76 164.26C1080.29 164.82 1080.06 165.567 1080.06 166.5V172H1078.44V166.02C1078.44 165.127 1078.28 164.473 1077.96 164.06C1077.65 163.633 1077.14 163.42 1076.42 163.42C1075.62 163.42 1074.98 163.7 1074.52 164.26C1074.06 164.82 1073.84 165.567 1073.84 166.5V172H1072.22ZM1098.48 172.18C1097.54 172.18 1096.72 171.973 1096.02 171.56C1095.33 171.147 1094.79 170.567 1094.4 169.82C1094.03 169.06 1093.84 168.167 1093.84 167.14C1093.84 166.113 1094.03 165.227 1094.4 164.48C1094.79 163.72 1095.33 163.133 1096.02 162.72C1096.72 162.307 1097.54 162.1 1098.48 162.1C1099.42 162.1 1100.23 162.307 1100.92 162.72C1101.63 163.133 1102.17 163.72 1102.54 164.48C1102.93 165.227 1103.12 166.113 1103.12 167.14C1103.12 168.167 1102.93 169.06 1102.54 169.82C1102.17 170.567 1101.63 171.147 1100.92 171.56C1100.23 171.973 1099.42 172.18 1098.48 172.18ZM1098.48 170.88C1099.39 170.88 1100.12 170.56 1100.66 169.92C1101.21 169.267 1101.48 168.34 1101.48 167.14C1101.48 165.927 1101.21 165 1100.66 164.36C1100.12 163.72 1099.39 163.4 1098.48 163.4C1097.56 163.4 1096.83 163.72 1096.28 164.36C1095.75 165 1095.48 165.927 1095.48 167.14C1095.48 168.34 1095.75 169.267 1096.28 169.92C1096.83 170.56 1097.56 170.88 1098.48 170.88ZM1109 172.18C1106.66 172.18 1105.5 170.893 1105.5 168.32V162.28H1107.12V168.3C1107.12 169.167 1107.29 169.807 1107.64 170.22C1108 170.633 1108.56 170.84 1109.32 170.84C1110.14 170.84 1110.82 170.567 1111.34 170.02C1111.86 169.46 1112.12 168.72 1112.12 167.8V162.28H1113.74V172H1112.16V170.36C1111.85 170.947 1111.42 171.4 1110.86 171.72C1110.31 172.027 1109.69 172.18 1109 172.18ZM1116.77 172V162.28H1118.35V164.02C1118.87 162.847 1119.93 162.2 1121.55 162.08L1122.13 162.02L1122.25 163.42L1121.23 163.54C1120.31 163.62 1119.61 163.913 1119.13 164.42C1118.65 164.913 1118.41 165.593 1118.41 166.46V172H1116.77ZM1129.11 172V162.28H1130.69V163.92C1130.98 163.333 1131.39 162.887 1131.91 162.58C1132.43 162.26 1133.04 162.1 1133.73 162.1C1135.25 162.1 1136.22 162.76 1136.65 164.08C1136.94 163.467 1137.38 162.987 1137.95 162.64C1138.52 162.28 1139.18 162.1 1139.93 162.1C1142.09 162.1 1143.17 163.38 1143.17 165.94V172H1141.55V166.02C1141.55 165.127 1141.39 164.473 1141.07 164.06C1140.76 163.633 1140.25 163.42 1139.53 163.42C1138.74 163.42 1138.12 163.7 1137.65 164.26C1137.18 164.82 1136.95 165.567 1136.95 166.5V172H1135.33V166.02C1135.33 165.127 1135.17 164.473 1134.85 164.06C1134.54 163.633 1134.03 163.42 1133.31 163.42C1132.51 163.42 1131.88 163.7 1131.41 164.26C1130.96 164.82 1130.73 165.567 1130.73 166.5V172H1129.11ZM1150.58 172.18C1149.05 172.18 1147.83 171.733 1146.94 170.84C1146.05 169.933 1145.6 168.707 1145.6 167.16C1145.6 166.16 1145.8 165.28 1146.2 164.52C1146.6 163.747 1147.15 163.153 1147.84 162.74C1148.55 162.313 1149.36 162.1 1150.28 162.1C1151.6 162.1 1152.63 162.527 1153.38 163.38C1154.13 164.22 1154.5 165.38 1154.5 166.86V167.48H1147.18C1147.23 168.587 1147.55 169.433 1148.14 170.02C1148.73 170.593 1149.54 170.88 1150.58 170.88C1151.17 170.88 1151.73 170.793 1152.26 170.62C1152.79 170.433 1153.3 170.133 1153.78 169.72L1154.34 170.86C1153.9 171.273 1153.34 171.6 1152.66 171.84C1151.98 172.067 1151.29 172.18 1150.58 172.18ZM1150.32 163.3C1149.4 163.3 1148.67 163.587 1148.14 164.16C1147.61 164.733 1147.29 165.487 1147.2 166.42H1153.1C1153.06 165.433 1152.8 164.667 1152.32 164.12C1151.85 163.573 1151.19 163.3 1150.32 163.3ZM1156.84 172V162.28H1158.42V163.94C1158.74 163.327 1159.2 162.867 1159.78 162.56C1160.37 162.253 1161.03 162.1 1161.76 162.1C1164.07 162.1 1165.22 163.38 1165.22 165.94V172H1163.6V166.04C1163.6 165.133 1163.42 164.473 1163.06 164.06C1162.72 163.633 1162.16 163.42 1161.38 163.42C1160.49 163.42 1159.78 163.7 1159.24 164.26C1158.72 164.807 1158.46 165.54 1158.46 166.46V172H1156.84ZM1172.11 172.18C1170.96 172.18 1170.1 171.88 1169.53 171.28C1168.96 170.667 1168.67 169.787 1168.67 168.64V163.54H1166.77V162.28H1168.67V159.3H1170.29V162.28H1173.37V163.54H1170.29V168.48C1170.29 169.24 1170.45 169.82 1170.77 170.22C1171.09 170.607 1171.61 170.8 1172.33 170.8C1172.54 170.8 1172.76 170.773 1172.97 170.72C1173.18 170.667 1173.38 170.613 1173.55 170.56L1173.83 171.8C1173.66 171.893 1173.4 171.98 1173.07 172.06C1172.74 172.14 1172.42 172.18 1172.11 172.18ZM1179.15 172.18C1178.2 172.18 1177.38 171.973 1176.69 171.56C1175.99 171.147 1175.45 170.567 1175.07 169.82C1174.69 169.06 1174.51 168.167 1174.51 167.14C1174.51 166.113 1174.69 165.227 1175.07 164.48C1175.45 163.72 1175.99 163.133 1176.69 162.72C1177.38 162.307 1178.2 162.1 1179.15 162.1C1180.08 162.1 1180.89 162.307 1181.59 162.72C1182.29 163.133 1182.83 163.72 1183.21 164.48C1183.59 165.227 1183.79 166.113 1183.79 167.14C1183.79 168.167 1183.59 169.06 1183.21 169.82C1182.83 170.567 1182.29 171.147 1181.59 171.56C1180.89 171.973 1180.08 172.18 1179.15 172.18ZM1179.15 170.88C1180.05 170.88 1180.78 170.56 1181.33 169.92C1181.87 169.267 1182.15 168.34 1182.15 167.14C1182.15 165.927 1181.87 165 1181.33 164.36C1180.78 163.72 1180.05 163.4 1179.15 163.4C1178.23 163.4 1177.49 163.72 1176.95 164.36C1176.41 165 1176.15 165.927 1176.15 167.14C1176.15 168.34 1176.41 169.267 1176.95 169.92C1177.49 170.56 1178.23 170.88 1179.15 170.88ZM1186.22 172V162.28H1187.8V164.02C1188.32 162.847 1189.39 162.2 1191 162.08L1191.58 162.02L1191.7 163.42L1190.68 163.54C1189.76 163.62 1189.06 163.913 1188.58 164.42C1188.1 164.913 1187.86 165.593 1187.86 166.46V172H1186.22ZM1196.57 172.18C1195.81 172.18 1195.09 172.073 1194.41 171.86C1193.73 171.647 1193.17 171.347 1192.73 170.96L1193.25 169.82C1193.73 170.207 1194.26 170.493 1194.83 170.68C1195.42 170.853 1196.01 170.94 1196.61 170.94C1197.37 170.94 1197.94 170.8 1198.33 170.52C1198.72 170.24 1198.91 169.86 1198.91 169.38C1198.91 169.007 1198.78 168.713 1198.53 168.5C1198.28 168.273 1197.88 168.1 1197.33 167.98L1195.51 167.58C1193.86 167.22 1193.03 166.367 1193.03 165.02C1193.03 164.14 1193.38 163.433 1194.07 162.9C1194.78 162.367 1195.7 162.1 1196.83 162.1C1197.5 162.1 1198.13 162.207 1198.73 162.42C1199.34 162.62 1199.85 162.92 1200.25 163.32L1199.71 164.46C1199.32 164.1 1198.87 163.827 1198.35 163.64C1197.84 163.44 1197.34 163.34 1196.83 163.34C1196.08 163.34 1195.52 163.487 1195.13 163.78C1194.74 164.073 1194.55 164.46 1194.55 164.94C1194.55 165.687 1195.04 166.167 1196.03 166.38L1197.85 166.76C1198.7 166.947 1199.35 167.247 1199.79 167.66C1200.23 168.06 1200.45 168.607 1200.45 169.3C1200.45 170.193 1200.1 170.9 1199.39 171.42C1198.68 171.927 1197.74 172.18 1196.57 172.18Z" fill="white"/>
<path d="M884 135.429C884 134.33 884.436 133.276 885.213 132.499C885.99 131.722 887.044 131.286 888.143 131.286H896.429C897.527 131.286 898.581 131.722 899.358 132.499C900.135 133.276 900.571 134.33 900.571 135.429V147.857C900.571 148.956 900.135 150.01 899.358 150.787C898.581 151.564 897.527 152 896.429 152H888.143C887.044 152 885.99 151.564 885.213 150.787C884.436 150.01 884 148.956 884 147.857V135.429ZM904.714 118.857C904.714 117.758 905.151 116.705 905.928 115.928C906.705 115.151 907.758 114.714 908.857 114.714H917.143C918.242 114.714 919.295 115.151 920.072 115.928C920.849 116.705 921.286 117.758 921.286 118.857V147.857C921.286 148.956 920.849 150.01 920.072 150.787C919.295 151.564 918.242 152 917.143 152H908.857C907.758 152 906.705 151.564 905.928 150.787C905.151 150.01 904.714 148.956 904.714 147.857V118.857ZM925.429 98.1429C925.429 97.0441 925.865 95.9904 926.642 95.2134C927.419 94.4365 928.473 94 929.571 94H937.857C938.956 94 940.01 94.4365 940.787 95.2134C941.564 95.9904 942 97.0441 942 98.1429V147.857C942 148.956 941.564 150.01 940.787 150.787C940.01 151.564 938.956 152 937.857 152H929.571C928.473 152 927.419 151.564 926.642 150.787C925.865 150.01 925.429 148.956 925.429 147.857V98.1429Z" fill="white"/>
</svg>
