<svg xmlns="http://www.w3.org/2000/svg" viewBox="0 0 614.31 271.29"><defs><style>.cls-1{opacity:0.2;}.cls-2{fill:#fff;}</style></defs><g id="Layer_2" data-name="Layer 2"><g id="Layer_1-2" data-name="Layer 1"><g id="Layer_2-2" data-name="Layer 2" class="cls-1"><g id="Layer_1-2-2" data-name="Layer 1-2"><path class="cls-2" d="M511.88,141.9s-.37,4.81-1.67,6.26-6.27,1.67-6.27,1.67,4.82.3,6.27,1.67,1.67,6.27,1.67,6.27.31-4.89,1.68-6.27,6.26-1.67,6.26-1.67-4.89-.39-6.26-1.67S511.88,141.9,511.88,141.9Z"/><path class="cls-2" d="M511.88,170.27s-.37,4.82-1.67,6.27-6.27,1.68-6.27,1.68,4.82.31,6.27,1.67,1.67,6.26,1.67,6.26.31-4.9,1.68-6.26,6.26-1.67,6.26-1.67-4.89-.39-6.26-1.68S511.88,170.27,511.88,170.27Z"/><path class="cls-2" d="M511.88,255.41s-.37,4.82-1.67,6.26-6.27,1.68-6.27,1.68,4.82.3,6.27,1.67,1.67,6.27,1.67,6.27.31-4.9,1.68-6.27,6.26-1.67,6.26-1.67-4.89-.39-6.26-1.68S511.88,255.41,511.88,255.41Z"/><path class="cls-2" d="M511.88,198.65s-.37,4.82-1.67,6.27-6.27,1.67-6.27,1.67,4.82.31,6.27,1.68,1.67,6.26,1.67,6.26.31-4.89,1.68-6.26,6.26-1.68,6.26-1.68-4.89-.37-6.26-1.67S511.88,198.65,511.88,198.65Z"/><path class="cls-2" d="M511.88,28.38s-.37,4.82-1.67,6.27-6.27,1.67-6.27,1.67,4.82.31,6.27,1.67,1.67,6.26,1.67,6.26.31-4.88,1.68-6.26,6.26-1.67,6.26-1.67-4.89-.38-6.26-1.67S511.88,28.38,511.88,28.38Z"/><path class="cls-2" d="M511.88,56.76s-.37,4.82-1.67,6.26-6.27,1.68-6.27,1.68,4.82.31,6.27,1.67,1.67,6.26,1.67,6.26.31-4.89,1.68-6.26,6.26-1.67,6.26-1.67-4.89-.38-6.26-1.68S511.88,56.76,511.88,56.76Z"/><path class="cls-2" d="M511.88,113.52s-.37,4.81-1.67,6.26-6.27,1.67-6.27,1.67,4.82.3,6.27,1.68,1.67,6.26,1.67,6.26.31-4.89,1.68-6.26,6.26-1.68,6.26-1.68-4.89-.38-6.26-1.67S511.88,113.52,511.88,113.52Z"/><path class="cls-2" d="M511.88,85.14s-.37,4.81-1.67,6.26-6.27,1.67-6.27,1.67,4.82.31,6.27,1.68,1.67,6.27,1.67,6.27.31-4.9,1.68-6.27,6.26-1.68,6.26-1.68-4.89-.38-6.26-1.67S511.88,85.14,511.88,85.14Z"/><path class="cls-2" d="M511.88,227s-.37,4.82-1.67,6.27-6.27,1.67-6.27,1.67,4.82.31,6.27,1.67,1.67,6.26,1.67,6.26.31-4.88,1.68-6.26,6.26-1.67,6.26-1.67-4.89-.38-6.26-1.67S511.88,227,511.88,227Z"/><path class="cls-2" d="M543.38,141.9s-.38,4.81-1.67,6.26-6.26,1.67-6.26,1.67,4.82.3,6.26,1.67,1.67,6.27,1.67,6.27.3-4.89,1.68-6.27,6.27-1.67,6.27-1.67-4.9-.39-6.27-1.67S543.38,141.9,543.38,141.9Z"/><path class="cls-2" d="M543.38,113.52s-.38,4.81-1.67,6.26-6.26,1.67-6.26,1.67,4.82.3,6.26,1.68,1.67,6.26,1.67,6.26.3-4.89,1.68-6.26,6.27-1.68,6.27-1.68-4.9-.38-6.27-1.67S543.38,113.52,543.38,113.52Z"/><path class="cls-2" d="M543.38,85.14S543,90,541.71,91.4s-6.26,1.67-6.26,1.67,4.82.31,6.26,1.68,1.67,6.27,1.67,6.27.3-4.9,1.68-6.27,6.27-1.68,6.27-1.68-4.9-.38-6.27-1.67S543.38,85.14,543.38,85.14Z"/><path class="cls-2" d="M543.38,170.27s-.38,4.82-1.67,6.27-6.26,1.68-6.26,1.68,4.82.31,6.26,1.67,1.67,6.26,1.67,6.26.3-4.9,1.68-6.26,6.27-1.67,6.27-1.67-4.9-.39-6.27-1.68S543.38,170.27,543.38,170.27Z"/><path class="cls-2" d="M543.38,0s-.38,4.82-1.67,6.27-6.26,1.67-6.26,1.67,4.82.31,6.26,1.68,1.67,6.26,1.67,6.26.3-4.9,1.68-6.26,6.27-1.68,6.27-1.68-4.9-.38-6.27-1.67S543.38,0,543.38,0Z"/><path class="cls-2" d="M543.38,56.76S543,61.58,541.71,63s-6.26,1.68-6.26,1.68,4.82.31,6.26,1.67,1.67,6.26,1.67,6.26.3-4.89,1.68-6.26,6.27-1.67,6.27-1.67-4.9-.38-6.27-1.68S543.38,56.76,543.38,56.76Z"/><path class="cls-2" d="M543.38,28.38s-.38,4.82-1.67,6.27-6.26,1.67-6.26,1.67,4.82.31,6.26,1.67,1.67,6.26,1.67,6.26.3-4.88,1.68-6.26,6.27-1.67,6.27-1.67-4.9-.38-6.27-1.67S543.38,28.38,543.38,28.38Z"/><path class="cls-2" d="M448.89,227s-.38,4.82-1.67,6.27S441,235,441,235s4.82.3,6.27,1.67,1.67,6.26,1.67,6.26.31-4.88,1.68-6.26,6.26-1.67,6.26-1.67-4.9-.38-6.26-1.67S448.89,227,448.89,227Z"/><path class="cls-2" d="M480.39,0s-.38,4.82-1.67,6.27-6.26,1.67-6.26,1.67,4.81.31,6.26,1.68,1.67,6.26,1.67,6.26.3-4.9,1.68-6.26,6.27-1.68,6.27-1.68-4.9-.38-6.27-1.67S480.39,0,480.39,0Z"/><path class="cls-2" d="M480.39,56.76S480,61.58,478.72,63s-6.26,1.68-6.26,1.68,4.81.31,6.26,1.67,1.67,6.26,1.67,6.26.3-4.89,1.68-6.26,6.27-1.67,6.27-1.67-4.9-.38-6.27-1.68S480.39,56.76,480.39,56.76Z"/><path class="cls-2" d="M543.38,198.65s-.38,4.82-1.67,6.27-6.26,1.67-6.26,1.67,4.82.31,6.26,1.68,1.67,6.26,1.67,6.26.3-4.89,1.68-6.26,6.27-1.68,6.27-1.68-4.9-.37-6.27-1.67S543.38,198.65,543.38,198.65Z"/><path class="cls-2" d="M480.39,28.38s-.38,4.82-1.67,6.27-6.26,1.67-6.26,1.67,4.81.31,6.26,1.67,1.67,6.26,1.67,6.26.3-4.88,1.68-6.26,6.27-1.67,6.27-1.67-4.9-.38-6.27-1.67S480.39,28.38,480.39,28.38Z"/><path class="cls-2" d="M448.89,170.27s-.38,4.82-1.67,6.27-6.27,1.68-6.27,1.68,4.82.31,6.27,1.67,1.67,6.26,1.67,6.26.31-4.9,1.68-6.26,6.26-1.67,6.26-1.67-4.9-.39-6.26-1.68S448.89,170.27,448.89,170.27Z"/><path class="cls-2" d="M448.89,255.41s-.38,4.82-1.67,6.26-6.27,1.68-6.27,1.68,4.82.3,6.27,1.67,1.67,6.27,1.67,6.27.31-4.9,1.68-6.27,6.26-1.67,6.26-1.67-4.9-.39-6.26-1.68S448.89,255.41,448.89,255.41Z"/><path class="cls-2" d="M448.89,198.65s-.38,4.82-1.67,6.27-6.27,1.67-6.27,1.67,4.82.31,6.27,1.68,1.67,6.26,1.67,6.26.31-4.89,1.68-6.26,6.26-1.68,6.26-1.68-4.9-.37-6.26-1.67S448.89,198.65,448.89,198.65Z"/><path class="cls-2" d="M480.39,255.41s-.38,4.82-1.67,6.26-6.26,1.68-6.26,1.68,4.81.3,6.26,1.67,1.67,6.27,1.67,6.27.3-4.9,1.68-6.27,6.27-1.67,6.27-1.67-4.9-.39-6.27-1.68S480.39,255.41,480.39,255.41Z"/><path class="cls-2" d="M511.88,0s-.37,4.82-1.67,6.27-6.27,1.67-6.27,1.67,4.82.31,6.27,1.68,1.67,6.26,1.67,6.26.31-4.9,1.68-6.26,6.26-1.68,6.26-1.68-4.89-.38-6.26-1.67S511.88,0,511.88,0Z"/><path class="cls-2" d="M480.39,198.65s-.38,4.82-1.67,6.27-6.26,1.67-6.26,1.67,4.81.31,6.26,1.68,1.67,6.26,1.67,6.26.3-4.89,1.68-6.26,6.27-1.68,6.27-1.68-4.9-.37-6.27-1.67S480.39,198.65,480.39,198.65Z"/><path class="cls-2" d="M480.39,227s-.38,4.82-1.67,6.27-6.26,1.67-6.26,1.67,4.81.31,6.26,1.67,1.67,6.26,1.67,6.26.3-4.88,1.68-6.26,6.27-1.67,6.27-1.67-4.9-.38-6.27-1.67S480.39,227,480.39,227Z"/><path class="cls-2" d="M480.39,85.14S480,90,478.72,91.4s-6.26,1.67-6.26,1.67,4.81.31,6.26,1.68,1.67,6.27,1.67,6.27.3-4.9,1.68-6.27,6.27-1.68,6.27-1.68-4.9-.38-6.27-1.67S480.39,85.14,480.39,85.14Z"/><path class="cls-2" d="M480.39,113.52s-.38,4.81-1.67,6.26-6.26,1.67-6.26,1.67,4.81.3,6.26,1.68,1.67,6.26,1.67,6.26.3-4.89,1.68-6.26,6.27-1.68,6.27-1.68-4.9-.38-6.27-1.67S480.39,113.52,480.39,113.52Z"/><path class="cls-2" d="M480.39,170.27s-.38,4.82-1.67,6.27-6.26,1.68-6.26,1.68,4.81.31,6.26,1.67,1.67,6.26,1.67,6.26.3-4.9,1.68-6.26,6.27-1.67,6.27-1.67-4.9-.39-6.27-1.68S480.39,170.27,480.39,170.27Z"/><path class="cls-2" d="M480.39,141.9s-.38,4.81-1.67,6.26-6.26,1.67-6.26,1.67,4.81.3,6.26,1.67,1.67,6.27,1.67,6.27.3-4.89,1.68-6.27,6.27-1.67,6.27-1.67-4.9-.39-6.27-1.67S480.39,141.9,480.39,141.9Z"/><path class="cls-2" d="M543.38,227s-.38,4.82-1.67,6.27-6.26,1.67-6.26,1.67,4.82.31,6.26,1.67,1.67,6.26,1.67,6.26.3-4.88,1.68-6.26,6.27-1.67,6.27-1.67-4.9-.38-6.27-1.67S543.38,227,543.38,227Z"/><path class="cls-2" d="M606.37,227s-.37,4.82-1.67,6.27-6.27,1.67-6.27,1.67,4.82.31,6.27,1.67,1.67,6.26,1.67,6.26.31-4.88,1.68-6.26,6.26-1.67,6.26-1.67-4.89-.38-6.26-1.67S606.37,227,606.37,227Z"/><path class="cls-2" d="M606.37,170.27s-.37,4.82-1.67,6.27-6.27,1.68-6.27,1.68,4.82.31,6.27,1.67,1.67,6.26,1.67,6.26.31-4.9,1.68-6.26,6.26-1.67,6.26-1.67-4.89-.39-6.26-1.68S606.37,170.27,606.37,170.27Z"/><path class="cls-2" d="M606.37,113.52s-.37,4.81-1.67,6.26-6.27,1.67-6.27,1.67,4.82.3,6.27,1.68,1.67,6.26,1.67,6.26.31-4.89,1.68-6.26,6.26-1.68,6.26-1.68-4.89-.38-6.26-1.67S606.37,113.52,606.37,113.52Z"/><path class="cls-2" d="M606.37,255.41s-.37,4.82-1.67,6.26-6.27,1.68-6.27,1.68,4.82.3,6.27,1.67,1.67,6.27,1.67,6.27.31-4.9,1.68-6.27,6.26-1.67,6.26-1.67-4.89-.39-6.26-1.68S606.37,255.41,606.37,255.41Z"/><path class="cls-2" d="M606.37,198.65s-.37,4.82-1.67,6.27-6.27,1.67-6.27,1.67,4.82.31,6.27,1.68,1.67,6.26,1.67,6.26.31-4.89,1.68-6.26,6.26-1.68,6.26-1.68-4.89-.37-6.26-1.67S606.37,198.65,606.37,198.65Z"/><path class="cls-2" d="M606.37,141.9s-.37,4.81-1.67,6.26-6.27,1.67-6.27,1.67,4.82.3,6.27,1.67,1.67,6.27,1.67,6.27.31-4.89,1.68-6.27,6.26-1.67,6.26-1.67-4.89-.39-6.26-1.67S606.37,141.9,606.37,141.9Z"/><path class="cls-2" d="M574.92,28.38s-.39,4.82-1.68,6.27S567,36.32,567,36.32s4.81.31,6.26,1.67,1.68,6.26,1.68,6.26.3-4.88,1.67-6.26,6.27-1.67,6.27-1.67-4.9-.38-6.27-1.67S574.92,28.38,574.92,28.38Z"/><path class="cls-2" d="M574.92,56.76s-.39,4.82-1.68,6.26S567,64.7,567,64.7s4.81.31,6.26,1.67,1.68,6.26,1.68,6.26.3-4.89,1.67-6.26,6.27-1.67,6.27-1.67-4.9-.38-6.27-1.68S574.92,56.76,574.92,56.76Z"/><path class="cls-2" d="M574.92,85.14s-.39,4.81-1.68,6.26S567,93.07,567,93.07s4.81.31,6.26,1.68,1.68,6.27,1.68,6.27.3-4.9,1.67-6.27,6.27-1.68,6.27-1.68-4.9-.38-6.27-1.67S574.92,85.14,574.92,85.14Z"/><path class="cls-2" d="M574.92,113.52s-.39,4.81-1.68,6.26-6.26,1.67-6.26,1.67,4.81.3,6.26,1.68,1.68,6.26,1.68,6.26.3-4.89,1.67-6.26,6.27-1.68,6.27-1.68-4.9-.38-6.27-1.67S574.92,113.52,574.92,113.52Z"/><path class="cls-2" d="M606.37,85.14S606,90,604.7,91.4s-6.27,1.67-6.27,1.67,4.82.31,6.27,1.68,1.67,6.27,1.67,6.27.31-4.9,1.68-6.27,6.26-1.68,6.26-1.68-4.89-.38-6.26-1.67S606.37,85.14,606.37,85.14Z"/><path class="cls-2" d="M448.89,141.9s-.38,4.81-1.67,6.26-6.27,1.67-6.27,1.67,4.82.31,6.27,1.67,1.67,6.26,1.67,6.26.31-4.89,1.68-6.26,6.26-1.67,6.26-1.67-4.9-.39-6.26-1.67S448.89,141.9,448.89,141.9Z"/><path class="cls-2" d="M574.92,0s-.39,4.82-1.68,6.27S567,7.94,567,7.94s4.81.31,6.26,1.68,1.68,6.28,1.68,6.28.3-4.9,1.67-6.26S582.86,8,582.86,8s-4.9-.39-6.27-1.68S574.92,0,574.92,0Z"/><path class="cls-2" d="M574.92,141.9s-.39,4.81-1.68,6.26-6.26,1.67-6.26,1.67,4.81.3,6.26,1.67,1.68,6.27,1.68,6.27.3-4.89,1.67-6.27,6.27-1.67,6.27-1.67-4.9-.39-6.27-1.67S574.92,141.9,574.92,141.9Z"/><path class="cls-2" d="M543.38,255.41s-.38,4.82-1.67,6.26-6.26,1.68-6.26,1.68,4.82.3,6.26,1.67,1.67,6.27,1.67,6.27.3-4.9,1.68-6.27,6.27-1.67,6.27-1.67-4.9-.39-6.27-1.68S543.38,255.41,543.38,255.41Z"/><path class="cls-2" d="M606.37,0S606,4.82,604.7,6.27s-6.27,1.67-6.27,1.67,4.82.31,6.27,1.68,1.67,6.26,1.67,6.26.31-4.9,1.68-6.26,6.26-1.68,6.26-1.68-4.89-.38-6.26-1.67S606.37,0,606.37,0Z"/><path class="cls-2" d="M606.37,28.38s-.37,4.82-1.67,6.27-6.27,1.67-6.27,1.67,4.82.31,6.27,1.67,1.67,6.26,1.67,6.26.31-4.88,1.68-6.26,6.26-1.67,6.26-1.67-4.89-.38-6.26-1.67S606.37,28.38,606.37,28.38Z"/><path class="cls-2" d="M574.92,170.27s-.39,4.82-1.68,6.27-6.26,1.68-6.26,1.68,4.81.31,6.26,1.67,1.68,6.26,1.68,6.26.3-4.9,1.67-6.26,6.27-1.67,6.27-1.67-4.9-.39-6.27-1.68S574.92,170.27,574.92,170.27Z"/><path class="cls-2" d="M606.37,56.76S606,61.58,604.7,63s-6.27,1.68-6.27,1.68,4.82.31,6.27,1.67,1.67,6.26,1.67,6.26.31-4.89,1.68-6.26,6.26-1.67,6.26-1.67-4.89-.38-6.26-1.68S606.37,56.76,606.37,56.76Z"/><path class="cls-2" d="M574.92,198.65s-.39,4.82-1.68,6.27-6.26,1.67-6.26,1.67,4.81.31,6.26,1.68,1.68,6.26,1.68,6.26.3-4.89,1.67-6.26,6.27-1.68,6.27-1.68-4.9-.37-6.27-1.67S574.92,198.65,574.92,198.65Z"/><path class="cls-2" d="M574.92,255.41s-.39,4.82-1.68,6.26-6.26,1.68-6.26,1.68,4.81.3,6.26,1.67,1.68,6.27,1.68,6.27.3-4.9,1.67-6.27,6.27-1.67,6.27-1.67-4.9-.39-6.27-1.68S574.92,255.41,574.92,255.41Z"/><path class="cls-2" d="M574.92,227s-.39,4.82-1.68,6.27S567,235,567,235s4.81.31,6.26,1.67,1.68,6.26,1.68,6.26.3-4.88,1.67-6.26,6.27-1.67,6.27-1.67-4.9-.38-6.27-1.67S574.92,227,574.92,227Z"/><path class="cls-2" d="M450.59,66.4c1.38-1.38,6.25-1.68,6.25-1.68s-4.89-.37-6.25-1.67-1.68-6.27-1.68-6.27-.38,4.82-1.67,6.27S441,64.72,441,64.72s4.82.31,6.27,1.68,1.67,6.26,1.67,6.26S449.2,67.78,450.59,66.4Z"/><path class="cls-2" d="M322.92,141.9s-.39,4.81-1.68,6.26-6.27,1.67-6.27,1.67,4.82.3,6.27,1.67,1.68,6.27,1.68,6.27.3-4.89,1.67-6.27,6.27-1.67,6.27-1.67-4.9-.39-6.27-1.67S322.92,141.9,322.92,141.9Z"/><path class="cls-2" d="M322.92,113.52s-.39,4.81-1.68,6.26-6.27,1.67-6.27,1.67,4.82.3,6.27,1.68,1.68,6.26,1.68,6.26.3-4.89,1.67-6.26,6.27-1.68,6.27-1.68-4.9-.38-6.27-1.67S322.92,113.52,322.92,113.52Z"/><path class="cls-2" d="M322.92,227s-.39,4.82-1.68,6.27S315,235,315,235s4.82.31,6.27,1.67,1.68,6.26,1.68,6.26.3-4.88,1.67-6.26,6.27-1.67,6.27-1.67-4.9-.38-6.27-1.67S322.92,227,322.92,227Z"/><path class="cls-2" d="M322.92,170.27s-.39,4.82-1.68,6.27-6.27,1.68-6.27,1.68,4.82.31,6.27,1.67,1.68,6.26,1.68,6.26.3-4.9,1.67-6.26,6.27-1.67,6.27-1.67-4.9-.39-6.27-1.68S322.92,170.27,322.92,170.27Z"/><path class="cls-2" d="M322.91,72.66s.31-4.89,1.67-6.26,6.26-1.68,6.26-1.68-4.89-.37-6.26-1.67-1.67-6.27-1.67-6.27-.38,4.82-1.68,6.27S315,64.72,315,64.72s4.82.31,6.26,1.68S322.91,72.66,322.91,72.66Z"/><path class="cls-2" d="M324.6,34.65c-1.38-1.31-1.68-6.27-1.68-6.27s-.38,4.82-1.67,6.27S315,36.32,315,36.32s4.82.31,6.27,1.67,1.67,6.26,1.67,6.26.3-4.88,1.68-6.26,6.27-1.67,6.27-1.67S326,36,324.6,34.65Z"/><path class="cls-2" d="M321.22,94.77c1.45,1.38,1.68,6.27,1.68,6.27s.3-4.89,1.67-6.27,6.27-1.67,6.27-1.67-4.9-.39-6.27-1.67-1.67-6.26-1.67-6.26-.39,4.81-1.68,6.26S315,93.1,315,93.1,319.78,93.39,321.22,94.77Z"/><path class="cls-2" d="M322.91,15.9s.31-4.9,1.67-6.26S330.85,8,330.85,8s-4.9-.39-6.27-1.68S322.91,0,322.91,0s-.38,4.82-1.68,6.26S315,8,315,8s4.82.31,6.26,1.67S322.91,15.9,322.91,15.9Z"/><path class="cls-2" d="M322.92,198.65s-.39,4.82-1.68,6.27-6.27,1.67-6.27,1.67,4.82.31,6.27,1.68,1.68,6.26,1.68,6.26.3-4.89,1.67-6.26,6.27-1.68,6.27-1.68-4.9-.37-6.27-1.67S322.92,198.65,322.92,198.65Z"/><path class="cls-2" d="M322.92,255.41s-.39,4.82-1.68,6.26-6.27,1.68-6.27,1.68,4.82.3,6.27,1.67,1.68,6.27,1.68,6.27.3-4.9,1.67-6.27,6.27-1.67,6.27-1.67-4.9-.39-6.27-1.68S322.92,255.41,322.92,255.41Z"/><path class="cls-2" d="M356.1,9.64C357.48,8.27,362.36,8,362.36,8s-4.89-.39-6.26-1.68S354.42,0,354.42,0s-.38,4.82-1.67,6.26S346.48,8,346.48,8s4.82.31,6.27,1.67,1.67,6.26,1.67,6.26S354.72,11,356.1,9.64Z"/><path class="cls-2" d="M417.4,255.41s-.38,4.82-1.68,6.26-6.27,1.68-6.27,1.68,4.82.3,6.27,1.67,1.68,6.27,1.68,6.27.31-4.9,1.67-6.27,6.26-1.67,6.26-1.67-4.89-.39-6.26-1.68S417.4,255.41,417.4,255.41Z"/><path class="cls-2" d="M417.4,28.38s-.38,4.82-1.68,6.27-6.27,1.67-6.27,1.67,4.82.31,6.27,1.67,1.68,6.26,1.68,6.26.31-4.88,1.67-6.26,6.26-1.67,6.26-1.67-4.89-.38-6.26-1.67S417.4,28.38,417.4,28.38Z"/><path class="cls-2" d="M419.09,66.4c1.38-1.38,6.26-1.68,6.26-1.68s-4.89-.37-6.26-1.67-1.68-6.27-1.68-6.27-.37,4.82-1.67,6.27-6.27,1.67-6.27,1.67,4.82.31,6.27,1.68,1.67,6.26,1.67,6.26S417.71,67.78,419.09,66.4Z"/><path class="cls-2" d="M417.4,85.14S417,90,415.72,91.4s-6.27,1.67-6.27,1.67,4.82.31,6.27,1.68S417.4,101,417.4,101s.31-4.9,1.67-6.27,6.26-1.68,6.26-1.68-4.89-.38-6.26-1.67S417.4,85.14,417.4,85.14Z"/><path class="cls-2" d="M417.4,141.9s-.38,4.81-1.68,6.26-6.27,1.67-6.27,1.67,4.82.3,6.27,1.67,1.68,6.27,1.68,6.27.31-4.89,1.67-6.27,6.26-1.67,6.26-1.67-4.89-.39-6.26-1.67S417.4,141.9,417.4,141.9Z"/><path class="cls-2" d="M417.4,113.52s-.38,4.81-1.68,6.26-6.27,1.67-6.27,1.67,4.82.3,6.27,1.68,1.68,6.26,1.68,6.26.31-4.89,1.67-6.26,6.26-1.68,6.26-1.68-4.89-.38-6.26-1.67S417.4,113.52,417.4,113.52Z"/><path class="cls-2" d="M385.9,15.9s.31-4.9,1.68-6.26S393.85,8,393.85,8s-4.9-.39-6.27-1.68S385.9,0,385.9,0s-.38,4.82-1.67,6.26S378,8,378,8s4.81.31,6.26,1.67S385.9,15.9,385.9,15.9Z"/><path class="cls-2" d="M417.4,0s-.38,4.82-1.68,6.27-6.27,1.67-6.27,1.67,4.82.31,6.27,1.68,1.68,6.26,1.68,6.26.31-4.9,1.67-6.26,6.26-1.68,6.26-1.68-4.89-.38-6.26-1.67S417.4,0,417.4,0Z"/><path class="cls-2" d="M385.9,44.28s.31-4.89,1.68-6.26,6.27-1.68,6.27-1.68-4.9-.37-6.27-1.67-1.68-6.27-1.68-6.27-.38,4.82-1.67,6.27S378,36.34,378,36.34s4.81.31,6.26,1.68S385.9,44.28,385.9,44.28Z"/><path class="cls-2" d="M448.89,85.14s-.38,4.81-1.67,6.26S441,93.07,441,93.07s4.82.31,6.27,1.68,1.67,6.27,1.67,6.27.31-4.9,1.68-6.27,6.26-1.68,6.26-1.68-4.9-.38-6.26-1.67S448.89,85.14,448.89,85.14Z"/><path class="cls-2" d="M448.89,28.38s-.38,4.82-1.67,6.27S441,36.32,441,36.32s4.82.31,6.27,1.67,1.67,6.26,1.67,6.26.31-4.88,1.68-6.26,6.26-1.67,6.26-1.67-4.9-.38-6.26-1.67S448.89,28.38,448.89,28.38Z"/><path class="cls-2" d="M448.89,0s-.38,4.82-1.67,6.27S441,7.94,441,7.94s4.82.31,6.27,1.68,1.67,6.26,1.67,6.26.31-4.9,1.68-6.26,6.26-1.68,6.26-1.68-4.9-.38-6.26-1.67S448.89,0,448.89,0Z"/><path class="cls-2" d="M385.9,72.66s.31-4.89,1.68-6.26,6.27-1.68,6.27-1.68-4.9-.37-6.27-1.67-1.68-6.27-1.68-6.27-.38,4.82-1.67,6.27S378,64.72,378,64.72s4.81.31,6.26,1.68S385.9,72.66,385.9,72.66Z"/><path class="cls-2" d="M448.89,113.52s-.37,4.81-1.67,6.26-6.27,1.67-6.27,1.67,4.82.3,6.27,1.68,1.67,6.26,1.67,6.26.31-4.89,1.68-6.26,6.26-1.68,6.26-1.68-4.9-.38-6.26-1.67S448.89,113.52,448.89,113.52Z"/><path class="cls-2" d="M417.4,198.65s-.38,4.82-1.68,6.27-6.27,1.67-6.27,1.67,4.82.31,6.27,1.68,1.68,6.26,1.68,6.26.31-4.89,1.67-6.26,6.26-1.68,6.26-1.68-4.89-.37-6.26-1.67S417.4,198.65,417.4,198.65Z"/><path class="cls-2" d="M417.4,227s-.38,4.82-1.68,6.27-6.27,1.67-6.27,1.67,4.82.31,6.27,1.67,1.68,6.26,1.68,6.26.31-4.88,1.67-6.26,6.26-1.67,6.26-1.67-4.89-.38-6.26-1.67S417.4,227,417.4,227Z"/><path class="cls-2" d="M417.4,170.27s-.38,4.82-1.68,6.27-6.27,1.68-6.27,1.68,4.82.31,6.27,1.67,1.68,6.26,1.68,6.26.31-4.9,1.67-6.26,6.26-1.67,6.26-1.67-4.89-.39-6.26-1.68S417.4,170.27,417.4,170.27Z"/><path class="cls-2" d="M354.41,255.41s-.39,4.82-1.68,6.26-6.27,1.68-6.27,1.68,4.82.3,6.27,1.67,1.68,6.27,1.68,6.27.31-4.9,1.67-6.27,6.26-1.67,6.26-1.67-4.89-.39-6.26-1.68S354.41,255.41,354.41,255.41Z"/><path class="cls-2" d="M354.41,141.9s-.39,4.81-1.68,6.26-6.27,1.67-6.27,1.67,4.82.3,6.27,1.67,1.68,6.27,1.68,6.27.31-4.89,1.67-6.27,6.26-1.67,6.26-1.67-4.89-.39-6.26-1.67S354.41,141.9,354.41,141.9Z"/><path class="cls-2" d="M354.41,198.65s-.39,4.82-1.68,6.27-6.27,1.67-6.27,1.67,4.82.31,6.27,1.68,1.68,6.26,1.68,6.26.31-4.89,1.67-6.26,6.26-1.68,6.26-1.68-4.89-.37-6.26-1.67S354.41,198.65,354.41,198.65Z"/><path class="cls-2" d="M354.41,170.27s-.39,4.82-1.68,6.27-6.27,1.68-6.27,1.68,4.82.31,6.27,1.67,1.68,6.26,1.68,6.26.31-4.9,1.67-6.26,6.26-1.67,6.26-1.67-4.89-.39-6.26-1.68S354.41,170.27,354.41,170.27Z"/><path class="cls-2" d="M354.41,28.38s-.39,4.82-1.68,6.27-6.27,1.67-6.27,1.67,4.82.31,6.27,1.67,1.68,6.26,1.68,6.26.31-4.88,1.67-6.26,6.26-1.67,6.26-1.67-4.89-.38-6.26-1.67S354.41,28.38,354.41,28.38Z"/><path class="cls-2" d="M354.41,227s-.39,4.82-1.68,6.27-6.27,1.67-6.27,1.67,4.82.31,6.27,1.67,1.68,6.26,1.68,6.26.31-4.88,1.67-6.26,6.26-1.67,6.26-1.67-4.89-.38-6.26-1.67S354.41,227,354.41,227Z"/><path class="cls-2" d="M356.1,66.4c1.38-1.38,6.26-1.68,6.26-1.68s-4.89-.37-6.26-1.67-1.68-6.27-1.68-6.27-.38,4.82-1.67,6.27-6.27,1.67-6.27,1.67,4.82.31,6.27,1.68,1.67,6.26,1.67,6.26S354.72,67.78,356.1,66.4Z"/><path class="cls-2" d="M354.41,85.14S354,90,352.73,91.4s-6.27,1.67-6.27,1.67,4.82.31,6.27,1.68,1.68,6.27,1.68,6.27.31-4.9,1.67-6.27,6.26-1.68,6.26-1.68-4.89-.38-6.26-1.67S354.41,85.14,354.41,85.14Z"/><path class="cls-2" d="M354.41,113.52s-.39,4.81-1.68,6.26-6.27,1.67-6.27,1.67,4.82.3,6.27,1.68,1.68,6.26,1.68,6.26.31-4.89,1.67-6.26,6.26-1.68,6.26-1.68-4.89-.38-6.26-1.67S354.41,113.52,354.41,113.52Z"/><path class="cls-2" d="M385.9,85.14s-.38,4.81-1.67,6.26S378,93.07,378,93.07s4.81.31,6.26,1.68S385.9,101,385.9,101s.31-4.9,1.68-6.27,6.27-1.68,6.27-1.68-4.9-.38-6.27-1.67S385.9,85.14,385.9,85.14Z"/><path class="cls-2" d="M385.9,255.41s-.38,4.82-1.67,6.26-6.26,1.68-6.26,1.68,4.81.3,6.26,1.67,1.67,6.27,1.67,6.27.31-4.9,1.68-6.27,6.27-1.67,6.27-1.67-4.9-.39-6.27-1.68S385.9,255.41,385.9,255.41Z"/><path class="cls-2" d="M385.9,198.65s-.38,4.82-1.67,6.27-6.26,1.67-6.26,1.67,4.81.31,6.26,1.68,1.67,6.26,1.67,6.26.31-4.89,1.68-6.26,6.27-1.68,6.27-1.68-4.9-.37-6.27-1.67S385.9,198.65,385.9,198.65Z"/><path class="cls-2" d="M385.9,227s-.38,4.82-1.67,6.27S378,235,378,235s4.81.31,6.26,1.67,1.67,6.26,1.67,6.26.31-4.88,1.68-6.26,6.27-1.67,6.27-1.67-4.9-.38-6.27-1.67S385.9,227,385.9,227Z"/><path class="cls-2" d="M385.9,170.27s-.38,4.82-1.67,6.27-6.26,1.68-6.26,1.68,4.81.31,6.26,1.67,1.67,6.26,1.67,6.26.31-4.9,1.68-6.26,6.27-1.67,6.27-1.67-4.9-.39-6.27-1.68S385.9,170.27,385.9,170.27Z"/><path class="cls-2" d="M385.9,141.9s-.38,4.81-1.67,6.26-6.26,1.67-6.26,1.67,4.81.3,6.26,1.67,1.67,6.27,1.67,6.27.31-4.89,1.68-6.27,6.27-1.67,6.27-1.67-4.9-.39-6.27-1.67S385.9,141.9,385.9,141.9Z"/><path class="cls-2" d="M385.9,113.52s-.38,4.81-1.67,6.26-6.26,1.67-6.26,1.67,4.81.3,6.26,1.68,1.67,6.26,1.67,6.26.31-4.89,1.68-6.26,6.27-1.68,6.27-1.68-4.9-.38-6.27-1.67S385.9,113.52,385.9,113.52Z"/><path class="cls-2" d="M196.93,141.9s-.39,4.81-1.68,6.26-6.26,1.67-6.26,1.67,4.82.3,6.26,1.67,1.68,6.27,1.68,6.27.3-4.89,1.67-6.27,6.27-1.67,6.27-1.67-4.9-.39-6.27-1.67S196.93,141.9,196.93,141.9Z"/><path class="cls-2" d="M196.93,170.27s-.39,4.82-1.68,6.27-6.26,1.68-6.26,1.68,4.82.31,6.26,1.67,1.68,6.26,1.68,6.26.3-4.9,1.67-6.26,6.27-1.67,6.27-1.67-4.9-.39-6.27-1.68S196.93,170.27,196.93,170.27Z"/><path class="cls-2" d="M196.93,255.41s-.39,4.82-1.68,6.26-6.26,1.68-6.26,1.68,4.82.3,6.26,1.67,1.68,6.27,1.68,6.27.3-4.9,1.67-6.27,6.27-1.67,6.27-1.67-4.9-.39-6.27-1.68S196.93,255.41,196.93,255.41Z"/><path class="cls-2" d="M196.93,198.65s-.39,4.82-1.68,6.27-6.26,1.67-6.26,1.67,4.82.31,6.26,1.68,1.68,6.26,1.68,6.26.3-4.89,1.67-6.26,6.27-1.68,6.27-1.68-4.9-.37-6.27-1.67S196.93,198.65,196.93,198.65Z"/><path class="cls-2" d="M196.93,28.38s-.39,4.82-1.68,6.27S189,36.32,189,36.32s4.82.31,6.26,1.67,1.68,6.26,1.68,6.26.3-4.88,1.67-6.26,6.27-1.67,6.27-1.67-4.9-.38-6.27-1.67S196.93,28.38,196.93,28.38Z"/><path class="cls-2" d="M196.93,56.76s-.39,4.82-1.68,6.26S189,64.7,189,64.7s4.82.31,6.26,1.67,1.68,6.26,1.68,6.26.3-4.89,1.67-6.26,6.27-1.67,6.27-1.67S200,64.32,198.6,63,196.93,56.76,196.93,56.76Z"/><path class="cls-2" d="M196.93,113.52s-.39,4.81-1.68,6.26-6.26,1.67-6.26,1.67,4.82.3,6.26,1.68,1.68,6.26,1.68,6.26.3-4.89,1.67-6.26,6.27-1.68,6.27-1.68-4.9-.38-6.27-1.67S196.93,113.52,196.93,113.52Z"/><path class="cls-2" d="M196.93,85.14s-.39,4.81-1.68,6.26S189,93.07,189,93.07s4.82.31,6.26,1.68,1.68,6.27,1.68,6.27.3-4.9,1.67-6.27,6.27-1.68,6.27-1.68-4.9-.38-6.27-1.67S196.93,85.14,196.93,85.14Z"/><path class="cls-2" d="M196.93,227s-.39,4.82-1.68,6.27S189,235,189,235s4.82.31,6.26,1.67,1.68,6.26,1.68,6.26.3-4.88,1.67-6.26,6.27-1.67,6.27-1.67-4.9-.38-6.27-1.67S196.93,227,196.93,227Z"/><path class="cls-2" d="M228.46,141.9s-.38,4.81-1.67,6.26-6.26,1.67-6.26,1.67,4.81.3,6.26,1.67,1.67,6.27,1.67,6.27.3-4.89,1.67-6.27,6.27-1.67,6.27-1.67-4.89-.39-6.27-1.67S228.46,141.9,228.46,141.9Z"/><path class="cls-2" d="M228.46,113.52s-.38,4.81-1.67,6.26-6.26,1.67-6.26,1.67,4.81.3,6.26,1.68,1.67,6.26,1.67,6.26.3-4.89,1.67-6.26,6.27-1.68,6.27-1.68-4.89-.38-6.27-1.67S228.46,113.52,228.46,113.52Z"/><path class="cls-2" d="M228.46,85.14s-.38,4.81-1.67,6.26-6.26,1.67-6.26,1.67,4.81.31,6.26,1.68,1.67,6.27,1.67,6.27.3-4.9,1.67-6.27,6.27-1.68,6.27-1.68-4.89-.38-6.27-1.67S228.46,85.14,228.46,85.14Z"/><path class="cls-2" d="M228.46,170.27s-.38,4.82-1.67,6.27-6.26,1.68-6.26,1.68,4.81.31,6.26,1.67,1.67,6.26,1.67,6.26.3-4.9,1.67-6.26,6.27-1.67,6.27-1.67-4.89-.39-6.27-1.68S228.46,170.27,228.46,170.27Z"/><path class="cls-2" d="M228.46,0s-.38,4.82-1.67,6.27-6.26,1.67-6.26,1.67,4.81.31,6.26,1.68,1.67,6.28,1.67,6.28.3-4.9,1.67-6.26S236.4,8,236.4,8s-4.89-.39-6.27-1.68S228.46,0,228.46,0Z"/><path class="cls-2" d="M228.46,56.76s-.38,4.82-1.67,6.26-6.26,1.68-6.26,1.68,4.81.31,6.26,1.67,1.67,6.26,1.67,6.26.3-4.89,1.67-6.26,6.27-1.67,6.27-1.67-4.89-.38-6.27-1.68S228.46,56.76,228.46,56.76Z"/><path class="cls-2" d="M228.46,28.38s-.38,4.82-1.67,6.27-6.26,1.67-6.26,1.67,4.81.31,6.26,1.67,1.67,6.26,1.67,6.26.3-4.88,1.67-6.26,6.27-1.67,6.27-1.67-4.89-.38-6.27-1.67S228.46,28.38,228.46,28.38Z"/><path class="cls-2" d="M133.94,227s-.39,4.82-1.68,6.27S126,235,126,235s4.82.3,6.26,1.67,1.68,6.26,1.68,6.26.3-4.88,1.67-6.26,6.27-1.67,6.27-1.67-4.9-.38-6.27-1.67S133.94,227,133.94,227Z"/><path class="cls-2" d="M165.43,0s-.38,4.82-1.68,6.27-6.26,1.67-6.26,1.67,4.82.31,6.26,1.68,1.68,6.26,1.68,6.26.31-4.9,1.67-6.26,6.26-1.68,6.26-1.68-4.89-.38-6.26-1.67S165.43,0,165.43,0Z"/><path class="cls-2" d="M165.43,56.76s-.38,4.82-1.68,6.26-6.26,1.68-6.26,1.68,4.82.31,6.26,1.67,1.68,6.26,1.68,6.26.31-4.89,1.67-6.26,6.26-1.67,6.26-1.67-4.89-.38-6.26-1.68S165.43,56.76,165.43,56.76Z"/><path class="cls-2" d="M228.46,198.65s-.38,4.82-1.67,6.27-6.26,1.67-6.26,1.67,4.81.31,6.26,1.68,1.67,6.26,1.67,6.26.3-4.89,1.67-6.26,6.27-1.68,6.27-1.68-4.89-.37-6.27-1.67S228.46,198.65,228.46,198.65Z"/><path class="cls-2" d="M165.43,28.38s-.38,4.82-1.68,6.27-6.26,1.67-6.26,1.67,4.82.31,6.26,1.67,1.68,6.26,1.68,6.26.31-4.88,1.67-6.26,6.26-1.67,6.26-1.67-4.89-.38-6.26-1.67S165.43,28.38,165.43,28.38Z"/><path class="cls-2" d="M133.94,170.27s-.39,4.82-1.68,6.27-6.26,1.68-6.26,1.68,4.82.31,6.26,1.67,1.68,6.26,1.68,6.26.3-4.9,1.67-6.26,6.27-1.67,6.27-1.67-4.9-.39-6.27-1.68S133.94,170.27,133.94,170.27Z"/><path class="cls-2" d="M133.94,255.41s-.39,4.82-1.68,6.26-6.26,1.68-6.26,1.68,4.82.3,6.26,1.67,1.68,6.27,1.68,6.27.3-4.9,1.67-6.27,6.27-1.67,6.27-1.67-4.9-.39-6.27-1.68S133.94,255.41,133.94,255.41Z"/><path class="cls-2" d="M133.94,198.65s-.39,4.82-1.68,6.27-6.26,1.67-6.26,1.67,4.82.31,6.26,1.68,1.68,6.26,1.68,6.26.3-4.89,1.67-6.26,6.27-1.68,6.27-1.68-4.9-.37-6.27-1.67S133.94,198.65,133.94,198.65Z"/><path class="cls-2" d="M165.43,255.41s-.38,4.82-1.68,6.26-6.26,1.68-6.26,1.68,4.82.3,6.26,1.67,1.68,6.27,1.68,6.27.31-4.9,1.67-6.27,6.26-1.67,6.26-1.67-4.89-.39-6.26-1.68S165.43,255.41,165.43,255.41Z"/><path class="cls-2" d="M196.93,0s-.39,4.82-1.68,6.27S189,7.94,189,7.94s4.82.31,6.26,1.68,1.68,6.26,1.68,6.26.3-4.9,1.67-6.26,6.27-1.68,6.27-1.68-4.9-.38-6.27-1.67S196.93,0,196.93,0Z"/><path class="cls-2" d="M165.43,198.65s-.38,4.82-1.68,6.27-6.26,1.67-6.26,1.67,4.82.31,6.26,1.68,1.68,6.26,1.68,6.26.31-4.89,1.67-6.26,6.26-1.68,6.26-1.68-4.89-.37-6.26-1.67S165.43,198.65,165.43,198.65Z"/><path class="cls-2" d="M165.43,227s-.38,4.82-1.68,6.27-6.26,1.67-6.26,1.67,4.82.31,6.26,1.67,1.68,6.26,1.68,6.26.31-4.88,1.67-6.26,6.26-1.67,6.26-1.67-4.89-.38-6.26-1.67S165.43,227,165.43,227Z"/><path class="cls-2" d="M165.43,85.14s-.38,4.81-1.68,6.26-6.26,1.67-6.26,1.67,4.82.31,6.26,1.68,1.68,6.27,1.68,6.27.31-4.9,1.67-6.27,6.26-1.68,6.26-1.68-4.89-.38-6.26-1.67S165.43,85.14,165.43,85.14Z"/><path class="cls-2" d="M165.43,113.52s-.38,4.81-1.68,6.26-6.26,1.67-6.26,1.67,4.82.3,6.26,1.68,1.68,6.26,1.68,6.26.31-4.89,1.67-6.26,6.26-1.68,6.26-1.68-4.89-.38-6.26-1.67S165.43,113.52,165.43,113.52Z"/><path class="cls-2" d="M165.43,170.27s-.38,4.82-1.68,6.27-6.26,1.68-6.26,1.68,4.82.31,6.26,1.67,1.68,6.26,1.68,6.26.31-4.9,1.67-6.26,6.26-1.67,6.26-1.67-4.89-.39-6.26-1.68S165.43,170.27,165.43,170.27Z"/><path class="cls-2" d="M165.43,141.9s-.38,4.81-1.68,6.26-6.26,1.67-6.26,1.67,4.82.3,6.26,1.67,1.68,6.27,1.68,6.27.31-4.89,1.67-6.27,6.26-1.67,6.26-1.67-4.89-.39-6.26-1.67S165.43,141.9,165.43,141.9Z"/><path class="cls-2" d="M228.46,227s-.38,4.82-1.67,6.27-6.26,1.67-6.26,1.67,4.81.31,6.26,1.67,1.67,6.26,1.67,6.26.3-4.88,1.67-6.26S236.4,235,236.4,235s-4.89-.38-6.27-1.67S228.46,227,228.46,227Z"/><path class="cls-2" d="M291.42,227s-.39,4.82-1.68,6.27-6.26,1.67-6.26,1.67,4.81.31,6.26,1.67,1.68,6.26,1.68,6.26.3-4.88,1.67-6.26,6.27-1.67,6.27-1.67-4.9-.38-6.27-1.67S291.42,227,291.42,227Z"/><path class="cls-2" d="M291.42,170.27s-.39,4.82-1.68,6.27-6.26,1.68-6.26,1.68,4.81.31,6.26,1.67,1.68,6.26,1.68,6.26.3-4.9,1.67-6.26,6.27-1.67,6.27-1.67-4.9-.39-6.27-1.68S291.42,170.27,291.42,170.27Z"/><path class="cls-2" d="M291.42,113.52s-.39,4.81-1.68,6.26-6.26,1.67-6.26,1.67,4.81.3,6.26,1.68,1.68,6.26,1.68,6.26.3-4.89,1.67-6.26,6.27-1.68,6.27-1.68-4.9-.38-6.27-1.67S291.42,113.52,291.42,113.52Z"/><path class="cls-2" d="M291.42,255.41s-.39,4.82-1.68,6.26-6.26,1.68-6.26,1.68,4.81.3,6.26,1.67,1.68,6.27,1.68,6.27.3-4.9,1.67-6.27,6.27-1.67,6.27-1.67-4.9-.39-6.27-1.68S291.42,255.41,291.42,255.41Z"/><path class="cls-2" d="M291.42,198.65s-.39,4.82-1.68,6.27-6.26,1.67-6.26,1.67,4.81.31,6.26,1.68,1.68,6.26,1.68,6.26.3-4.89,1.67-6.26,6.27-1.68,6.27-1.68-4.9-.37-6.27-1.67S291.42,198.65,291.42,198.65Z"/><path class="cls-2" d="M291.42,141.9s-.39,4.81-1.68,6.26-6.26,1.67-6.26,1.67,4.81.3,6.26,1.67,1.68,6.27,1.68,6.27.3-4.89,1.67-6.27,6.27-1.67,6.27-1.67-4.9-.39-6.27-1.67S291.42,141.9,291.42,141.9Z"/><path class="cls-2" d="M259.92,28.38s-.38,4.82-1.68,6.27S252,36.32,252,36.32s4.82.31,6.26,1.67,1.68,6.26,1.68,6.26.31-4.88,1.67-6.26,6.26-1.67,6.26-1.67-4.89-.38-6.26-1.67S259.92,28.38,259.92,28.38Z"/><path class="cls-2" d="M259.92,56.76s-.38,4.82-1.68,6.26S252,64.7,252,64.7s4.82.31,6.26,1.67,1.68,6.26,1.68,6.26.31-4.89,1.67-6.26,6.26-1.67,6.26-1.67S263,64.32,261.59,63,259.92,56.76,259.92,56.76Z"/><path class="cls-2" d="M259.92,85.14s-.38,4.81-1.68,6.26S252,93.07,252,93.07s4.82.31,6.26,1.68,1.68,6.27,1.68,6.27.31-4.9,1.67-6.27,6.26-1.68,6.26-1.68-4.89-.38-6.26-1.67S259.92,85.14,259.92,85.14Z"/><path class="cls-2" d="M259.92,113.52s-.38,4.81-1.68,6.26-6.26,1.67-6.26,1.67,4.82.3,6.26,1.68,1.68,6.26,1.68,6.26.31-4.89,1.67-6.26,6.26-1.68,6.26-1.68-4.89-.38-6.26-1.67S259.92,113.52,259.92,113.52Z"/><path class="cls-2" d="M291.42,85.14S291,90,289.74,91.4s-6.26,1.67-6.26,1.67,4.81.31,6.26,1.68,1.68,6.27,1.68,6.27.3-4.9,1.67-6.27,6.27-1.68,6.27-1.68-4.9-.38-6.27-1.67S291.42,85.14,291.42,85.14Z"/><path class="cls-2" d="M133.94,141.9s-.39,4.81-1.68,6.26-6.26,1.67-6.26,1.67,4.82.31,6.26,1.67,1.68,6.26,1.68,6.26.3-4.89,1.67-6.26,6.27-1.67,6.27-1.67-4.9-.39-6.27-1.67S133.94,141.9,133.94,141.9Z"/><path class="cls-2" d="M259.92,0s-.38,4.82-1.68,6.27S252,7.94,252,7.94s4.82.31,6.26,1.68,1.68,6.26,1.68,6.26.31-4.9,1.67-6.26,6.26-1.68,6.26-1.68-4.89-.38-6.26-1.67S259.92,0,259.92,0Z"/><path class="cls-2" d="M259.92,141.9s-.38,4.81-1.68,6.26-6.26,1.67-6.26,1.67,4.82.3,6.26,1.67,1.68,6.27,1.68,6.27.31-4.89,1.67-6.27,6.26-1.67,6.26-1.67-4.89-.39-6.26-1.67S259.92,141.9,259.92,141.9Z"/><path class="cls-2" d="M228.46,255.41s-.38,4.82-1.67,6.26-6.26,1.68-6.26,1.68,4.81.3,6.26,1.67,1.67,6.27,1.67,6.27.3-4.9,1.67-6.27,6.27-1.67,6.27-1.67-4.89-.39-6.27-1.68S228.46,255.41,228.46,255.41Z"/><path class="cls-2" d="M291.42,0s-.39,4.82-1.68,6.27-6.26,1.67-6.26,1.67,4.81.31,6.26,1.68,1.68,6.26,1.68,6.26.3-4.9,1.67-6.26,6.27-1.68,6.27-1.68-4.9-.38-6.27-1.67S291.42,0,291.42,0Z"/><path class="cls-2" d="M291.42,28.38s-.39,4.82-1.68,6.27-6.26,1.67-6.26,1.67,4.81.31,6.26,1.67,1.68,6.26,1.68,6.26.3-4.88,1.67-6.26,6.27-1.67,6.27-1.67-4.9-.38-6.27-1.67S291.42,28.38,291.42,28.38Z"/><path class="cls-2" d="M259.92,170.27s-.38,4.82-1.68,6.27-6.26,1.68-6.26,1.68,4.82.31,6.26,1.67,1.68,6.26,1.68,6.26.31-4.9,1.67-6.26,6.26-1.67,6.26-1.67-4.89-.39-6.26-1.68S259.92,170.27,259.92,170.27Z"/><path class="cls-2" d="M291.42,56.76S291,61.58,289.74,63s-6.26,1.68-6.26,1.68,4.81.31,6.26,1.67,1.68,6.26,1.68,6.26.3-4.89,1.67-6.26,6.27-1.67,6.27-1.67-4.9-.38-6.27-1.68S291.42,56.76,291.42,56.76Z"/><path class="cls-2" d="M259.92,198.65s-.38,4.82-1.68,6.27-6.26,1.67-6.26,1.67,4.82.31,6.26,1.68,1.68,6.26,1.68,6.26.31-4.89,1.67-6.26,6.26-1.68,6.26-1.68-4.89-.37-6.26-1.67S259.92,198.65,259.92,198.65Z"/><path class="cls-2" d="M259.92,255.41s-.38,4.82-1.68,6.26-6.26,1.68-6.26,1.68,4.82.3,6.26,1.67,1.68,6.27,1.68,6.27.31-4.9,1.67-6.27,6.26-1.67,6.26-1.67-4.89-.39-6.26-1.68S259.92,255.41,259.92,255.41Z"/><path class="cls-2" d="M259.92,227s-.38,4.82-1.68,6.27S252,235,252,235s4.82.31,6.26,1.67,1.68,6.26,1.68,6.26.31-4.88,1.67-6.26,6.26-1.67,6.26-1.67-4.89-.38-6.26-1.67S259.92,227,259.92,227Z"/><path class="cls-2" d="M135.62,66.4c1.38-1.38,6.27-1.68,6.27-1.68s-4.9-.37-6.27-1.67S134,56.78,134,56.78s-.39,4.82-1.68,6.27S126,64.72,126,64.72s4.81.31,6.26,1.68S134,72.66,134,72.66,134.24,67.78,135.62,66.4Z"/><path class="cls-2" d="M8,141.9s-.38,4.81-1.67,6.26S0,149.83,0,149.83s4.82.3,6.27,1.67S8,157.77,8,157.77s.31-4.89,1.67-6.27,6.26-1.67,6.26-1.67-4.89-.39-6.26-1.67S8,141.9,8,141.9Z"/><path class="cls-2" d="M8,113.52s-.38,4.81-1.67,6.26S0,121.45,0,121.45s4.82.3,6.27,1.68S8,129.39,8,129.39s.31-4.89,1.67-6.26,6.26-1.68,6.26-1.68-4.88-.38-6.26-1.67S8,113.52,8,113.52Z"/><path class="cls-2" d="M8,227s-.38,4.82-1.67,6.27S0,235,0,235s4.82.31,6.27,1.67S8,242.9,8,242.9s.31-4.88,1.67-6.26S15.88,235,15.88,235s-4.89-.38-6.26-1.67S8,227,8,227Z"/><path class="cls-2" d="M8,170.27s-.38,4.82-1.67,6.27S0,178.25,0,178.25s4.82.31,6.27,1.67,1.67,6.26,1.67,6.26.31-4.89,1.68-6.26,6.28-1.67,6.28-1.67-4.9-.39-6.26-1.67S8,170.27,8,170.27Z"/><path class="cls-2" d="M8,72.66s.31-4.89,1.67-6.26,6.26-1.68,6.26-1.68S11,64.35,9.62,63.05,8,56.78,8,56.78s-.38,4.82-1.67,6.27S0,64.72,0,64.72,4.83,65,6.28,66.4,8,72.66,8,72.66Z"/><path class="cls-2" d="M9.64,34.65C8.27,33.34,8,28.38,8,28.38s-.39,4.82-1.68,6.27S0,36.32,0,36.32s4.82.31,6.26,1.67S8,44.25,8,44.25,8.28,39.37,9.64,38s6.26-1.67,6.26-1.67S11,36,9.64,34.65Z"/><path class="cls-2" d="M6.27,94.77C7.72,96.15,7.94,101,7.94,101s.31-4.89,1.68-6.27,6.26-1.67,6.26-1.67-4.9-.39-6.26-1.67-1.68-6.26-1.68-6.26S7.56,90,6.27,91.43,0,93.1,0,93.1,4.82,93.39,6.27,94.77Z"/><path class="cls-2" d="M8,15.9S8.26,11,9.62,9.64,15.9,8,15.9,8,11,7.57,9.64,6.28,8,0,8,0,7.53,4.82,6.27,6.27,0,8,0,8s4.82.31,6.27,1.67S8,15.9,8,15.9Z"/><path class="cls-2" d="M8,198.65s-.38,4.82-1.67,6.27S0,206.59,0,206.59s4.82.31,6.27,1.68S8,214.53,8,214.53s.31-4.89,1.67-6.26,6.26-1.68,6.26-1.68-4.89-.37-6.26-1.67S8,198.65,8,198.65Z"/><path class="cls-2" d="M8,255.41s-.38,4.82-1.67,6.26S0,263.35,0,263.35s4.82.3,6.27,1.67S8,271.29,8,271.29s.31-4.9,1.67-6.27,6.26-1.67,6.26-1.67S11,263,9.62,261.67,8,255.41,8,255.41Z"/><path class="cls-2" d="M41.13,9.64C42.51,8.27,47.4,8,47.4,8s-4.9-.39-6.27-1.68S39.46,0,39.46,0s-.39,4.82-1.68,6.26S31.52,8,31.52,8s4.82.31,6.26,1.67,1.68,6.26,1.68,6.26S39.75,11,41.13,9.64Z"/><path class="cls-2" d="M102.44,255.41s-.39,4.82-1.67,6.26-6.26,1.68-6.26,1.68,4.82.3,6.26,1.67,1.67,6.27,1.67,6.27.31-4.9,1.67-6.27,6.26-1.67,6.26-1.67-4.89-.39-6.26-1.68S102.44,255.41,102.44,255.41Z"/><path class="cls-2" d="M102.44,28.38s-.39,4.82-1.67,6.27-6.26,1.67-6.26,1.67,4.82.31,6.26,1.67,1.67,6.26,1.67,6.26.31-4.88,1.67-6.26,6.26-1.67,6.26-1.67-4.89-.38-6.26-1.67S102.44,28.38,102.44,28.38Z"/><path class="cls-2" d="M104.13,66.4c1.37-1.38,6.26-1.68,6.26-1.68s-4.9-.37-6.26-1.67-1.67-6.27-1.67-6.27-.39,4.82-1.68,6.27-6.26,1.67-6.26,1.67,4.82.31,6.26,1.68,1.68,6.26,1.68,6.26S102.74,67.78,104.13,66.4Z"/><path class="cls-2" d="M102.44,85.14s-.39,4.81-1.67,6.26-6.26,1.67-6.26,1.67,4.82.31,6.26,1.68,1.67,6.27,1.67,6.27.31-4.9,1.67-6.27,6.26-1.68,6.26-1.68-4.89-.38-6.26-1.67S102.44,85.14,102.44,85.14Z"/><path class="cls-2" d="M102.44,141.9s-.39,4.81-1.67,6.26-6.26,1.67-6.26,1.67,4.82.3,6.26,1.67,1.67,6.27,1.67,6.27.31-4.89,1.67-6.27,6.26-1.67,6.26-1.67-4.89-.39-6.26-1.67S102.44,141.9,102.44,141.9Z"/><path class="cls-2" d="M102.44,113.52s-.39,4.81-1.67,6.26-6.26,1.67-6.26,1.67,4.82.3,6.26,1.68,1.67,6.26,1.67,6.26.31-4.89,1.67-6.26,6.26-1.68,6.26-1.68-4.89-.38-6.26-1.67S102.44,113.52,102.44,113.52Z"/><path class="cls-2" d="M70.94,15.9s.31-4.9,1.67-6.26S78.87,8,78.87,8,74,7.58,72.61,6.29,70.94,0,70.94,0s-.38,4.82-1.67,6.26S63,8,63,8s4.82.31,6.27,1.67S70.94,15.9,70.94,15.9Z"/><path class="cls-2" d="M102.44,0s-.39,4.82-1.67,6.27-6.26,1.67-6.26,1.67,4.82.31,6.26,1.68,1.67,6.26,1.67,6.26.31-4.9,1.67-6.26,6.26-1.68,6.26-1.68-4.89-.38-6.26-1.67S102.44,0,102.44,0Z"/><path class="cls-2" d="M70.94,44.28s.31-4.89,1.67-6.26,6.26-1.68,6.26-1.68S74,36,72.61,34.67s-1.67-6.27-1.67-6.27-.38,4.82-1.67,6.27S63,36.34,63,36.34s4.82.31,6.27,1.68S70.94,44.28,70.94,44.28Z"/><path class="cls-2" d="M133.94,85.14s-.39,4.81-1.68,6.26S126,93.07,126,93.07s4.82.31,6.26,1.68,1.68,6.27,1.68,6.27.3-4.9,1.67-6.27,6.27-1.68,6.27-1.68-4.9-.38-6.27-1.67S133.94,85.14,133.94,85.14Z"/><path class="cls-2" d="M133.94,28.38s-.39,4.82-1.68,6.27S126,36.32,126,36.32s4.82.31,6.26,1.67,1.68,6.26,1.68,6.26.3-4.88,1.67-6.26,6.27-1.67,6.27-1.67-4.9-.38-6.27-1.67S133.94,28.38,133.94,28.38Z"/><path class="cls-2" d="M133.94,0s-.39,4.82-1.68,6.27S126,7.94,126,7.94s4.82.31,6.26,1.68,1.68,6.26,1.68,6.26.3-4.9,1.67-6.26,6.27-1.68,6.27-1.68-4.9-.38-6.27-1.67S133.94,0,133.94,0Z"/><path class="cls-2" d="M70.94,72.66s.31-4.89,1.67-6.26,6.26-1.68,6.26-1.68-4.88-.37-6.26-1.67-1.67-6.27-1.67-6.27-.38,4.82-1.67,6.27S63,64.72,63,64.72s4.82.31,6.27,1.68S70.94,72.66,70.94,72.66Z"/><path class="cls-2" d="M133.94,113.52s-.39,4.81-1.68,6.26-6.26,1.67-6.26,1.67,4.82.3,6.26,1.68,1.68,6.26,1.68,6.26.3-4.89,1.67-6.26,6.27-1.68,6.27-1.68-4.9-.38-6.27-1.67S133.94,113.52,133.94,113.52Z"/><path class="cls-2" d="M102.44,198.65s-.39,4.82-1.67,6.27-6.26,1.67-6.26,1.67,4.82.31,6.26,1.68,1.67,6.26,1.67,6.26.31-4.89,1.67-6.26,6.26-1.68,6.26-1.68-4.89-.37-6.26-1.67S102.44,198.65,102.44,198.65Z"/><path class="cls-2" d="M102.44,227s-.39,4.82-1.67,6.27S94.51,235,94.51,235s4.82.31,6.26,1.67,1.67,6.26,1.67,6.26.31-4.88,1.67-6.26,6.26-1.67,6.26-1.67-4.89-.38-6.26-1.67S102.44,227,102.44,227Z"/><path class="cls-2" d="M102.44,170.27s-.39,4.82-1.67,6.27-6.26,1.68-6.26,1.68,4.82.31,6.26,1.67,1.67,6.26,1.67,6.26.31-4.9,1.67-6.26,6.26-1.67,6.26-1.67-4.89-.39-6.26-1.68S102.44,170.27,102.44,170.27Z"/><path class="cls-2" d="M39.45,255.41s-.39,4.82-1.67,6.26-6.26,1.68-6.26,1.68,4.81.3,6.26,1.67,1.67,6.27,1.67,6.27.3-4.9,1.67-6.27,6.27-1.67,6.27-1.67-4.89-.39-6.27-1.68S39.45,255.41,39.45,255.41Z"/><path class="cls-2" d="M39.45,141.9s-.39,4.81-1.67,6.26-6.26,1.67-6.26,1.67,4.81.3,6.26,1.67,1.67,6.27,1.67,6.27.3-4.89,1.67-6.27,6.27-1.67,6.27-1.67-4.89-.39-6.27-1.67S39.45,141.9,39.45,141.9Z"/><path class="cls-2" d="M39.45,198.65s-.39,4.82-1.67,6.27-6.26,1.67-6.26,1.67,4.81.31,6.26,1.68,1.67,6.26,1.67,6.26.3-4.89,1.67-6.26,6.27-1.68,6.27-1.68-4.89-.37-6.27-1.67S39.45,198.65,39.45,198.65Z"/><path class="cls-2" d="M39.45,170.27s-.39,4.82-1.67,6.27-6.26,1.68-6.26,1.68,4.81.31,6.26,1.67,1.67,6.26,1.67,6.26.3-4.9,1.67-6.26,6.27-1.67,6.27-1.67-4.89-.39-6.27-1.68S39.45,170.27,39.45,170.27Z"/><path class="cls-2" d="M39.45,28.38s-.39,4.82-1.67,6.27-6.26,1.67-6.26,1.67,4.81.31,6.26,1.67,1.67,6.26,1.67,6.26.3-4.88,1.67-6.26,6.27-1.67,6.27-1.67-4.89-.38-6.27-1.67S39.45,28.38,39.45,28.38Z"/><path class="cls-2" d="M39.45,227s-.39,4.82-1.67,6.27S31.52,235,31.52,235s4.81.31,6.26,1.67,1.67,6.26,1.67,6.26.3-4.88,1.67-6.26S47.39,235,47.39,235s-4.89-.38-6.27-1.67S39.45,227,39.45,227Z"/><path class="cls-2" d="M41.13,66.4c1.38-1.38,6.27-1.68,6.27-1.68s-4.9-.37-6.27-1.67-1.67-6.27-1.67-6.27-.39,4.82-1.68,6.27-6.26,1.67-6.26,1.67,4.82.31,6.26,1.68,1.68,6.26,1.68,6.26S39.75,67.78,41.13,66.4Z"/><path class="cls-2" d="M39.45,85.14S39.06,90,37.78,91.4s-6.26,1.67-6.26,1.67,4.81.31,6.26,1.68S39.45,101,39.45,101s.3-4.9,1.67-6.27,6.27-1.68,6.27-1.68-4.89-.38-6.27-1.67S39.45,85.14,39.45,85.14Z"/><path class="cls-2" d="M39.45,113.52s-.39,4.81-1.67,6.26-6.26,1.67-6.26,1.67,4.81.3,6.26,1.68,1.67,6.26,1.67,6.26.3-4.89,1.67-6.26,6.27-1.68,6.27-1.68-4.89-.38-6.27-1.67S39.45,113.52,39.45,113.52Z"/><path class="cls-2" d="M70.94,85.14S70.56,90,69.27,91.4,63,93.07,63,93.07s4.82.31,6.27,1.68S70.94,101,70.94,101s.31-4.9,1.67-6.27,6.26-1.68,6.26-1.68S74,92.69,72.61,91.4,70.94,85.14,70.94,85.14Z"/><path class="cls-2" d="M70.94,255.41s-.38,4.82-1.67,6.26S63,263.35,63,263.35s4.82.3,6.27,1.67,1.67,6.27,1.67,6.27.31-4.9,1.67-6.27,6.26-1.67,6.26-1.67S74,263,72.61,261.67,70.94,255.41,70.94,255.41Z"/><path class="cls-2" d="M70.94,198.65s-.38,4.82-1.67,6.27S63,206.59,63,206.59s4.82.31,6.27,1.68,1.67,6.26,1.67,6.26.31-4.89,1.67-6.26,6.26-1.68,6.26-1.68-4.88-.37-6.26-1.67S70.94,198.65,70.94,198.65Z"/><path class="cls-2" d="M70.94,227s-.38,4.82-1.67,6.27S63,235,63,235s4.82.31,6.27,1.67,1.67,6.26,1.67,6.26.31-4.88,1.67-6.26S78.87,235,78.87,235s-4.88-.38-6.26-1.67S70.94,227,70.94,227Z"/><path class="cls-2" d="M70.94,170.27s-.38,4.82-1.67,6.27S63,178.22,63,178.22s4.82.31,6.27,1.67,1.67,6.26,1.67,6.26.31-4.9,1.67-6.26,6.26-1.67,6.26-1.67-4.88-.39-6.26-1.68S70.94,170.27,70.94,170.27Z"/><path class="cls-2" d="M70.94,141.9s-.38,4.81-1.67,6.26S63,149.83,63,149.83s4.82.3,6.27,1.67,1.67,6.27,1.67,6.27.31-4.89,1.67-6.27,6.26-1.67,6.26-1.67-4.88-.39-6.26-1.67S70.94,141.9,70.94,141.9Z"/><path class="cls-2" d="M70.94,113.52s-.38,4.81-1.67,6.26S63,121.45,63,121.45s4.82.3,6.27,1.68,1.67,6.26,1.67,6.26.31-4.89,1.67-6.26,6.26-1.68,6.26-1.68-4.88-.38-6.26-1.67S70.94,113.52,70.94,113.52Z"/></g></g></g></g></svg>