<svg xmlns="http://www.w3.org/2000/svg" viewBox="0 0 734.09 324.21"><defs><style>.cls-1{fill:#fff;}</style></defs><g id="Layer_2" data-name="Layer 2"><g id="Layer_1-2" data-name="Layer 1"><path class="cls-1" d="M611.68,169.56s-.45,5.75-2,7.48-7.49,2-7.49,2,5.76.36,7.49,2,2,7.49,2,7.49.37-5.85,2-7.49,7.48-2,7.48-2-5.84-.46-7.48-2S611.68,169.56,611.68,169.56Z"/><path class="cls-1" d="M611.68,203.47s-.45,5.76-2,7.49-7.49,2-7.49,2,5.76.37,7.49,2,2,7.48,2,7.48.37-5.85,2-7.48,7.48-2,7.48-2-5.84-.46-7.48-2S611.68,203.47,611.68,203.47Z"/><path class="cls-1" d="M611.68,305.21s-.45,5.75-2,7.48-7.49,2-7.49,2,5.76.36,7.49,2,2,7.49,2,7.49.37-5.85,2-7.49,7.48-2,7.48-2-5.84-.46-7.48-2S611.68,305.21,611.68,305.21Z"/><path class="cls-1" d="M611.68,237.38s-.45,5.76-2,7.49-7.49,2-7.49,2,5.76.37,7.49,2,2,7.48,2,7.48.37-5.84,2-7.48,7.48-2,7.48-2-5.84-.45-7.48-2S611.68,237.38,611.68,237.38Z"/><path class="cls-1" d="M611.68,33.91s-.45,5.76-2,7.49-7.49,2-7.49,2,5.76.37,7.49,2,2,7.48,2,7.48.37-5.84,2-7.48,7.48-2,7.48-2-5.84-.45-7.48-2S611.68,33.91,611.68,33.91Z"/><path class="cls-1" d="M611.68,67.82s-.45,5.76-2,7.49-7.49,2-7.49,2,5.76.37,7.49,2,2,7.48,2,7.48.37-5.84,2-7.48,7.48-2,7.48-2-5.84-.45-7.48-2S611.68,67.82,611.68,67.82Z"/><path class="cls-1" d="M611.68,135.65s-.45,5.75-2,7.48-7.49,2-7.49,2,5.76.36,7.49,2,2,7.49,2,7.49.37-5.85,2-7.49,7.48-2,7.48-2-5.84-.46-7.48-2S611.68,135.65,611.68,135.65Z"/><path class="cls-1" d="M611.68,101.74s-.45,5.75-2,7.48-7.49,2-7.49,2,5.76.36,7.49,2,2,7.49,2,7.49.37-5.85,2-7.49,7.48-2,7.48-2-5.84-.46-7.48-2S611.68,101.74,611.68,101.74Z"/><path class="cls-1" d="M611.68,271.29s-.45,5.76-2,7.49-7.49,2-7.49,2,5.76.37,7.49,2,2,7.48,2,7.48.37-5.84,2-7.48,7.48-2,7.48-2-5.84-.45-7.48-2S611.68,271.29,611.68,271.29Z"/><path class="cls-1" d="M649.32,169.56s-.46,5.75-2,7.48-7.48,2-7.48,2,5.76.36,7.48,2,2,7.49,2,7.49.36-5.85,2-7.49,7.49-2,7.49-2-5.85-.46-7.49-2S649.32,169.56,649.32,169.56Z"/><path class="cls-1" d="M649.32,135.65s-.46,5.75-2,7.48-7.48,2-7.48,2,5.76.36,7.48,2,2,7.49,2,7.49.36-5.85,2-7.49,7.49-2,7.49-2-5.85-.46-7.49-2S649.32,135.65,649.32,135.65Z"/><path class="cls-1" d="M649.32,101.74s-.46,5.75-2,7.48-7.48,2-7.48,2,5.76.36,7.48,2,2,7.49,2,7.49.36-5.85,2-7.49,7.49-2,7.49-2-5.85-.46-7.49-2S649.32,101.74,649.32,101.74Z"/><path class="cls-1" d="M649.32,203.47s-.46,5.76-2,7.49-7.48,2-7.48,2,5.76.37,7.48,2,2,7.48,2,7.48.36-5.85,2-7.48,7.49-2,7.49-2-5.85-.46-7.49-2S649.32,203.47,649.32,203.47Z"/><path class="cls-1" d="M649.32,0s-.46,5.76-2,7.49-7.48,2-7.48,2,5.76.37,7.48,2,2,7.48,2,7.48.36-5.85,2-7.48,7.49-2,7.49-2-5.85-.46-7.49-2S649.32,0,649.32,0Z"/><path class="cls-1" d="M649.32,67.82s-.46,5.76-2,7.49-7.48,2-7.48,2,5.76.37,7.48,2,2,7.48,2,7.48.36-5.84,2-7.48,7.49-2,7.49-2-5.85-.45-7.49-2S649.32,67.82,649.32,67.82Z"/><path class="cls-1" d="M649.32,33.91s-.46,5.76-2,7.49-7.48,2-7.48,2,5.76.37,7.48,2,2,7.48,2,7.48.36-5.84,2-7.48,7.49-2,7.49-2-5.85-.45-7.49-2S649.32,33.91,649.32,33.91Z"/><path class="cls-1" d="M536.41,271.29s-.46,5.76-2,7.49-7.49,2-7.49,2,5.76.36,7.49,2,2,7.48,2,7.48.37-5.84,2-7.48,7.48-2,7.48-2-5.85-.46-7.48-2S536.41,271.29,536.41,271.29Z"/><path class="cls-1" d="M574.05,0s-.46,5.76-2,7.49-7.48,2-7.48,2,5.75.37,7.48,2,2,7.48,2,7.48.36-5.85,2-7.48,7.49-2,7.49-2-5.85-.46-7.49-2S574.05,0,574.05,0Z"/><path class="cls-1" d="M574.05,67.82s-.46,5.76-2,7.49-7.48,2-7.48,2,5.75.37,7.48,2,2,7.48,2,7.48.36-5.84,2-7.48,7.49-2,7.49-2-5.85-.45-7.49-2S574.05,67.82,574.05,67.82Z"/><path class="cls-1" d="M649.32,237.38s-.46,5.76-2,7.49-7.48,2-7.48,2,5.76.37,7.48,2,2,7.48,2,7.48.36-5.84,2-7.48,7.49-2,7.49-2-5.85-.45-7.49-2S649.32,237.38,649.32,237.38Z"/><path class="cls-1" d="M574.05,33.91s-.46,5.76-2,7.49-7.48,2-7.48,2,5.75.37,7.48,2,2,7.48,2,7.48.36-5.84,2-7.48,7.49-2,7.49-2-5.85-.45-7.49-2S574.05,33.91,574.05,33.91Z"/><path class="cls-1" d="M536.41,203.47s-.46,5.76-2,7.49-7.49,2-7.49,2,5.76.37,7.49,2,2,7.48,2,7.48.37-5.85,2-7.48,7.48-2,7.48-2-5.85-.46-7.48-2S536.41,203.47,536.41,203.47Z"/><path class="cls-1" d="M536.41,305.21s-.46,5.75-2,7.48-7.49,2-7.49,2,5.76.36,7.49,2,2,7.49,2,7.49.37-5.85,2-7.49,7.48-2,7.48-2-5.85-.46-7.48-2S536.41,305.21,536.41,305.21Z"/><path class="cls-1" d="M536.41,237.38s-.46,5.76-2,7.49-7.49,2-7.49,2,5.76.37,7.49,2,2,7.48,2,7.48.37-5.84,2-7.48,7.48-2,7.48-2-5.85-.45-7.48-2S536.41,237.38,536.41,237.38Z"/><path class="cls-1" d="M574.05,305.21s-.46,5.75-2,7.48-7.48,2-7.48,2,5.75.36,7.48,2,2,7.49,2,7.49.36-5.85,2-7.49,7.49-2,7.49-2-5.85-.46-7.49-2S574.05,305.21,574.05,305.21Z"/><path class="cls-1" d="M611.68,0s-.45,5.76-2,7.49-7.49,2-7.49,2,5.76.37,7.49,2,2,7.48,2,7.48.37-5.85,2-7.48,7.48-2,7.48-2-5.84-.46-7.48-2S611.68,0,611.68,0Z"/><path class="cls-1" d="M574.05,237.38s-.46,5.76-2,7.49-7.48,2-7.48,2,5.75.37,7.48,2,2,7.48,2,7.48.36-5.84,2-7.48,7.49-2,7.49-2-5.85-.45-7.49-2S574.05,237.38,574.05,237.38Z"/><path class="cls-1" d="M574.05,271.29s-.46,5.76-2,7.49-7.48,2-7.48,2,5.75.37,7.48,2,2,7.48,2,7.48.36-5.84,2-7.48,7.49-2,7.49-2-5.85-.45-7.49-2S574.05,271.29,574.05,271.29Z"/><path class="cls-1" d="M574.05,101.74s-.46,5.75-2,7.48-7.48,2-7.48,2,5.75.36,7.48,2,2,7.49,2,7.49.36-5.85,2-7.49,7.49-2,7.49-2-5.85-.46-7.49-2S574.05,101.74,574.05,101.74Z"/><path class="cls-1" d="M574.05,135.65s-.46,5.75-2,7.48-7.48,2-7.48,2,5.75.36,7.48,2,2,7.49,2,7.49.36-5.85,2-7.49,7.49-2,7.49-2-5.85-.46-7.49-2S574.05,135.65,574.05,135.65Z"/><path class="cls-1" d="M574.05,203.47s-.46,5.76-2,7.49-7.48,2-7.48,2,5.75.37,7.48,2,2,7.48,2,7.48.36-5.85,2-7.48,7.49-2,7.49-2-5.85-.46-7.49-2S574.05,203.47,574.05,203.47Z"/><path class="cls-1" d="M574.05,169.56s-.46,5.75-2,7.48-7.48,2-7.48,2,5.75.36,7.48,2,2,7.49,2,7.49.36-5.85,2-7.49,7.49-2,7.49-2-5.85-.46-7.49-2S574.05,169.56,574.05,169.56Z"/><path class="cls-1" d="M649.32,271.29s-.46,5.76-2,7.49-7.48,2-7.48,2,5.76.37,7.48,2,2,7.48,2,7.48.36-5.84,2-7.48,7.49-2,7.49-2-5.85-.45-7.49-2S649.32,271.29,649.32,271.29Z"/><path class="cls-1" d="M724.59,271.29s-.45,5.76-2,7.49-7.49,2-7.49,2,5.76.37,7.49,2,2,7.48,2,7.48.37-5.84,2-7.48,7.48-2,7.48-2-5.84-.45-7.48-2S724.59,271.29,724.59,271.29Z"/><path class="cls-1" d="M724.59,203.47s-.45,5.76-2,7.49-7.49,2-7.49,2,5.76.37,7.49,2,2,7.48,2,7.48.37-5.85,2-7.48,7.48-2,7.48-2-5.84-.46-7.48-2S724.59,203.47,724.59,203.47Z"/><path class="cls-1" d="M724.59,135.65s-.45,5.75-2,7.48-7.49,2-7.49,2,5.76.36,7.49,2,2,7.49,2,7.49.37-5.85,2-7.49,7.48-2,7.48-2-5.84-.46-7.48-2S724.59,135.65,724.59,135.65Z"/><path class="cls-1" d="M724.59,305.21s-.45,5.75-2,7.48-7.49,2-7.49,2,5.76.36,7.49,2,2,7.49,2,7.49.37-5.85,2-7.49,7.48-2,7.48-2-5.84-.46-7.48-2S724.59,305.21,724.59,305.21Z"/><path class="cls-1" d="M724.59,237.38s-.45,5.76-2,7.49-7.49,2-7.49,2,5.76.37,7.49,2,2,7.48,2,7.48.37-5.84,2-7.48,7.48-2,7.48-2-5.84-.45-7.48-2S724.59,237.38,724.59,237.38Z"/><path class="cls-1" d="M724.59,169.56s-.45,5.75-2,7.48-7.49,2-7.49,2,5.76.36,7.49,2,2,7.49,2,7.49.37-5.85,2-7.49,7.48-2,7.48-2-5.84-.46-7.48-2S724.59,169.56,724.59,169.56Z"/><path class="cls-1" d="M687,33.91s-.46,5.76-2,7.49-7.48,2-7.48,2,5.75.37,7.48,2,2,7.48,2,7.48.36-5.84,2-7.48,7.49-2,7.49-2-5.85-.45-7.49-2S687,33.91,687,33.91Z"/><path class="cls-1" d="M687,67.82s-.46,5.76-2,7.49-7.48,2-7.48,2,5.75.37,7.48,2,2,7.48,2,7.48.36-5.84,2-7.48,7.49-2,7.49-2-5.85-.45-7.49-2S687,67.82,687,67.82Z"/><path class="cls-1" d="M687,101.74s-.46,5.75-2,7.48-7.48,2-7.48,2,5.75.36,7.48,2,2,7.49,2,7.49.36-5.85,2-7.49,7.49-2,7.49-2-5.85-.46-7.49-2S687,101.74,687,101.74Z"/><path class="cls-1" d="M687,135.65s-.46,5.75-2,7.48-7.48,2-7.48,2,5.75.36,7.48,2,2,7.49,2,7.49.36-5.85,2-7.49,7.49-2,7.49-2-5.85-.46-7.49-2S687,135.65,687,135.65Z"/><path class="cls-1" d="M724.59,101.74s-.45,5.75-2,7.48-7.49,2-7.49,2,5.76.36,7.49,2,2,7.49,2,7.49.37-5.85,2-7.49,7.48-2,7.48-2-5.84-.46-7.48-2S724.59,101.74,724.59,101.74Z"/><path class="cls-1" d="M536.41,169.56s-.46,5.75-2,7.48-7.49,2-7.49,2,5.76.37,7.49,2,2,7.48,2,7.48.37-5.85,2-7.48,7.48-2,7.48-2-5.85-.46-7.48-2S536.41,169.56,536.41,169.56Z"/><path class="cls-1" d="M687,0s-.46,5.76-2,7.49-7.48,2-7.48,2,5.75.37,7.48,2S687,19,687,19s.36-5.85,2-7.48,7.49-2,7.49-2-5.85-.46-7.49-2S687,0,687,0Z"/><path class="cls-1" d="M687,169.56s-.46,5.75-2,7.48-7.48,2-7.48,2,5.75.36,7.48,2,2,7.49,2,7.49.36-5.85,2-7.49,7.49-2,7.49-2-5.85-.46-7.49-2S687,169.56,687,169.56Z"/><path class="cls-1" d="M649.32,305.21s-.46,5.75-2,7.48-7.48,2-7.48,2,5.76.36,7.48,2,2,7.49,2,7.49.36-5.85,2-7.49,7.49-2,7.49-2-5.85-.46-7.49-2S649.32,305.21,649.32,305.21Z"/><path class="cls-1" d="M724.59,0s-.45,5.76-2,7.49-7.49,2-7.49,2,5.76.37,7.49,2,2,7.48,2,7.48.37-5.85,2-7.48,7.48-2,7.48-2-5.84-.46-7.48-2S724.59,0,724.59,0Z"/><path class="cls-1" d="M724.59,33.91s-.45,5.76-2,7.49-7.49,2-7.49,2,5.76.37,7.49,2,2,7.48,2,7.48.37-5.84,2-7.48,7.48-2,7.48-2-5.84-.45-7.48-2S724.59,33.91,724.59,33.91Z"/><path class="cls-1" d="M687,203.47s-.46,5.76-2,7.49-7.48,2-7.48,2,5.75.37,7.48,2,2,7.48,2,7.48.36-5.85,2-7.48,7.49-2,7.49-2-5.85-.46-7.49-2S687,203.47,687,203.47Z"/><path class="cls-1" d="M724.59,67.82s-.45,5.76-2,7.49-7.49,2-7.49,2,5.76.37,7.49,2,2,7.48,2,7.48.37-5.84,2-7.48,7.48-2,7.48-2-5.84-.45-7.48-2S724.59,67.82,724.59,67.82Z"/><path class="cls-1" d="M687,237.38s-.46,5.76-2,7.49-7.48,2-7.48,2,5.75.37,7.48,2,2,7.48,2,7.48.36-5.84,2-7.48,7.49-2,7.49-2-5.85-.45-7.49-2S687,237.38,687,237.38Z"/><path class="cls-1" d="M687,305.21s-.46,5.75-2,7.48-7.48,2-7.48,2,5.75.36,7.48,2,2,7.49,2,7.49.36-5.85,2-7.49,7.49-2,7.49-2-5.85-.46-7.49-2S687,305.21,687,305.21Z"/><path class="cls-1" d="M687,271.29s-.46,5.76-2,7.49-7.48,2-7.48,2,5.75.37,7.48,2,2,7.48,2,7.48.36-5.84,2-7.48,7.49-2,7.49-2-5.85-.45-7.49-2S687,271.29,687,271.29Z"/><path class="cls-1" d="M538.43,79.34c1.65-1.64,7.48-2,7.48-2s-5.85-.45-7.48-2-2-7.49-2-7.49-.46,5.76-2,7.49-7.49,2-7.49,2,5.76.37,7.49,2,2,7.48,2,7.48S536.78,81,538.43,79.34Z"/><path class="cls-1" d="M385.87,169.56s-.46,5.75-2,7.48-7.49,2-7.49,2,5.76.36,7.49,2,2,7.49,2,7.49.36-5.85,2-7.49,7.49-2,7.49-2-5.85-.46-7.49-2S385.87,169.56,385.87,169.56Z"/><path class="cls-1" d="M385.87,135.65s-.46,5.75-2,7.48-7.49,2-7.49,2,5.76.36,7.49,2,2,7.49,2,7.49.36-5.85,2-7.49,7.49-2,7.49-2-5.85-.46-7.49-2S385.87,135.65,385.87,135.65Z"/><path class="cls-1" d="M385.87,271.29s-.46,5.76-2,7.49-7.49,2-7.49,2,5.76.37,7.49,2,2,7.48,2,7.48.36-5.84,2-7.48,7.49-2,7.49-2-5.85-.45-7.49-2S385.87,271.29,385.87,271.29Z"/><path class="cls-1" d="M385.87,203.47s-.46,5.76-2,7.49-7.49,2-7.49,2,5.76.37,7.49,2,2,7.48,2,7.48.36-5.85,2-7.48,7.49-2,7.49-2-5.85-.46-7.49-2S385.87,203.47,385.87,203.47Z"/><path class="cls-1" d="M385.86,86.82s.37-5.84,2-7.48,7.48-2,7.48-2-5.84-.45-7.48-2-2-7.49-2-7.49-.45,5.76-2,7.49-7.49,2-7.49,2,5.76.37,7.49,2S385.86,86.82,385.86,86.82Z"/><path class="cls-1" d="M387.88,41.4c-1.64-1.56-2-7.49-2-7.49s-.46,5.76-2,7.49-7.49,2-7.49,2,5.76.37,7.49,2,2,7.48,2,7.48.36-5.84,2-7.48,7.49-2,7.49-2S389.52,43,387.88,41.4Z"/><path class="cls-1" d="M383.85,113.25c1.73,1.65,2,7.49,2,7.49s.36-5.85,2-7.49,7.49-2,7.49-2-5.85-.46-7.49-2-2-7.48-2-7.48-.46,5.75-2,7.48-7.49,2-7.49,2S382.12,111.6,383.85,113.25Z"/><path class="cls-1" d="M385.86,19s.37-5.85,2-7.48,7.49-2,7.49-2-5.85-.46-7.49-2-2-7.49-2-7.49-.45,5.76-2,7.49-7.49,2-7.49,2,5.76.37,7.49,2S385.86,19,385.86,19Z"/><path class="cls-1" d="M385.87,237.38s-.46,5.76-2,7.49-7.49,2-7.49,2,5.76.37,7.49,2,2,7.48,2,7.48.36-5.84,2-7.48,7.49-2,7.49-2-5.85-.45-7.49-2S385.87,237.38,385.87,237.38Z"/><path class="cls-1" d="M385.87,305.21s-.46,5.75-2,7.48-7.49,2-7.49,2,5.76.36,7.49,2,2,7.49,2,7.49.36-5.85,2-7.49,7.49-2,7.49-2-5.85-.46-7.49-2S385.87,305.21,385.87,305.21Z"/><path class="cls-1" d="M425.52,11.52c1.65-1.64,7.48-2,7.48-2s-5.84-.46-7.48-2-2-7.49-2-7.49-.46,5.76-2,7.49-7.49,2-7.49,2,5.76.37,7.49,2,2,7.48,2,7.48S423.87,13.15,425.52,11.52Z"/><path class="cls-1" d="M498.77,305.21s-.45,5.75-2,7.48-7.49,2-7.49,2,5.76.36,7.49,2,2,7.49,2,7.49.37-5.85,2-7.49,7.48-2,7.48-2-5.84-.46-7.48-2S498.77,305.21,498.77,305.21Z"/><path class="cls-1" d="M498.77,33.91s-.45,5.76-2,7.49-7.49,2-7.49,2,5.76.37,7.49,2,2,7.48,2,7.48.37-5.84,2-7.48,7.48-2,7.48-2-5.84-.45-7.48-2S498.77,33.91,498.77,33.91Z"/><path class="cls-1" d="M500.79,79.34c1.65-1.64,7.48-2,7.48-2s-5.84-.45-7.48-2-2-7.49-2-7.49-.45,5.76-2,7.49-7.49,2-7.49,2,5.76.37,7.49,2,2,7.48,2,7.48S499.14,81,500.79,79.34Z"/><path class="cls-1" d="M498.77,101.74s-.45,5.75-2,7.48-7.49,2-7.49,2,5.76.36,7.49,2,2,7.49,2,7.49.37-5.85,2-7.49,7.48-2,7.48-2-5.84-.46-7.48-2S498.77,101.74,498.77,101.74Z"/><path class="cls-1" d="M498.77,169.56s-.45,5.75-2,7.48-7.49,2-7.49,2,5.76.36,7.49,2,2,7.49,2,7.49.37-5.85,2-7.49,7.48-2,7.48-2-5.84-.46-7.48-2S498.77,169.56,498.77,169.56Z"/><path class="cls-1" d="M498.77,135.65s-.45,5.75-2,7.48-7.49,2-7.49,2,5.76.36,7.49,2,2,7.49,2,7.49.37-5.85,2-7.49,7.48-2,7.48-2-5.84-.46-7.48-2S498.77,135.65,498.77,135.65Z"/><path class="cls-1" d="M461.14,19s.36-5.85,2-7.48,7.49-2,7.49-2-5.85-.46-7.49-2-2-7.49-2-7.49-.46,5.76-2,7.49-7.48,2-7.48,2,5.75.37,7.48,2S461.14,19,461.14,19Z"/><path class="cls-1" d="M498.77,0s-.45,5.76-2,7.49-7.49,2-7.49,2,5.76.37,7.49,2,2,7.48,2,7.48.37-5.85,2-7.48,7.48-2,7.48-2-5.84-.46-7.48-2S498.77,0,498.77,0Z"/><path class="cls-1" d="M461.14,52.91s.36-5.84,2-7.48,7.49-2,7.49-2-5.85-.45-7.49-2-2-7.49-2-7.49-.46,5.76-2,7.49-7.48,2-7.48,2,5.75.37,7.48,2S461.14,52.91,461.14,52.91Z"/><path class="cls-1" d="M536.41,101.74s-.46,5.75-2,7.48-7.49,2-7.49,2,5.76.36,7.49,2,2,7.49,2,7.49.37-5.85,2-7.49,7.48-2,7.48-2-5.85-.46-7.48-2S536.41,101.74,536.41,101.74Z"/><path class="cls-1" d="M536.41,33.91s-.46,5.76-2,7.49-7.49,2-7.49,2,5.76.37,7.49,2,2,7.48,2,7.48.37-5.84,2-7.48,7.48-2,7.48-2-5.85-.45-7.48-2S536.41,33.91,536.41,33.91Z"/><path class="cls-1" d="M536.41,0s-.46,5.76-2,7.49-7.49,2-7.49,2,5.76.37,7.49,2,2,7.48,2,7.48.37-5.85,2-7.48,7.48-2,7.48-2-5.85-.46-7.48-2S536.41,0,536.41,0Z"/><path class="cls-1" d="M461.14,86.82s.36-5.84,2-7.48,7.49-2,7.49-2-5.85-.45-7.49-2-2-7.49-2-7.49-.46,5.76-2,7.49-7.48,2-7.48,2,5.75.37,7.48,2S461.14,86.82,461.14,86.82Z"/><path class="cls-1" d="M536.41,135.65s-.45,5.75-2,7.48-7.49,2-7.49,2,5.76.36,7.49,2,2,7.49,2,7.49.37-5.85,2-7.49,7.48-2,7.48-2-5.85-.46-7.48-2S536.41,135.65,536.41,135.65Z"/><path class="cls-1" d="M498.77,237.38s-.45,5.76-2,7.49-7.49,2-7.49,2,5.76.37,7.49,2,2,7.48,2,7.48.37-5.84,2-7.48,7.48-2,7.48-2-5.84-.45-7.48-2S498.77,237.38,498.77,237.38Z"/><path class="cls-1" d="M498.77,271.29s-.45,5.76-2,7.49-7.49,2-7.49,2,5.76.37,7.49,2,2,7.48,2,7.48.37-5.84,2-7.48,7.48-2,7.48-2-5.84-.45-7.48-2S498.77,271.29,498.77,271.29Z"/><path class="cls-1" d="M498.77,203.47s-.45,5.76-2,7.49-7.49,2-7.49,2,5.76.37,7.49,2,2,7.48,2,7.48.37-5.85,2-7.48,7.48-2,7.48-2-5.84-.46-7.48-2S498.77,203.47,498.77,203.47Z"/><path class="cls-1" d="M423.5,305.21s-.46,5.75-2,7.48-7.49,2-7.49,2,5.76.36,7.49,2,2,7.49,2,7.49.37-5.85,2-7.49,7.48-2,7.48-2-5.84-.46-7.48-2S423.5,305.21,423.5,305.21Z"/><path class="cls-1" d="M423.5,169.56s-.46,5.75-2,7.48-7.49,2-7.49,2,5.76.36,7.49,2,2,7.49,2,7.49.37-5.85,2-7.49,7.48-2,7.48-2-5.84-.46-7.48-2S423.5,169.56,423.5,169.56Z"/><path class="cls-1" d="M423.5,237.38s-.46,5.76-2,7.49-7.49,2-7.49,2,5.76.37,7.49,2,2,7.48,2,7.48.37-5.84,2-7.48,7.48-2,7.48-2-5.84-.45-7.48-2S423.5,237.38,423.5,237.38Z"/><path class="cls-1" d="M423.5,203.47s-.46,5.76-2,7.49-7.49,2-7.49,2,5.76.37,7.49,2,2,7.48,2,7.48.37-5.85,2-7.48,7.48-2,7.48-2-5.84-.46-7.48-2S423.5,203.47,423.5,203.47Z"/><path class="cls-1" d="M423.5,33.91s-.46,5.76-2,7.49-7.49,2-7.49,2,5.76.37,7.49,2,2,7.48,2,7.48.37-5.84,2-7.48,7.48-2,7.48-2-5.84-.45-7.48-2S423.5,33.91,423.5,33.91Z"/><path class="cls-1" d="M423.5,271.29s-.46,5.76-2,7.49-7.49,2-7.49,2,5.76.37,7.49,2,2,7.48,2,7.48.37-5.84,2-7.48,7.48-2,7.48-2-5.84-.45-7.48-2S423.5,271.29,423.5,271.29Z"/><path class="cls-1" d="M425.52,79.34c1.65-1.64,7.48-2,7.48-2s-5.84-.45-7.48-2-2-7.49-2-7.49-.46,5.76-2,7.49-7.49,2-7.49,2,5.76.37,7.49,2,2,7.48,2,7.48S423.87,81,425.52,79.34Z"/><path class="cls-1" d="M423.5,101.74s-.46,5.75-2,7.48-7.49,2-7.49,2,5.76.36,7.49,2,2,7.49,2,7.49.37-5.85,2-7.49,7.48-2,7.48-2-5.84-.46-7.48-2S423.5,101.74,423.5,101.74Z"/><path class="cls-1" d="M423.5,135.65s-.46,5.75-2,7.48-7.49,2-7.49,2,5.76.36,7.49,2,2,7.49,2,7.49.37-5.85,2-7.49,7.48-2,7.48-2-5.84-.46-7.48-2S423.5,135.65,423.5,135.65Z"/><path class="cls-1" d="M461.14,101.74s-.46,5.75-2,7.48-7.48,2-7.48,2,5.75.36,7.48,2,2,7.49,2,7.49.36-5.85,2-7.49,7.49-2,7.49-2-5.85-.46-7.49-2S461.14,101.74,461.14,101.74Z"/><path class="cls-1" d="M461.14,305.21s-.46,5.75-2,7.48-7.48,2-7.48,2,5.75.36,7.48,2,2,7.49,2,7.49.36-5.85,2-7.49,7.49-2,7.49-2-5.85-.46-7.49-2S461.14,305.21,461.14,305.21Z"/><path class="cls-1" d="M461.14,237.38s-.46,5.76-2,7.49-7.48,2-7.48,2,5.75.37,7.48,2,2,7.48,2,7.48.36-5.84,2-7.48,7.49-2,7.49-2-5.85-.45-7.49-2S461.14,237.38,461.14,237.38Z"/><path class="cls-1" d="M461.14,271.29s-.46,5.76-2,7.49-7.48,2-7.48,2,5.75.37,7.48,2,2,7.48,2,7.48.36-5.84,2-7.48,7.49-2,7.49-2-5.85-.45-7.49-2S461.14,271.29,461.14,271.29Z"/><path class="cls-1" d="M461.14,203.47s-.46,5.76-2,7.49-7.48,2-7.48,2,5.75.37,7.48,2,2,7.48,2,7.48.36-5.85,2-7.48,7.49-2,7.49-2-5.85-.46-7.49-2S461.14,203.47,461.14,203.47Z"/><path class="cls-1" d="M461.14,169.56s-.46,5.75-2,7.48-7.48,2-7.48,2,5.75.36,7.48,2,2,7.49,2,7.49.36-5.85,2-7.49,7.49-2,7.49-2-5.85-.46-7.49-2S461.14,169.56,461.14,169.56Z"/><path class="cls-1" d="M461.14,135.65s-.46,5.75-2,7.48-7.48,2-7.48,2,5.75.36,7.48,2,2,7.49,2,7.49.36-5.85,2-7.49,7.49-2,7.49-2-5.85-.46-7.49-2S461.14,135.65,461.14,135.65Z"/><path class="cls-1" d="M235.32,169.56s-.46,5.75-2,7.48-7.48,2-7.48,2,5.75.36,7.48,2,2,7.49,2,7.49.36-5.85,2-7.49,7.49-2,7.49-2-5.85-.46-7.49-2S235.32,169.56,235.32,169.56Z"/><path class="cls-1" d="M235.32,203.47s-.46,5.76-2,7.49-7.48,2-7.48,2,5.75.37,7.48,2,2,7.48,2,7.48.36-5.85,2-7.48,7.49-2,7.49-2-5.85-.46-7.49-2S235.32,203.47,235.32,203.47Z"/><path class="cls-1" d="M235.32,305.21s-.46,5.75-2,7.48-7.48,2-7.48,2,5.75.36,7.48,2,2,7.49,2,7.49.36-5.85,2-7.49,7.49-2,7.49-2-5.85-.46-7.49-2S235.32,305.21,235.32,305.21Z"/><path class="cls-1" d="M235.32,237.38s-.46,5.76-2,7.49-7.48,2-7.48,2,5.75.37,7.48,2,2,7.48,2,7.48.36-5.84,2-7.48,7.49-2,7.49-2-5.85-.45-7.49-2S235.32,237.38,235.32,237.38Z"/><path class="cls-1" d="M235.32,33.91s-.46,5.76-2,7.49-7.48,2-7.48,2,5.75.37,7.48,2,2,7.48,2,7.48.36-5.84,2-7.48,7.49-2,7.49-2-5.85-.45-7.49-2S235.32,33.91,235.32,33.91Z"/><path class="cls-1" d="M235.32,67.82s-.46,5.76-2,7.49-7.48,2-7.48,2,5.75.37,7.48,2,2,7.48,2,7.48.36-5.84,2-7.48,7.49-2,7.49-2-5.85-.45-7.49-2S235.32,67.82,235.32,67.82Z"/><path class="cls-1" d="M235.32,135.65s-.46,5.75-2,7.48-7.48,2-7.48,2,5.75.36,7.48,2,2,7.49,2,7.49.36-5.85,2-7.49,7.49-2,7.49-2-5.85-.46-7.49-2S235.32,135.65,235.32,135.65Z"/><path class="cls-1" d="M235.32,101.74s-.46,5.75-2,7.48-7.48,2-7.48,2,5.75.36,7.48,2,2,7.49,2,7.49.36-5.85,2-7.49,7.49-2,7.49-2-5.85-.46-7.49-2S235.32,101.74,235.32,101.74Z"/><path class="cls-1" d="M235.32,271.29s-.46,5.76-2,7.49-7.48,2-7.48,2,5.75.37,7.48,2,2,7.48,2,7.48.36-5.84,2-7.48,7.49-2,7.49-2-5.85-.45-7.49-2S235.32,271.29,235.32,271.29Z"/><path class="cls-1" d="M273,169.56s-.46,5.75-2,7.48-7.48,2-7.48,2,5.75.36,7.48,2,2,7.49,2,7.49.36-5.85,2-7.49,7.49-2,7.49-2-5.85-.46-7.49-2S273,169.56,273,169.56Z"/><path class="cls-1" d="M273,135.65s-.46,5.75-2,7.48-7.48,2-7.48,2,5.75.36,7.48,2,2,7.49,2,7.49.36-5.85,2-7.49,7.49-2,7.49-2-5.85-.46-7.49-2S273,135.65,273,135.65Z"/><path class="cls-1" d="M273,101.74s-.46,5.75-2,7.48-7.48,2-7.48,2,5.75.36,7.48,2,2,7.49,2,7.49.36-5.85,2-7.49,7.49-2,7.49-2-5.85-.46-7.49-2S273,101.74,273,101.74Z"/><path class="cls-1" d="M273,203.47s-.46,5.76-2,7.49-7.48,2-7.48,2,5.75.37,7.48,2,2,7.48,2,7.48.36-5.85,2-7.48,7.49-2,7.49-2-5.85-.46-7.49-2S273,203.47,273,203.47Z"/><path class="cls-1" d="M273,0s-.46,5.76-2,7.49-7.48,2-7.48,2,5.75.37,7.48,2S273,19,273,19s.36-5.85,2-7.48,7.49-2,7.49-2-5.85-.46-7.49-2S273,0,273,0Z"/><path class="cls-1" d="M273,67.82s-.46,5.76-2,7.49-7.48,2-7.48,2,5.75.37,7.48,2,2,7.48,2,7.48.36-5.84,2-7.48,7.49-2,7.49-2-5.85-.45-7.49-2S273,67.82,273,67.82Z"/><path class="cls-1" d="M273,33.91s-.46,5.76-2,7.49-7.48,2-7.48,2,5.75.37,7.48,2,2,7.48,2,7.48.36-5.84,2-7.48,7.49-2,7.49-2-5.85-.45-7.49-2S273,33.91,273,33.91Z"/><path class="cls-1" d="M160.05,271.29s-.46,5.76-2,7.49-7.48,2-7.48,2,5.75.36,7.48,2,2,7.48,2,7.48.36-5.84,2-7.48,7.49-2,7.49-2-5.85-.46-7.49-2S160.05,271.29,160.05,271.29Z"/><path class="cls-1" d="M197.68,0s-.45,5.76-2,7.49-7.49,2-7.49,2,5.76.37,7.49,2,2,7.48,2,7.48.37-5.85,2-7.48,7.48-2,7.48-2-5.84-.46-7.48-2S197.68,0,197.68,0Z"/><path class="cls-1" d="M197.68,67.82s-.45,5.76-2,7.49-7.49,2-7.49,2,5.76.37,7.49,2,2,7.48,2,7.48.37-5.84,2-7.48,7.48-2,7.48-2-5.84-.45-7.48-2S197.68,67.82,197.68,67.82Z"/><path class="cls-1" d="M273,237.38s-.46,5.76-2,7.49-7.48,2-7.48,2,5.75.37,7.48,2,2,7.48,2,7.48.36-5.84,2-7.48,7.49-2,7.49-2-5.85-.45-7.49-2S273,237.38,273,237.38Z"/><path class="cls-1" d="M197.68,33.91s-.45,5.76-2,7.49-7.49,2-7.49,2,5.76.37,7.49,2,2,7.48,2,7.48.37-5.84,2-7.48,7.48-2,7.48-2-5.84-.45-7.48-2S197.68,33.91,197.68,33.91Z"/><path class="cls-1" d="M160.05,203.47s-.46,5.76-2,7.49-7.48,2-7.48,2,5.75.37,7.48,2,2,7.48,2,7.48.36-5.85,2-7.48,7.49-2,7.49-2-5.85-.46-7.49-2S160.05,203.47,160.05,203.47Z"/><path class="cls-1" d="M160.05,305.21s-.46,5.75-2,7.48-7.48,2-7.48,2,5.75.36,7.48,2,2,7.49,2,7.49.36-5.85,2-7.49,7.49-2,7.49-2-5.85-.46-7.49-2S160.05,305.21,160.05,305.21Z"/><path class="cls-1" d="M160.05,237.38s-.46,5.76-2,7.49-7.48,2-7.48,2,5.75.37,7.48,2,2,7.48,2,7.48.36-5.84,2-7.48,7.49-2,7.49-2-5.85-.45-7.49-2S160.05,237.38,160.05,237.38Z"/><path class="cls-1" d="M197.68,305.21s-.45,5.75-2,7.48-7.49,2-7.49,2,5.76.36,7.49,2,2,7.49,2,7.49.37-5.85,2-7.49,7.48-2,7.48-2-5.84-.46-7.48-2S197.68,305.21,197.68,305.21Z"/><path class="cls-1" d="M235.32,0s-.46,5.76-2,7.49-7.48,2-7.48,2,5.75.37,7.48,2,2,7.48,2,7.48.36-5.85,2-7.48,7.49-2,7.49-2-5.85-.46-7.49-2S235.32,0,235.32,0Z"/><path class="cls-1" d="M197.68,237.38s-.45,5.76-2,7.49-7.49,2-7.49,2,5.76.37,7.49,2,2,7.48,2,7.48.37-5.84,2-7.48,7.48-2,7.48-2-5.84-.45-7.48-2S197.68,237.38,197.68,237.38Z"/><path class="cls-1" d="M197.68,271.29s-.45,5.76-2,7.49-7.49,2-7.49,2,5.76.37,7.49,2,2,7.48,2,7.48.37-5.84,2-7.48,7.48-2,7.48-2-5.84-.45-7.48-2S197.68,271.29,197.68,271.29Z"/><path class="cls-1" d="M197.68,101.74s-.45,5.75-2,7.48-7.49,2-7.49,2,5.76.36,7.49,2,2,7.49,2,7.49.37-5.85,2-7.49,7.48-2,7.48-2-5.84-.46-7.48-2S197.68,101.74,197.68,101.74Z"/><path class="cls-1" d="M197.68,135.65s-.45,5.75-2,7.48-7.49,2-7.49,2,5.76.36,7.49,2,2,7.49,2,7.49.37-5.85,2-7.49,7.48-2,7.48-2-5.84-.46-7.48-2S197.68,135.65,197.68,135.65Z"/><path class="cls-1" d="M197.68,203.47s-.45,5.76-2,7.49-7.49,2-7.49,2,5.76.37,7.49,2,2,7.48,2,7.48.37-5.85,2-7.48,7.48-2,7.48-2-5.84-.46-7.48-2S197.68,203.47,197.68,203.47Z"/><path class="cls-1" d="M197.68,169.56s-.45,5.75-2,7.48-7.49,2-7.49,2,5.76.36,7.49,2,2,7.49,2,7.49.37-5.85,2-7.49,7.48-2,7.48-2-5.84-.46-7.48-2S197.68,169.56,197.68,169.56Z"/><path class="cls-1" d="M273,271.29s-.46,5.76-2,7.49-7.48,2-7.48,2,5.75.37,7.48,2,2,7.48,2,7.48.36-5.84,2-7.48,7.49-2,7.49-2-5.85-.45-7.49-2S273,271.29,273,271.29Z"/><path class="cls-1" d="M348.23,271.29s-.46,5.76-2,7.49-7.48,2-7.48,2,5.75.37,7.48,2,2,7.48,2,7.48.36-5.84,2-7.48,7.49-2,7.49-2-5.85-.45-7.49-2S348.23,271.29,348.23,271.29Z"/><path class="cls-1" d="M348.23,203.47s-.46,5.76-2,7.49-7.48,2-7.48,2,5.75.37,7.48,2,2,7.48,2,7.48.36-5.85,2-7.48,7.49-2,7.49-2-5.85-.46-7.49-2S348.23,203.47,348.23,203.47Z"/><path class="cls-1" d="M348.23,135.65s-.46,5.75-2,7.48-7.48,2-7.48,2,5.75.36,7.48,2,2,7.49,2,7.49.36-5.85,2-7.49,7.49-2,7.49-2-5.85-.46-7.49-2S348.23,135.65,348.23,135.65Z"/><path class="cls-1" d="M348.23,305.21s-.46,5.75-2,7.48-7.48,2-7.48,2,5.75.36,7.48,2,2,7.49,2,7.49.36-5.85,2-7.49,7.49-2,7.49-2-5.85-.46-7.49-2S348.23,305.21,348.23,305.21Z"/><path class="cls-1" d="M348.23,237.38s-.46,5.76-2,7.49-7.48,2-7.48,2,5.75.37,7.48,2,2,7.48,2,7.48.36-5.84,2-7.48,7.49-2,7.49-2-5.85-.45-7.49-2S348.23,237.38,348.23,237.38Z"/><path class="cls-1" d="M348.23,169.56s-.46,5.75-2,7.48-7.48,2-7.48,2,5.75.36,7.48,2,2,7.49,2,7.49.36-5.85,2-7.49,7.49-2,7.49-2-5.85-.46-7.49-2S348.23,169.56,348.23,169.56Z"/><path class="cls-1" d="M310.59,33.91s-.45,5.76-2,7.49-7.49,2-7.49,2,5.76.37,7.49,2,2,7.48,2,7.48.37-5.84,2-7.48,7.48-2,7.48-2-5.84-.45-7.48-2S310.59,33.91,310.59,33.91Z"/><path class="cls-1" d="M310.59,67.82s-.45,5.76-2,7.49-7.49,2-7.49,2,5.76.37,7.49,2,2,7.48,2,7.48.37-5.84,2-7.48,7.48-2,7.48-2-5.84-.45-7.48-2S310.59,67.82,310.59,67.82Z"/><path class="cls-1" d="M310.59,101.74s-.45,5.75-2,7.48-7.49,2-7.49,2,5.76.36,7.49,2,2,7.49,2,7.49.37-5.85,2-7.49,7.48-2,7.48-2-5.84-.46-7.48-2S310.59,101.74,310.59,101.74Z"/><path class="cls-1" d="M310.59,135.65s-.45,5.75-2,7.48-7.49,2-7.49,2,5.76.36,7.49,2,2,7.49,2,7.49.37-5.85,2-7.49,7.48-2,7.48-2-5.84-.46-7.48-2S310.59,135.65,310.59,135.65Z"/><path class="cls-1" d="M348.23,101.74s-.46,5.75-2,7.48-7.48,2-7.48,2,5.75.36,7.48,2,2,7.49,2,7.49.36-5.85,2-7.49,7.49-2,7.49-2-5.85-.46-7.49-2S348.23,101.74,348.23,101.74Z"/><path class="cls-1" d="M160.05,169.56s-.46,5.75-2,7.48-7.48,2-7.48,2,5.75.37,7.48,2,2,7.48,2,7.48.36-5.85,2-7.48,7.49-2,7.49-2-5.85-.46-7.49-2S160.05,169.56,160.05,169.56Z"/><path class="cls-1" d="M310.59,0s-.45,5.76-2,7.49-7.49,2-7.49,2,5.76.37,7.49,2,2,7.48,2,7.48.37-5.85,2-7.48,7.48-2,7.48-2-5.84-.46-7.48-2S310.59,0,310.59,0Z"/><path class="cls-1" d="M310.59,169.56s-.45,5.75-2,7.48-7.49,2-7.49,2,5.76.36,7.49,2,2,7.49,2,7.49.37-5.85,2-7.49,7.48-2,7.48-2-5.84-.46-7.48-2S310.59,169.56,310.59,169.56Z"/><path class="cls-1" d="M273,305.21s-.46,5.75-2,7.48-7.48,2-7.48,2,5.75.36,7.48,2,2,7.49,2,7.49.36-5.85,2-7.49,7.49-2,7.49-2-5.85-.46-7.49-2S273,305.21,273,305.21Z"/><path class="cls-1" d="M348.23,0s-.46,5.76-2,7.49-7.48,2-7.48,2,5.75.37,7.48,2,2,7.48,2,7.48.36-5.85,2-7.48,7.49-2,7.49-2-5.85-.46-7.49-2S348.23,0,348.23,0Z"/><path class="cls-1" d="M348.23,33.91s-.46,5.76-2,7.49-7.48,2-7.48,2,5.75.37,7.48,2,2,7.48,2,7.48.36-5.84,2-7.48,7.49-2,7.49-2-5.85-.45-7.49-2S348.23,33.91,348.23,33.91Z"/><path class="cls-1" d="M310.59,203.47s-.45,5.76-2,7.49-7.49,2-7.49,2,5.76.37,7.49,2,2,7.48,2,7.48.37-5.85,2-7.48,7.48-2,7.48-2-5.84-.46-7.48-2S310.59,203.47,310.59,203.47Z"/><path class="cls-1" d="M348.23,67.82s-.46,5.76-2,7.49-7.48,2-7.48,2,5.75.37,7.48,2,2,7.48,2,7.48.36-5.84,2-7.48,7.49-2,7.49-2-5.85-.45-7.49-2S348.23,67.82,348.23,67.82Z"/><path class="cls-1" d="M310.59,237.38s-.45,5.76-2,7.49-7.49,2-7.49,2,5.76.37,7.49,2,2,7.48,2,7.48.37-5.84,2-7.48,7.48-2,7.48-2-5.84-.45-7.48-2S310.59,237.38,310.59,237.38Z"/><path class="cls-1" d="M310.59,305.21s-.45,5.75-2,7.48-7.49,2-7.49,2,5.76.36,7.49,2,2,7.49,2,7.49.37-5.85,2-7.49,7.48-2,7.48-2-5.84-.46-7.48-2S310.59,305.21,310.59,305.21Z"/><path class="cls-1" d="M310.59,271.29s-.45,5.76-2,7.49-7.49,2-7.49,2,5.76.37,7.49,2,2,7.48,2,7.48.37-5.84,2-7.48,7.48-2,7.48-2-5.84-.45-7.48-2S310.59,271.29,310.59,271.29Z"/><path class="cls-1" d="M162.06,79.34c1.65-1.64,7.49-2,7.49-2s-5.85-.45-7.49-2-2-7.49-2-7.49-.46,5.76-2,7.49-7.48,2-7.48,2,5.75.37,7.48,2,2,7.48,2,7.48S160.41,81,162.06,79.34Z"/><path class="cls-1" d="M9.5,169.56s-.46,5.75-2,7.48-7.49,2-7.49,2,5.76.36,7.49,2,2,7.49,2,7.49.37-5.85,2-7.49,7.48-2,7.48-2-5.85-.46-7.48-2S9.5,169.56,9.5,169.56Z"/><path class="cls-1" d="M9.5,135.65s-.46,5.75-2,7.48-7.49,2-7.49,2,5.76.36,7.49,2,2,7.49,2,7.49.37-5.85,2-7.49,7.48-2,7.48-2-5.84-.46-7.48-2S9.5,135.65,9.5,135.65Z"/><path class="cls-1" d="M9.5,271.29s-.46,5.76-2,7.49-7.49,2-7.49,2,5.76.37,7.49,2,2,7.48,2,7.48.37-5.84,2-7.48,7.48-2,7.48-2-5.85-.45-7.48-2S9.5,271.29,9.5,271.29Z"/><path class="cls-1" d="M9.5,203.47s-.46,5.76-2,7.49S0,213,0,213s5.76.37,7.49,2,2,7.48,2,7.48.37-5.85,2-7.48S19,213,19,213s-5.85-.46-7.48-2S9.5,203.47,9.5,203.47Z"/><path class="cls-1" d="M9.5,86.82s.37-5.84,2-7.48,7.48-2,7.48-2-5.85-.45-7.48-2-2-7.49-2-7.49-.46,5.76-2,7.49-7.49,2-7.49,2,5.76.37,7.49,2S9.5,86.82,9.5,86.82Z"/><path class="cls-1" d="M11.52,41.4c-1.64-1.56-2-7.49-2-7.49s-.46,5.76-2,7.49-7.49,2-7.49,2,5.76.37,7.49,2,2,7.48,2,7.48.37-5.84,2-7.48,7.48-2,7.48-2S13.15,43,11.52,41.4Z"/><path class="cls-1" d="M7.49,113.25c1.73,1.65,2,7.49,2,7.49s.37-5.85,2-7.49,7.48-2,7.48-2-5.85-.46-7.48-2-2-7.48-2-7.48-.46,5.75-2,7.48-7.49,2-7.49,2S5.76,111.6,7.49,113.25Z"/><path class="cls-1" d="M9.5,19s.37-5.85,2-7.48S19,9.5,19,9.5s-5.85-.46-7.48-2S9.5,0,9.5,0,9,5.76,7.49,7.49,0,9.5,0,9.5s5.76.37,7.49,2S9.5,19,9.5,19Z"/><path class="cls-1" d="M9.5,237.38s-.46,5.76-2,7.49-7.49,2-7.49,2,5.76.37,7.49,2,2,7.48,2,7.48.37-5.84,2-7.48,7.48-2,7.48-2-5.85-.45-7.48-2S9.5,237.38,9.5,237.38Z"/><path class="cls-1" d="M9.5,305.21s-.46,5.75-2,7.48-7.49,2-7.49,2,5.76.36,7.49,2,2,7.49,2,7.49.37-5.85,2-7.49,7.48-2,7.48-2-5.85-.46-7.48-2S9.5,305.21,9.5,305.21Z"/><path class="cls-1" d="M49.15,11.52c1.65-1.64,7.49-2,7.49-2s-5.85-.46-7.49-2-2-7.49-2-7.49-.46,5.76-2,7.49-7.48,2-7.48,2,5.75.37,7.48,2,2,7.48,2,7.48S47.5,13.15,49.15,11.52Z"/><path class="cls-1" d="M122.41,305.21s-.46,5.75-2,7.48-7.48,2-7.48,2,5.76.36,7.48,2,2,7.49,2,7.49.37-5.85,2-7.49,7.48-2,7.48-2-5.85-.46-7.48-2S122.41,305.21,122.41,305.21Z"/><path class="cls-1" d="M122.41,33.91s-.46,5.76-2,7.49-7.48,2-7.48,2,5.76.37,7.48,2,2,7.48,2,7.48.37-5.84,2-7.48,7.48-2,7.48-2-5.85-.45-7.48-2S122.41,33.91,122.41,33.91Z"/><path class="cls-1" d="M124.43,79.34c1.64-1.64,7.48-2,7.48-2s-5.85-.45-7.48-2-2-7.49-2-7.49-.46,5.76-2,7.49-7.48,2-7.48,2,5.76.37,7.48,2,2,7.48,2,7.48S122.77,81,124.43,79.34Z"/><path class="cls-1" d="M122.41,101.74s-.46,5.75-2,7.48-7.48,2-7.48,2,5.76.36,7.48,2,2,7.49,2,7.49.37-5.85,2-7.49,7.48-2,7.48-2-5.85-.46-7.48-2S122.41,101.74,122.41,101.74Z"/><path class="cls-1" d="M122.41,169.56s-.46,5.75-2,7.48-7.48,2-7.48,2,5.76.36,7.48,2,2,7.49,2,7.49.37-5.85,2-7.49,7.48-2,7.48-2-5.85-.46-7.48-2S122.41,169.56,122.41,169.56Z"/><path class="cls-1" d="M122.41,135.65s-.46,5.75-2,7.48-7.48,2-7.48,2,5.76.36,7.48,2,2,7.49,2,7.49.37-5.85,2-7.49,7.48-2,7.48-2-5.85-.46-7.48-2S122.41,135.65,122.41,135.65Z"/><path class="cls-1" d="M84.77,19s.37-5.85,2-7.48,7.48-2,7.48-2-5.84-.46-7.48-2-2-7.49-2-7.49-.45,5.76-2,7.49-7.49,2-7.49,2,5.76.37,7.49,2S84.77,19,84.77,19Z"/><path class="cls-1" d="M122.41,0s-.46,5.76-2,7.49-7.48,2-7.48,2,5.76.37,7.48,2,2,7.48,2,7.48.37-5.85,2-7.48,7.48-2,7.48-2-5.85-.46-7.48-2S122.41,0,122.41,0Z"/><path class="cls-1" d="M84.77,52.91s.37-5.84,2-7.48,7.48-2,7.48-2-5.84-.45-7.48-2-2-7.49-2-7.49-.45,5.76-2,7.49-7.49,2-7.49,2,5.76.37,7.49,2S84.77,52.91,84.77,52.91Z"/><path class="cls-1" d="M160.05,101.74s-.46,5.75-2,7.48-7.48,2-7.48,2,5.75.36,7.48,2,2,7.49,2,7.49.36-5.85,2-7.49,7.49-2,7.49-2-5.85-.46-7.49-2S160.05,101.74,160.05,101.74Z"/><path class="cls-1" d="M160.05,33.91s-.46,5.76-2,7.49-7.48,2-7.48,2,5.75.37,7.48,2,2,7.48,2,7.48.36-5.84,2-7.48,7.49-2,7.49-2-5.85-.45-7.49-2S160.05,33.91,160.05,33.91Z"/><path class="cls-1" d="M160.05,0s-.46,5.76-2,7.49-7.48,2-7.48,2,5.75.37,7.48,2,2,7.48,2,7.48.36-5.85,2-7.48,7.49-2,7.49-2-5.85-.46-7.49-2S160.05,0,160.05,0Z"/><path class="cls-1" d="M84.77,86.82s.37-5.84,2-7.48,7.48-2,7.48-2-5.84-.45-7.48-2-2-7.49-2-7.49-.45,5.76-2,7.49-7.49,2-7.49,2,5.76.37,7.49,2S84.77,86.82,84.77,86.82Z"/><path class="cls-1" d="M160.05,135.65s-.46,5.75-2,7.48-7.48,2-7.48,2,5.75.36,7.48,2,2,7.49,2,7.49.36-5.85,2-7.49,7.49-2,7.49-2-5.85-.46-7.49-2S160.05,135.65,160.05,135.65Z"/><path class="cls-1" d="M122.41,237.38s-.46,5.76-2,7.49-7.48,2-7.48,2,5.76.37,7.48,2,2,7.48,2,7.48.37-5.84,2-7.48,7.48-2,7.48-2-5.85-.45-7.48-2S122.41,237.38,122.41,237.38Z"/><path class="cls-1" d="M122.41,271.29s-.46,5.76-2,7.49-7.48,2-7.48,2,5.76.37,7.48,2,2,7.48,2,7.48.37-5.84,2-7.48,7.48-2,7.48-2-5.85-.45-7.48-2S122.41,271.29,122.41,271.29Z"/><path class="cls-1" d="M122.41,203.47s-.46,5.76-2,7.49-7.48,2-7.48,2,5.76.37,7.48,2,2,7.48,2,7.48.37-5.85,2-7.48,7.48-2,7.48-2-5.85-.46-7.48-2S122.41,203.47,122.41,203.47Z"/><path class="cls-1" d="M47.14,305.21s-.46,5.75-2,7.48-7.48,2-7.48,2,5.75.36,7.48,2,2,7.49,2,7.49.36-5.85,2-7.49,7.49-2,7.49-2-5.85-.46-7.49-2S47.14,305.21,47.14,305.21Z"/><path class="cls-1" d="M47.14,169.56s-.46,5.75-2,7.48-7.48,2-7.48,2,5.75.36,7.48,2,2,7.49,2,7.49.36-5.85,2-7.49,7.49-2,7.49-2-5.85-.46-7.49-2S47.14,169.56,47.14,169.56Z"/><path class="cls-1" d="M47.14,237.38s-.46,5.76-2,7.49-7.48,2-7.48,2,5.75.37,7.48,2,2,7.48,2,7.48.36-5.84,2-7.48,7.49-2,7.49-2-5.85-.45-7.49-2S47.14,237.38,47.14,237.38Z"/><path class="cls-1" d="M47.14,203.47s-.46,5.76-2,7.49-7.48,2-7.48,2,5.75.37,7.48,2,2,7.48,2,7.48.36-5.85,2-7.48,7.49-2,7.49-2-5.85-.46-7.49-2S47.14,203.47,47.14,203.47Z"/><path class="cls-1" d="M47.14,33.91s-.46,5.76-2,7.49-7.48,2-7.48,2,5.75.37,7.48,2,2,7.48,2,7.48.36-5.84,2-7.48,7.49-2,7.49-2-5.85-.45-7.49-2S47.14,33.91,47.14,33.91Z"/><path class="cls-1" d="M47.14,271.29s-.46,5.76-2,7.49-7.48,2-7.48,2,5.75.37,7.48,2,2,7.48,2,7.48.36-5.84,2-7.48,7.49-2,7.49-2-5.85-.45-7.49-2S47.14,271.29,47.14,271.29Z"/><path class="cls-1" d="M49.15,79.34c1.65-1.64,7.49-2,7.49-2s-5.85-.45-7.49-2-2-7.49-2-7.49-.46,5.76-2,7.49-7.48,2-7.48,2,5.75.37,7.48,2,2,7.48,2,7.48S47.5,81,49.15,79.34Z"/><path class="cls-1" d="M47.14,101.74s-.46,5.75-2,7.48-7.48,2-7.48,2,5.75.36,7.48,2,2,7.49,2,7.49.36-5.85,2-7.49,7.49-2,7.49-2-5.85-.46-7.49-2S47.14,101.74,47.14,101.74Z"/><path class="cls-1" d="M47.14,135.65s-.46,5.75-2,7.48-7.48,2-7.48,2,5.75.36,7.48,2,2,7.49,2,7.49.36-5.85,2-7.49,7.49-2,7.49-2-5.85-.46-7.49-2S47.14,135.65,47.14,135.65Z"/><path class="cls-1" d="M84.77,101.74s-.45,5.75-2,7.48-7.49,2-7.49,2,5.76.36,7.49,2,2,7.49,2,7.49.37-5.85,2-7.49,7.48-2,7.48-2-5.84-.46-7.48-2S84.77,101.74,84.77,101.74Z"/><path class="cls-1" d="M84.77,305.21s-.45,5.75-2,7.48-7.49,2-7.49,2,5.76.36,7.49,2,2,7.49,2,7.49.37-5.85,2-7.49,7.48-2,7.48-2-5.84-.46-7.48-2S84.77,305.21,84.77,305.21Z"/><path class="cls-1" d="M84.77,237.38s-.45,5.76-2,7.49-7.49,2-7.49,2,5.76.37,7.49,2,2,7.48,2,7.48.37-5.84,2-7.48,7.48-2,7.48-2-5.84-.45-7.48-2S84.77,237.38,84.77,237.38Z"/><path class="cls-1" d="M84.77,271.29s-.45,5.76-2,7.49-7.49,2-7.49,2,5.76.37,7.49,2,2,7.48,2,7.48.37-5.84,2-7.48,7.48-2,7.48-2-5.84-.45-7.48-2S84.77,271.29,84.77,271.29Z"/><path class="cls-1" d="M84.77,203.47s-.45,5.76-2,7.49-7.49,2-7.49,2,5.76.37,7.49,2,2,7.48,2,7.48.37-5.85,2-7.48,7.48-2,7.48-2-5.84-.46-7.48-2S84.77,203.47,84.77,203.47Z"/><path class="cls-1" d="M84.77,169.56s-.45,5.75-2,7.48-7.49,2-7.49,2,5.76.36,7.49,2,2,7.49,2,7.49.37-5.85,2-7.49,7.48-2,7.48-2-5.84-.46-7.48-2S84.77,169.56,84.77,169.56Z"/><path class="cls-1" d="M84.77,135.65s-.45,5.75-2,7.48-7.49,2-7.49,2,5.76.36,7.49,2,2,7.49,2,7.49.37-5.85,2-7.49,7.48-2,7.48-2-5.84-.46-7.48-2S84.77,135.65,84.77,135.65Z"/></g></g></svg>